<svg width="83" height="37" viewBox="0 0 83 37" fill="none" xmlns="http://www.w3.org/2000/svg">
<g clip-path="url(#clip0_2_615)">
<path d="M35.5542 35.8939H34.0609C34.0609 35.8939 33.984 35.8718 33.962 35.8386C31.1621 31.0158 24.8045 29.3898 22.3339 29.3898C19.8633 29.3898 13.5167 31.0158 10.7058 35.8386C10.6838 35.8718 10.6509 35.8939 10.607 35.8939H9.11365C9.11365 35.8939 9.03678 35.8718 9.01482 35.8386C8.99286 35.8054 8.99286 35.7611 9.01482 35.728C13.4289 29.1354 20.8735 28.8036 22.3229 28.8036C23.7723 28.8036 31.217 29.1354 35.631 35.728C35.653 35.7611 35.653 35.8054 35.631 35.8386C35.6091 35.8718 35.5761 35.8939 35.5322 35.8939H35.5542ZM34.1267 35.6726H35.3456C30.9754 29.3456 23.7614 29.0248 22.3449 29.0248C20.9284 29.0248 13.7034 29.3456 9.34423 35.6726H10.563C12.1003 33.0622 14.5818 31.5136 16.4046 30.6619C18.7763 29.5558 21.0273 29.1686 22.3449 29.1686C23.6625 29.1686 25.9025 29.5668 28.2852 30.6619C30.108 31.5025 32.5895 33.0622 34.1267 35.6726Z" fill="#969595"/>
<path d="M33.6875 35.3297C26.0782 34.4448 18.4469 34.4448 10.9913 35.3297L10.9693 35.1085C18.4469 34.2236 26.1002 34.2236 33.7205 35.1085L33.6985 35.3297H33.6875Z" fill="#969595"/>
<path d="M33.5009 35.0532C26.0233 33.9913 18.5128 33.9913 11.1779 35.0532L11.145 34.832C18.5018 33.7701 26.0343 33.7701 33.5338 34.832L33.5009 35.0532Z" fill="#969595"/>
<path d="M22.29 29.2792H22.0704V34.1462H22.29V29.2792Z" fill="#969595"/>
<path d="M20.9214 29.3591L20.5732 34.1358L20.7922 34.152L21.1405 29.3753L20.9214 29.3591Z" fill="#969595"/>
<path d="M19.7371 29.5769L18.8695 34.1284L19.0851 34.1701L19.9528 29.6186L19.7371 29.5769Z" fill="#969595"/>
<path d="M18.6272 29.8505L16.9845 34.2861L17.1902 34.3634L18.833 29.9278L18.6272 29.8505Z" fill="#969595"/>
<path d="M17.3815 30.2781L15.1131 34.4243L15.3055 34.5311L17.5738 30.3849L17.3815 30.2781Z" fill="#969595"/>
<path d="M23.4988 29.3628L23.2798 29.3791L23.6289 34.1557L23.8479 34.1395L23.4988 29.3628Z" fill="#969595"/>
<path d="M24.6955 29.5728L24.4798 29.6145L25.3458 34.1663L25.5615 34.1247L24.6955 29.5728Z" fill="#969595"/>
<path d="M25.7978 29.7823L25.5917 29.8585L27.2371 34.3757L27.4432 34.2995L25.7978 29.7823Z" fill="#969595"/>
<path d="M26.9816 30.1478L26.7893 30.2548L29.1257 34.5148L29.3179 34.4078L26.9816 30.1478Z" fill="#969595"/>
<path d="M17.7369 30.1908L15.5612 34.412L15.6586 34.463L17.8344 30.2417L17.7369 30.1908Z" fill="#969595"/>
<path d="M18.9313 29.8064L17.4211 34.2778L17.525 34.3135L19.0352 29.842L18.9313 29.8064Z" fill="#969595"/>
<path d="M19.9985 29.5368L19.2113 34.1368L19.3196 34.1556L20.1067 29.5556L19.9985 29.5368Z" fill="#969595"/>
<path d="M21.1826 29.372L20.8955 34.1417L21.0051 34.1484L21.2922 29.3787L21.1826 29.372Z" fill="#969595"/>
<path d="M22.4876 29.2239H22.3778V34.1462H22.4876V29.2239Z" fill="#969595"/>
<path d="M23.7011 29.3662L23.5916 29.3745L23.9473 34.1506L24.0568 34.1423L23.7011 29.3662Z" fill="#969595"/>
<path d="M24.8889 29.5936L24.7812 29.6152L25.6976 34.2473L25.8052 34.2256L24.8889 29.5936Z" fill="#969595"/>
<path d="M26.0034 29.8727L25.9008 29.9122L27.5843 34.3441L27.6869 34.3046L26.0034 29.8727Z" fill="#969595"/>
<path d="M27.2107 30.2843L27.1152 30.3389L29.46 34.5054L29.5555 34.4509L27.2107 30.2843Z" fill="#969595"/>
<path d="M9.90423 35.8164L9.81639 35.7501C11.1011 33.8586 12.847 32.2326 14.8893 31.0712C17.1951 29.7549 19.6987 29.0912 22.3449 29.0912V29.2018C16.4704 29.2018 12.0674 32.6197 9.91521 35.8054L9.90423 35.8164Z" fill="#969595"/>
<path d="M34.8734 35.8164C32.7103 32.6197 28.3182 29.2129 22.4437 29.2129V29.1022C25.09 29.1022 27.5935 29.7659 29.8993 31.0822C31.9417 32.2436 33.6875 33.8586 34.9722 35.7611L34.8844 35.8275L34.8734 35.8164Z" fill="#969595"/>
<path d="M37.333 35.8939H30.3825C30.3166 35.8939 30.2727 35.8386 30.2727 35.7833V34.7324C30.2727 34.6661 30.3276 34.6218 30.3825 34.6218H37.333C37.3989 34.6218 37.4428 34.6771 37.4428 34.7324V35.7833C37.4428 35.8496 37.3879 35.8939 37.333 35.8939ZM30.4923 35.6726H37.2232V34.8431H30.4923V35.6726Z" fill="#969595"/>
<path d="M36.8938 34.843H30.8327C30.7668 34.843 30.7229 34.7877 30.7229 34.7324V34.29C30.7229 34.2236 30.7778 34.1794 30.8327 34.1794H36.8938C36.9597 34.1794 37.0036 34.2347 37.0036 34.29V34.7324C37.0036 34.7988 36.9487 34.843 36.8938 34.843ZM30.9425 34.6218H36.784V34.4006H30.9425V34.6218Z" fill="#969595"/>
<path d="M33.1385 34.4006H31.5683C31.5024 34.4006 31.4585 34.3453 31.4585 34.29V27.8634C31.4585 27.797 31.5134 27.7528 31.5683 27.7528H32.875V27.974H31.6781V34.1794H33.1385V34.4006Z" fill="#969595"/>
<path d="M33.5667 30.4075H33.3471V22.4433H32.1064V27.8634H31.8868V22.3327C31.8868 22.2664 31.9417 22.2221 31.9966 22.2221H33.4569C33.5228 22.2221 33.5667 22.2774 33.5667 22.3327V30.4075Z" fill="#969595"/>
<path d="M32.3919 22.377H32.1723V16.8463C32.1723 16.78 32.2272 16.7357 32.2821 16.7357H33.7973C33.8632 16.7357 33.9071 16.791 33.9071 16.8463V18.8042H33.6875V16.957H32.3919V22.377Z" fill="#969595"/>
<path d="M36.235 34.4006H34.6648V34.1794H36.1252V31.2813H34.7746V32.5312H34.555V31.1707C34.555 31.1043 34.6099 31.0601 34.6648 31.0601H36.235C36.3008 31.0601 36.3448 31.1154 36.3448 31.1707V34.29C36.3448 34.3564 36.2899 34.4006 36.235 34.4006Z" fill="#969595"/>
<path d="M36.0703 31.1596H35.8506V25.8502H34.8514V25.629H35.9604C36.0263 25.629 36.0703 25.6843 36.0703 25.7396V31.1596Z" fill="#969595"/>
<path d="M34.3354 26.3701H34.1158V20.3528C34.1158 20.2864 34.1707 20.2421 34.2256 20.2421H35.631C35.6969 20.2421 35.7409 20.2975 35.7409 20.3528V25.7728H35.5212V20.4634H34.3354V26.3701Z" fill="#969595"/>
<path d="M32.7981 16.8353H32.5785V12.7758C32.5785 12.7094 32.6334 12.6652 32.6883 12.6652H33.8083C33.8742 12.6652 33.9181 12.7205 33.9181 12.7758V14.8442H33.6985V12.8864H32.8091V16.8353H32.7981Z" fill="#969595"/>
<path d="M35.1918 20.3528H34.9722V14.0257H33.8083V13.8045H35.082C35.1479 13.8045 35.1918 13.8598 35.1918 13.9151V20.3528Z" fill="#969595"/>
<path d="M34.7416 13.9151H34.522V8.24066H33.3252V12.7868H33.1056V8.13004C33.1056 8.06368 33.1605 8.01943 33.2154 8.01943H34.6428C34.7087 8.01943 34.7526 8.07474 34.7526 8.13004V13.9151H34.7416Z" fill="#969595"/>
<path d="M34.3354 0.829597H34.1158V8.9154H34.3354V0.829597Z" fill="#969595"/>
<path d="M33.7205 8.13004H33.5009V4.53513C33.5009 4.46876 33.5558 4.42451 33.6107 4.42451H34.2256V4.64574H33.7205V8.13004Z" fill="#969595"/>
<path d="M35.9604 28.7815H31.5683C31.5683 28.7815 31.5134 28.7593 31.5134 28.7262V28.2948C31.5134 28.2948 31.5354 28.2395 31.5683 28.2395H35.9604C35.9604 28.2395 36.0153 28.2616 36.0153 28.2948V28.7262C36.0153 28.7262 35.9934 28.7815 35.9604 28.7815ZM31.6232 28.6709H35.9055V28.3501H31.6232V28.6709Z" fill="#969595"/>
<path d="M35.631 23.2729H31.9856C31.9856 23.2729 31.9307 23.2508 31.9307 23.2176V22.7862C31.9307 22.7862 31.9526 22.7309 31.9856 22.7309H35.631C35.631 22.7309 35.6859 22.7531 35.6859 22.7862V23.2176C35.6859 23.2176 35.664 23.2729 35.631 23.2729ZM32.0515 23.1623H35.5761V22.8416H32.0515V23.1623Z" fill="#969595"/>
<path d="M33.7973 17.7644H32.2821C32.2821 17.7644 32.2272 17.7423 32.2272 17.7091V17.2777C32.2272 17.2777 32.2491 17.2224 32.2821 17.2224H33.7973C33.7973 17.2224 33.8522 17.2445 33.8522 17.2777V17.7091C33.8522 17.7091 33.8303 17.7644 33.7973 17.7644ZM32.337 17.6538H33.7424V17.333H32.337V17.6538Z" fill="#969595"/>
<path d="M34.6318 9.4574H33.2044C33.1385 9.4574 33.0946 9.40209 33.0946 9.34679V8.9154C33.0946 8.84903 33.1495 8.80478 33.2044 8.80478H34.6318C34.6977 8.80478 34.7416 8.86009 34.7416 8.9154V9.34679C34.7416 9.41315 34.6867 9.4574 34.6318 9.4574ZM33.3142 9.22511H34.511V9.01495H33.3142V9.22511Z" fill="#969595"/>
<path d="M35.2138 26.6688H34.9942V28.3169H35.2138V26.6688Z" fill="#969595"/>
<path d="M32.315 29.4451H32.0954V34.2789H32.315V29.4451Z" fill="#969595"/>
<path d="M32.9628 29.4451H32.7432V34.2789H32.9628V29.4451Z" fill="#969595"/>
<path d="M36.235 31.7016H35.4444V31.9229H36.235V31.7016Z" fill="#969595"/>
<path d="M36.235 32.3653H35.4444V32.4759H36.235V32.3653Z" fill="#969595"/>
<path d="M36.235 32.7414H35.4444V32.9626H36.235V32.7414Z" fill="#969595"/>
<path d="M36.235 33.4161H35.4444V33.5268H36.235V33.4161Z" fill="#969595"/>
<path d="M32.864 23.649H31.9966V23.8703H32.864V23.649Z" fill="#969595"/>
<path d="M32.864 24.2685H31.9966V24.4897H32.864V24.2685Z" fill="#969595"/>
<path d="M32.864 24.899H31.9966V25.1202H32.864V24.899Z" fill="#969595"/>
<path d="M34.9063 20.9169H34.7965V22.1889H34.9063V20.9169Z" fill="#969595"/>
<path d="M33.1056 18.2069H32.2821V18.3175H33.1056V18.2069Z" fill="#969595"/>
<path d="M33.1056 18.6936H32.2821V18.9148H33.1056V18.6936Z" fill="#969595"/>
<path d="M33.1056 19.2798H32.2821V19.3904H33.1056V19.2798Z" fill="#969595"/>
<path d="M33.1056 19.7001H32.2821V19.9214H33.1056V19.7001Z" fill="#969595"/>
<path d="M33.1056 20.2864H32.2821V20.397H33.1056V20.2864Z" fill="#969595"/>
<path d="M33.1056 20.7067H32.2821V20.928H33.1056V20.7067Z" fill="#969595"/>
<path d="M33.1056 21.304H32.2821V21.4146H33.1056V21.304Z" fill="#969595"/>
<path d="M33.2593 13.4063H33.1495V16.1163H33.2593V13.4063Z" fill="#969595"/>
<path d="M35.082 14.9438H34.6318V15.0544H35.082V14.9438Z" fill="#969595"/>
<path d="M35.082 15.4858H34.6318V15.707H35.082V15.4858Z" fill="#969595"/>
<path d="M35.082 16.1274H34.6318V16.238H35.082V16.1274Z" fill="#969595"/>
<path d="M35.082 16.6804H34.6318V16.9016H35.082V16.6804Z" fill="#969595"/>
<path d="M35.9604 26.1046H35.5103V26.2152H35.9604V26.1046Z" fill="#969595"/>
<path d="M35.9604 26.6466H35.5103V26.8679H35.9604V26.6466Z" fill="#969595"/>
<path d="M35.9604 27.2882H35.5103V27.3988H35.9604V27.2882Z" fill="#969595"/>
<path d="M35.9604 27.8302H35.5103V28.0514H35.9604V27.8302Z" fill="#969595"/>
<path d="M35.082 17.322H34.6318V17.4326H35.082V17.322Z" fill="#969595"/>
<path d="M35.082 17.864H34.6318V18.0852H35.082V17.864Z" fill="#969595"/>
<path d="M35.082 18.5055H34.6318V18.6161H35.082V18.5055Z" fill="#969595"/>
<path d="M35.082 19.0586H34.6318V19.2798H35.082V19.0586Z" fill="#969595"/>
<path d="M34.1926 9.76711H33.6436V9.98834H34.1926V9.76711Z" fill="#969595"/>
<path d="M34.1926 10.3534H33.6436V10.464H34.1926V10.3534Z" fill="#969595"/>
<path d="M34.1926 10.8179H33.6436V11.0392H34.1926V10.8179Z" fill="#969595"/>
<path d="M35.2138 28.7262H34.9942V30.4075H35.2138V28.7262Z" fill="#969595"/>
<path d="M33.8522 19.0697H33.7424V21.0939H33.8522V19.0697Z" fill="#969595"/>
<path d="M33.8522 14.9991H33.7424V15.4416H33.8522V14.9991Z" fill="#969595"/>
<path d="M33.0946 13.4063H32.9848V16.1163H33.0946V13.4063Z" fill="#969595"/>
<path d="M34.1926 11.3489H33.6436V11.4595H34.1926V11.3489Z" fill="#969595"/>
<path d="M34.0279 4.52407H33.9181V8.11898H34.0279V4.52407Z" fill="#969595"/>
<path d="M34.2805 0H34.1707V0.51988H34.2805V0Z" fill="#969595"/>
<path d="M35.1369 20.9169H35.0271V22.1889H35.1369V20.9169Z" fill="#969595"/>
<path d="M34.2805 26.6688H34.1707V27.432H34.2805V26.6688Z" fill="#969595"/>
<path d="M32.5675 31.0712H32.4577V34.2568H32.5675V31.0712Z" fill="#969595"/>
<path d="M31.9087 31.0712H31.7989V34.2568H31.9087V31.0712Z" fill="#969595"/>
<path d="M33.5009 31.0712H33.3911V34.2568H33.5009V31.0712Z" fill="#969595"/>
<path d="M33.9181 32.852H33.8083V34.2457H33.9181V32.852Z" fill="#969595"/>
<path d="M34.3573 33.4715H34.2475V34.2568H34.3573V33.4715Z" fill="#969595"/>
<path d="M37.333 35.02H30.3825V35.1306H37.333V35.02Z" fill="#969595"/>
<path d="M9.1356 18.7931C9.1356 18.7931 9.09168 18.7931 9.0807 18.7821C9.04776 18.7599 9.0258 18.7268 9.0258 18.6825V16.249C9.0258 16.1827 9.0807 16.1384 9.1356 16.1384H9.50893V14.2027H9.72854V18.406C9.72854 18.406 9.70658 18.4834 9.67364 18.5055L9.19051 18.7821C9.19051 18.7821 9.15757 18.7931 9.1356 18.7931ZM9.24541 16.3596V18.4945L9.50893 18.3507V16.3596H9.24541Z" fill="#969595"/>
<path d="M9.61874 35.8939H6.13799C6.0721 35.8939 6.02818 35.8386 6.02818 35.7833V20.3638C6.02818 20.3638 6.05014 20.2864 6.08308 20.2643L9.56384 18.3175C9.56384 18.3175 9.6407 18.2954 9.67364 18.3175C9.70658 18.3396 9.72854 18.3728 9.72854 18.417V20.8284C9.72854 20.8948 9.67364 20.939 9.61874 20.939H8.60855V23.1292H9.61874C9.68462 23.1292 9.72854 23.1845 9.72854 23.2398V35.7943C9.72854 35.8607 9.67364 35.9049 9.61874 35.9049V35.8939ZM6.24779 35.6726H9.50893V23.3393H8.49875C8.43287 23.3393 8.38895 23.284 8.38895 23.2287V20.8173C8.38895 20.751 8.44385 20.7067 8.49875 20.7067H9.50893V18.6051L6.24779 20.4302V35.6726Z" fill="#969595"/>
<path d="M8.49875 20.7067H6.62112V20.928H8.49875V20.7067Z" fill="#969595"/>
<path d="M8.12541 20.8173H7.90581V23.3283H8.12541V20.8173Z" fill="#969595"/>
<path d="M7.6313 20.8173H7.4117V23.3283H7.6313V20.8173Z" fill="#969595"/>
<path d="M7.14818 20.8173H6.92857V23.3283H7.14818V20.8173Z" fill="#969595"/>
<path d="M9.61874 19.9103H8.67444V20.1315H9.61874V19.9103Z" fill="#969595"/>
<path d="M9.62972 20.2753H9.20149V20.4966H9.62972V20.2753Z" fill="#969595"/>
<path d="M9.05875 35.8939H6.69798C6.6321 35.8939 6.58818 35.8386 6.58818 35.7833V33.383C6.58818 33.3166 6.64308 33.2723 6.69798 33.2723H9.05875C9.12463 33.2723 9.16855 33.3277 9.16855 33.383V35.7833C9.16855 35.8496 9.11365 35.8939 9.05875 35.8939ZM6.79681 35.6726H8.93796V33.5046H6.79681V35.6726Z" fill="#969595"/>
<path d="M9.05874 32.5423H7.65326V32.7635H9.05874V32.5423Z" fill="#969595"/>
<path d="M9.04776 31.8012H8.01561V32.0224H9.04776V31.8012Z" fill="#969595"/>
<path d="M9.04776 31.0712H7.24699V31.2924H9.04776V31.0712Z" fill="#969595"/>
<path d="M9.04776 30.3411H8.01561V30.5623H9.04776V30.3411Z" fill="#969595"/>
<path d="M9.05875 29.6H7.58739V29.8212H9.05875V29.6Z" fill="#969595"/>
<path d="M9.05875 28.87H7.03838V29.0912H9.05875V28.87Z" fill="#969595"/>
<path d="M9.05875 28.1399H7.40073V28.3611H9.05875V28.1399Z" fill="#969595"/>
<path d="M9.04776 27.3988H8.01561V27.62H9.04776V27.3988Z" fill="#969595"/>
<path d="M9.04776 26.6688H7.5215V26.89H9.04776V26.6688Z" fill="#969595"/>
<path d="M9.04776 25.9387H8.01561V26.1599H9.04776V25.9387Z" fill="#969595"/>
<path d="M9.04776 25.1976H6.8517V25.4188H9.04776V25.1976Z" fill="#969595"/>
<path d="M9.04776 24.4676H8.01561V24.6888H9.04776V24.4676Z" fill="#969595"/>
<path d="M9.04776 23.7375H7.5215V23.9587H9.04776V23.7375Z" fill="#969595"/>
<path d="M9.2564 20.8173H9.03679V23.2287H9.2564V20.8173Z" fill="#969595"/>
<path d="M9.04776 24.0362H8.37796V24.1468H9.04776V24.0362Z" fill="#969595"/>
<path d="M9.05875 24.7883H7.20308V24.899H9.05875V24.7883Z" fill="#969595"/>
<path d="M9.04776 25.4852H8.22424V25.5958H9.04776V25.4852Z" fill="#969595"/>
<path d="M9.05875 26.2263H7.58739V26.3369H9.05875V26.2263Z" fill="#969595"/>
<path d="M9.05874 26.9785H7.88385V27.0891H9.05874V26.9785Z" fill="#969595"/>
<path d="M9.05875 27.6643H7.03838V27.7749H9.05875V27.6643Z" fill="#969595"/>
<path d="M9.05874 28.4717H8.356V28.5824H9.05874V28.4717Z" fill="#969595"/>
<path d="M9.05874 29.1797H7.80699V29.2903H9.05874V29.1797Z" fill="#969595"/>
<path d="M9.05875 29.9097H8.64149V30.0203H9.05875V29.9097Z" fill="#969595"/>
<path d="M9.05875 30.6508H7.20308V30.7614H9.05875V30.6508Z" fill="#969595"/>
<path d="M9.04776 31.414H8.46581V31.5247H9.04776V31.414Z" fill="#969595"/>
<path d="M9.04776 32.1441H8.01561V32.2547H9.04776V32.1441Z" fill="#969595"/>
<path d="M9.04776 32.8852H7.24699V32.9958H9.04776V32.8852Z" fill="#969595"/>
<path d="M8.3011 20.8173H8.1913V22.023H8.3011V20.8173Z" fill="#969595"/>
<path d="M7.81796 20.8173H7.70816V23.1402H7.81796V20.8173Z" fill="#969595"/>
<path d="M7.32385 20.8173H7.21405V21.5363H7.32385V20.8173Z" fill="#969595"/>
<path d="M9.61875 19.6891H8.87209V19.7997H9.61875V19.6891Z" fill="#969595"/>
<path d="M9.67365 13.0855H9.56384V13.9151H9.67365V13.0855Z" fill="#969595"/>
<path d="M9.04776 33.759H6.687V33.8697H9.04776V33.759Z" fill="#969595"/>
<path d="M8.68541 33.8143H8.57561V35.7833H8.68541V33.8143Z" fill="#969595"/>
<path d="M7.15915 33.8143H7.04935V35.7833H7.15915V33.8143Z" fill="#969595"/>
<path d="M9.13561 21.1271H8.53169V21.2377H9.13561V21.1271Z" fill="#969595"/>
<path d="M9.13561 21.5363H8.53169V21.6469H9.13561V21.5363Z" fill="#969595"/>
<path d="M9.13561 21.9567H8.53169V22.0673H9.13561V21.9567Z" fill="#969595"/>
<path d="M9.13561 22.377H8.53169V22.4876H9.13561V22.377Z" fill="#969595"/>
<path d="M9.13561 22.7863H8.53169V22.8969H9.13561V22.7863Z" fill="#969595"/>
<path d="M10.7387 22.3991C10.7387 22.3991 10.7058 22.3991 10.6838 22.388L10.2007 22.1115C10.2007 22.1115 10.1458 22.0562 10.1458 22.012V17.8087H10.3654V19.7444H10.7387C10.8046 19.7444 10.8485 19.7997 10.8485 19.855V22.2885C10.8485 22.2885 10.8266 22.3659 10.7936 22.388C10.7717 22.388 10.7607 22.3991 10.7387 22.3991ZM10.3654 21.9456L10.6289 22.0894V19.9546H10.3654V21.9456Z" fill="#969595"/>
<path d="M13.7364 35.8939H10.2556C10.1897 35.8939 10.1458 35.8386 10.1458 35.7833V26.8347C10.1458 26.7683 10.2007 26.7241 10.2556 26.7241H11.2658V24.5339H10.2556C10.1897 24.5339 10.1458 24.4786 10.1458 24.4233V22.012C10.1458 22.012 10.1678 21.9345 10.2007 21.9124C10.2336 21.8903 10.2776 21.8903 10.3105 21.9124L13.7913 23.8592C13.7913 23.8592 13.8462 23.9145 13.8462 23.9587V35.7722C13.8462 35.8386 13.7913 35.8828 13.7364 35.8828V35.8939ZM10.3654 35.6726H13.6265V24.0362L10.3654 22.2111V24.3127H11.3756C11.4415 24.3127 11.4854 24.368 11.4854 24.4233V26.8347C11.4854 26.901 11.4305 26.9453 11.3756 26.9453H10.3654V35.6726Z" fill="#969595"/>
<path d="M13.2532 24.3127H11.3756V24.5339H13.2532V24.3127Z" fill="#969595"/>
<path d="M11.9685 24.4233H11.7489V26.9342H11.9685V24.4233Z" fill="#969595"/>
<path d="M12.4626 24.4233H12.243V26.9342H12.4626V24.4233Z" fill="#969595"/>
<path d="M12.9568 24.4233H12.7372V26.9342H12.9568V24.4233Z" fill="#969595"/>
<path d="M11.1999 23.5716H10.2556V23.6822H11.1999V23.5716Z" fill="#969595"/>
<path d="M10.6838 23.8813H10.2556V24.1025H10.6838V23.8813Z" fill="#969595"/>
<path d="M13.1873 35.8939H10.8266C10.7607 35.8939 10.7168 35.8386 10.7168 35.7833V33.383C10.7168 33.3166 10.7717 33.2723 10.8266 33.2723H13.1873C13.2532 33.2723 13.2971 33.3277 13.2971 33.383V35.7833C13.2971 35.8496 13.2422 35.8939 13.1873 35.8939ZM10.9364 35.6726H13.0775V33.5046H10.9364V35.6726Z" fill="#969595"/>
<path d="M12.8469 32.4759H10.8266V32.6972H12.8469V32.4759Z" fill="#969595"/>
<path d="M12.4846 31.7348H10.8266V31.9561H12.4846V31.7348Z" fill="#969595"/>
<path d="M11.8587 31.0048H10.8266V31.226H11.8587V31.0048Z" fill="#969595"/>
<path d="M12.3528 30.2747H10.8266V30.496H12.3528V30.2747Z" fill="#969595"/>
<path d="M11.8587 29.5336H10.8266V29.7549H11.8587V29.5336Z" fill="#969595"/>
<path d="M13.0226 28.8036H10.8266V29.0248H13.0226V28.8036Z" fill="#969595"/>
<path d="M11.8587 28.0735H10.8266V28.2948H11.8587V28.0735Z" fill="#969595"/>
<path d="M12.3528 27.3324H10.8266V27.5537H12.3528V27.3324Z" fill="#969595"/>
<path d="M10.8376 24.4233H10.618V26.8347H10.8376V24.4233Z" fill="#969595"/>
<path d="M11.2768 33.759H11.167V35.7722H11.2768V33.759Z" fill="#969595"/>
<path d="M12.803 33.759H12.6932V35.7722H12.803V33.759Z" fill="#969595"/>
<path d="M13.1873 33.7037H10.8266V33.8143H13.1873V33.7037Z" fill="#969595"/>
<path d="M11.7928 32.0556H10.8266V32.1662H11.7928V32.0556Z" fill="#969595"/>
<path d="M11.7928 29.0912H10.8266V29.2018H11.7928V29.0912Z" fill="#969595"/>
<path d="M11.7928 27.6643H10.8266V27.7749H11.7928V27.6643Z" fill="#969595"/>
<path d="M12.803 30.5734H10.8266V30.684H12.803V30.5734Z" fill="#969595"/>
<path d="M12.803 28.3833H10.8266V28.4939H12.803V28.3833Z" fill="#969595"/>
<path d="M11.3097 31.3145H10.8266V31.4251H11.3097V31.3145Z" fill="#969595"/>
<path d="M11.3097 29.8323H10.8266V29.9429H11.3097V29.8323Z" fill="#969595"/>
<path d="M12.4297 32.8078H10.8266V32.9184H12.4297V32.8078Z" fill="#969595"/>
<path d="M12.6493 24.4233H12.5395V25.8834H12.6493V24.4233Z" fill="#969595"/>
<path d="M12.1552 24.4233H12.0454V25.264H12.1552V24.4233Z" fill="#969595"/>
<path d="M11.6611 24.4123H11.5513V26.1268H11.6611V24.4123Z" fill="#969595"/>
<path d="M11.3756 24.8436H10.7278V24.9543H11.3756V24.8436Z" fill="#969595"/>
<path d="M11.3756 25.2197H10.7278V25.3303H11.3756V25.2197Z" fill="#969595"/>
<path d="M11.3756 25.5848H10.7278V25.6954H11.3756V25.5848Z" fill="#969595"/>
<path d="M11.3756 25.9608H10.7278V26.0715H11.3756V25.9608Z" fill="#969595"/>
<path d="M11.3756 26.3369H10.7278V26.4475H11.3756V26.3369Z" fill="#969595"/>
<path d="M11.6062 23.2287H10.2556V23.3393H11.6062V23.2287Z" fill="#969595"/>
<path d="M10.3105 16.3375H10.2007V17.5543H10.3105V16.3375Z" fill="#969595"/>
<path d="M57.361 35.8939H55.4724C55.4065 35.8939 55.3626 35.8386 55.3626 35.7833V28.9806C55.3626 28.9142 55.4175 28.87 55.4724 28.87H57.361C57.4269 28.87 57.4708 28.9253 57.4708 28.9806V35.7833C57.4708 35.8496 57.4159 35.8939 57.361 35.8939ZM55.5932 35.6726H57.2622V29.0912H55.5932V35.6726Z" fill="#969595"/>
<path d="M66.7053 35.8939H64.8166C64.7508 35.8939 64.7068 35.8386 64.7068 35.7833V28.9806C64.7068 28.9142 64.7617 28.87 64.8166 28.87H66.7053C66.7711 28.87 66.8151 28.9253 66.8151 28.9806V35.7833C66.8151 35.8496 66.7602 35.8939 66.7053 35.8939ZM64.9265 35.6726H66.5955V29.0912H64.9265V35.6726Z" fill="#969595"/>
<path d="M64.8167 35.8939H57.361C57.2952 35.8939 57.2512 35.8386 57.2512 35.7833V29.5336C57.2512 29.4673 57.3061 29.423 57.361 29.423H64.8167C64.8825 29.423 64.9265 29.4783 64.9265 29.5336V35.7833C64.9265 35.8496 64.8716 35.8939 64.8167 35.8939ZM57.4818 35.6726H64.7069V29.6442H57.4818V35.6726Z" fill="#969595"/>
<path d="M59.4802 35.8939H58.2834C58.2175 35.8939 58.1736 35.8386 58.1736 35.7833V33.206C58.1736 33.1396 58.2285 33.0954 58.2834 33.0954H59.4802C59.5461 33.0954 59.59 33.1507 59.59 33.206V35.7833C59.59 35.8496 59.5351 35.8939 59.4802 35.8939ZM58.4042 35.6726H59.3704V33.3166H58.4042V35.6726Z" fill="#969595"/>
<path d="M59.4802 32.3985H58.2834C58.2175 32.3985 58.1736 32.3432 58.1736 32.2879V31.0933C58.1736 31.0933 58.1736 31.049 58.1736 31.0158C58.1736 30.6287 58.7555 30.2416 58.8214 30.1973C58.8543 30.1752 58.9092 30.1752 58.9422 30.1973C59.0081 30.2416 59.59 30.6287 59.59 31.0158C59.59 31.038 59.59 31.0712 59.59 31.0933V32.2879C59.59 32.3543 59.5351 32.3985 59.4802 32.3985ZM58.4042 32.1773H59.3704V31.0933C59.3704 31.0933 59.3704 31.0933 59.3704 31.0822C59.3704 31.0601 59.3704 31.049 59.3704 31.0269C59.3704 30.8499 59.0959 30.5845 58.8763 30.4407C58.6677 30.5955 58.3822 30.8499 58.3822 31.0269C58.3822 31.049 58.3822 31.0601 58.3822 31.0822C58.3822 31.0822 58.3822 31.0822 58.3822 31.0933V32.1773H58.4042Z" fill="#969595"/>
<path d="M59.0191 32.3432H58.5798C58.5798 32.3432 58.5249 32.3211 58.5249 32.2879V31.0933C58.5249 31.0933 58.5249 31.049 58.5249 31.0269C58.5249 30.7836 58.7885 30.5402 58.9971 30.3632L59.063 30.4517C58.7885 30.6619 58.6348 30.872 58.6348 31.0269C58.6348 31.049 58.6348 31.0711 58.6348 31.0933V32.2436H59.0191V32.3543V32.3432Z" fill="#969595"/>
<path d="M61.2041 32.3432H60.7649C60.7649 32.3432 60.71 32.3211 60.71 32.2879V31.0933C60.71 31.0933 60.71 31.049 60.71 31.0269C60.71 30.7836 60.9735 30.5402 61.1822 30.3632L61.2481 30.4517C60.9735 30.6619 60.8198 30.872 60.8198 31.0269C60.8198 31.049 60.8198 31.0711 60.8198 31.0933V32.2436H61.2041V32.3543V32.3432Z" fill="#969595"/>
<path d="M63.4331 32.3432H62.9939C62.9939 32.3432 62.939 32.3211 62.939 32.2879V31.0933C62.939 31.0933 62.939 31.049 62.939 31.0269C62.939 30.7836 63.2026 30.5402 63.4112 30.3632L63.4771 30.4517C63.2026 30.6619 63.0488 30.872 63.0488 31.0269C63.0488 31.049 63.0488 31.0711 63.0488 31.0933V32.2436H63.4331V32.3543V32.3432Z" fill="#969595"/>
<path d="M53.6387 34.7324H52.9909C52.925 34.7324 52.8811 34.6771 52.8811 34.6218V33.9803C52.8811 33.9803 52.8811 33.9471 52.8811 33.936C52.8811 33.7037 53.1995 33.4936 53.2544 33.4493C53.2873 33.4272 53.3422 33.4272 53.3752 33.4493C53.4411 33.4936 53.7485 33.7037 53.7485 33.936C53.7485 33.9471 53.7485 33.9692 53.7485 33.9803V34.6218C53.7485 34.6882 53.6936 34.7324 53.6387 34.7324ZM53.1007 34.5112H53.5289V33.9692C53.5289 33.9692 53.5289 33.9692 53.5289 33.9582C53.5289 33.9582 53.5289 33.9471 53.5289 33.936C53.5289 33.8697 53.4301 33.759 53.3093 33.6816C53.1995 33.7701 53.0897 33.8807 53.0897 33.936C53.0897 33.936 53.0897 33.9471 53.0897 33.9582C53.0897 33.9582 53.0897 33.9581 53.0897 33.9692V34.5112H53.1007Z" fill="#969595"/>
<path d="M54.6709 34.7324H54.023C53.9571 34.7324 53.9132 34.6771 53.9132 34.6218V33.9803C53.9132 33.9803 53.9132 33.9471 53.9132 33.936C53.9132 33.7037 54.2317 33.4936 54.2866 33.4493C54.3195 33.4272 54.3744 33.4272 54.4073 33.4493C54.4732 33.4936 54.7807 33.7037 54.7807 33.936C54.7807 33.9471 54.7807 33.9692 54.7807 33.9803V34.6218C54.7807 34.6882 54.7258 34.7324 54.6709 34.7324ZM54.1328 34.5112H54.5611V33.9692C54.5611 33.9692 54.5611 33.9692 54.5611 33.9582C54.5611 33.9582 54.5611 33.9471 54.5611 33.936C54.5611 33.8697 54.4622 33.759 54.3415 33.6816C54.2317 33.7701 54.1219 33.8807 54.1219 33.936C54.1219 33.936 54.1219 33.9471 54.1219 33.9582C54.1219 33.9582 54.1219 33.9581 54.1219 33.9692V34.5112H54.1328Z" fill="#969595"/>
<path d="M58.0967 30.9052H57.8771V35.7722H58.0967V30.9052Z" fill="#969595"/>
<path d="M59.8975 30.9052H59.6779V35.7722H59.8975V30.9052Z" fill="#969595"/>
<path d="M61.6873 35.8939H60.4904C60.4245 35.8939 60.3806 35.8386 60.3806 35.7833V33.206C60.3806 33.1396 60.4355 33.0954 60.4904 33.0954H61.6873C61.7531 33.0954 61.7971 33.1507 61.7971 33.206V35.7833C61.7971 35.8496 61.7422 35.8939 61.6873 35.8939ZM60.6112 35.6726H61.5775V33.3166H60.6112V35.6726Z" fill="#969595"/>
<path d="M61.6873 32.3985H60.4904C60.4245 32.3985 60.3806 32.3432 60.3806 32.2879V31.0933C60.3806 31.0933 60.3806 31.049 60.3806 31.0158C60.3806 30.6287 60.9626 30.2416 61.0285 30.1973C61.0614 30.1752 61.1163 30.1752 61.1492 30.1973C61.2151 30.2416 61.7971 30.6287 61.7971 31.0158C61.7971 31.038 61.7971 31.0712 61.7971 31.0933V32.2879C61.7971 32.3543 61.7422 32.3985 61.6873 32.3985ZM60.6112 32.1773H61.5775V31.0933C61.5775 31.0933 61.5775 31.0933 61.5775 31.0822C61.5775 31.0601 61.5775 31.049 61.5775 31.0269C61.5775 30.8499 61.303 30.5845 61.0834 30.4407C60.8747 30.5955 60.5892 30.8499 60.5892 31.0269C60.5892 31.049 60.5892 31.0601 60.5892 31.0822C60.5892 31.0822 60.5892 31.0822 60.5892 31.0933V32.1773H60.6112Z" fill="#969595"/>
<path d="M60.3038 30.9052H60.0842V35.7722H60.3038V30.9052Z" fill="#969595"/>
<path d="M62.0935 30.9052H61.8739V35.7722H62.0935V30.9052Z" fill="#969595"/>
<path d="M63.8943 35.8939H62.6974C62.6316 35.8939 62.5876 35.8386 62.5876 35.7833V33.206C62.5876 33.1396 62.6425 33.0954 62.6974 33.0954H63.8943C63.9602 33.0954 64.0041 33.1507 64.0041 33.206V35.7833C64.0041 35.8496 63.9492 35.8939 63.8943 35.8939ZM62.8182 35.6726H63.7845V33.3166H62.8182V35.6726Z" fill="#969595"/>
<path d="M63.8943 32.3985H62.6974C62.6316 32.3985 62.5876 32.3432 62.5876 32.2879V31.0933C62.5876 31.0933 62.5876 31.049 62.5876 31.0158C62.5876 30.6287 63.1696 30.2416 63.2355 30.1973C63.2684 30.1752 63.3233 30.1752 63.3563 30.1973C63.4221 30.2416 64.0041 30.6287 64.0041 31.0158C64.0041 31.038 64.0041 31.0712 64.0041 31.0933V32.2879C64.0041 32.3543 63.9492 32.3985 63.8943 32.3985ZM62.8182 32.1773H63.7845V31.0933C63.7845 31.0933 63.7845 31.0933 63.7845 31.0822C63.7845 31.0601 63.7845 31.049 63.7845 31.0269C63.7845 30.8499 63.51 30.5845 63.2904 30.4407C63.0818 30.5955 62.7963 30.8499 62.7963 31.0269C62.7963 31.049 62.7963 31.0601 62.7963 31.0822C62.7963 31.0822 62.7963 31.0822 62.7963 31.0933V32.1773H62.8182Z" fill="#969595"/>
<path d="M62.5108 30.9052H62.2912V35.7722H62.5108V30.9052Z" fill="#969595"/>
<path d="M64.3006 30.9052H64.081V35.7722H64.3006V30.9052Z" fill="#969595"/>
<path d="M56.9767 35.8939H55.8787C55.8128 35.8939 55.7689 35.8386 55.7689 35.7833V30.1863C55.7689 30.1199 55.8238 30.0756 55.8787 30.0756H56.9767C57.0426 30.0756 57.0865 30.1309 57.0865 30.1863V35.7833C57.0865 35.8496 57.0316 35.8939 56.9767 35.8939ZM55.9995 35.6726H56.8669V30.2969H55.9995V35.6726Z" fill="#969595"/>
<path d="M66.31 35.8939H65.2119C65.1461 35.8939 65.1021 35.8386 65.1021 35.7833V30.1863C65.1021 30.1199 65.157 30.0756 65.2119 30.0756H66.31C66.3759 30.0756 66.4198 30.1309 66.4198 30.1863V35.7833C66.4198 35.8496 66.3649 35.8939 66.31 35.8939ZM65.3217 35.6726H66.1892V30.2969H65.3217V35.6726Z" fill="#969595"/>
<path d="M57.361 32.6861H55.1869V32.9073H57.361V32.6861Z" fill="#969595"/>
<path d="M66.9358 32.6861H64.8167V32.9073H66.9358V32.6861Z" fill="#969595"/>
<path d="M55.4834 35.8939H52.1893C52.1234 35.8939 52.0795 35.8386 52.0795 35.7833V32.3874C52.0795 32.3211 52.1344 32.2768 52.1893 32.2768H55.4834C55.5493 32.2768 55.5932 32.3321 55.5932 32.3874V35.7833C55.5932 35.8496 55.5383 35.8939 55.4834 35.8939ZM52.2991 35.6726H55.3736V32.4981H52.2991V35.6726Z" fill="#969595"/>
<path d="M55.4834 32.4981H51.9148C51.8489 32.4981 51.805 32.4427 51.805 32.3874V32.0335C51.805 31.9671 51.8599 31.9229 51.9148 31.9229H55.4834C55.5493 31.9229 55.5932 31.9782 55.5932 32.0335V32.3874C55.5932 32.4538 55.5383 32.4981 55.4834 32.4981ZM52.0246 32.2658H55.3736V32.133H52.0246V32.2658Z" fill="#969595"/>
<path d="M69.1978 34.7324H68.55C68.4841 34.7324 68.4402 34.6771 68.4402 34.6218V33.9803C68.4402 33.9803 68.4402 33.9471 68.4402 33.936C68.4402 33.7037 68.7586 33.4936 68.8135 33.4493C68.8464 33.4272 68.9013 33.4272 68.9343 33.4493C69.0001 33.4936 69.3076 33.7037 69.3076 33.936C69.3076 33.9471 69.3076 33.9692 69.3076 33.9803V34.6218C69.3076 34.6882 69.2527 34.7324 69.1978 34.7324ZM68.6598 34.5112H69.088V33.9692C69.088 33.9692 69.088 33.9692 69.088 33.9582V33.936C69.088 33.8697 68.9892 33.759 68.8684 33.6816C68.7586 33.7701 68.6488 33.8807 68.6488 33.936V33.9582C68.6488 33.9582 68.6488 33.9581 68.6488 33.9692V34.5112H68.6598Z" fill="#969595"/>
<path d="M68.1547 34.7324H67.5068C67.4409 34.7324 67.397 34.6771 67.397 34.6218V33.9803C67.397 33.9803 67.397 33.9471 67.397 33.936C67.397 33.7037 67.7154 33.4936 67.7703 33.4493C67.8033 33.4272 67.8582 33.4272 67.8911 33.4493C67.957 33.4936 68.2645 33.7037 68.2645 33.936C68.2645 33.9471 68.2645 33.9692 68.2645 33.9803V34.6218C68.2645 34.6882 68.2096 34.7324 68.1547 34.7324ZM67.6166 34.5112H68.0449V33.9692C68.0449 33.9692 68.0449 33.9692 68.0449 33.9582C68.0449 33.9582 68.0449 33.9471 68.0449 33.936C68.0449 33.8697 67.946 33.759 67.8252 33.6816C67.7154 33.7701 67.6056 33.8807 67.6056 33.936C67.6056 33.936 67.6056 33.9471 67.6056 33.9582C67.6056 33.9582 67.6056 33.9581 67.6056 33.9692V34.5112H67.6166Z" fill="#969595"/>
<path d="M69.9993 35.8939H66.7053C66.6394 35.8939 66.5955 35.8386 66.5955 35.7833V32.3874C66.5955 32.3211 66.6504 32.2768 66.7053 32.2768H69.9993C70.0652 32.2768 70.1091 32.3321 70.1091 32.3874V35.7833C70.1091 35.8496 70.0542 35.8939 69.9993 35.8939ZM66.8151 35.6726H69.8895V32.4981H66.8151V35.6726Z" fill="#969595"/>
<path d="M70.2739 32.4981H66.7053C66.6394 32.4981 66.5955 32.4427 66.5955 32.3874V32.0335C66.5955 31.9671 66.6504 31.9229 66.7053 31.9229H70.2739C70.3397 31.9229 70.3837 31.9782 70.3837 32.0335V32.3874C70.3837 32.4538 70.3288 32.4981 70.2739 32.4981ZM66.8151 32.2658H70.1641V32.133H66.8151V32.2658Z" fill="#969595"/>
<path d="M63.3014 29.6442H58.8873C58.8214 29.6442 58.7775 29.5889 58.7775 29.5336V28.0957C58.7775 28.0293 58.8324 27.9851 58.8873 27.9851H63.3014C63.3673 27.9851 63.4112 28.0404 63.4112 28.0957V29.5336C63.4112 29.6 63.3563 29.6442 63.3014 29.6442ZM58.9971 29.423H63.1916V28.2063H58.9971V29.423Z" fill="#969595"/>
<path d="M63.3892 28.0957H63.1696C63.1696 26.9453 62.2363 26.0051 61.0943 26.0051C59.9524 26.0051 59.0191 26.9453 59.0191 28.0957H58.7995C58.7995 26.8236 59.8316 25.7839 61.0943 25.7839C62.3571 25.7839 63.3892 26.8236 63.3892 28.0957Z" fill="#969595"/>
<path d="M61.1492 25.1644H61.0394V25.8945H61.1492V25.1644Z" fill="#969595"/>
<path d="M59.473 26.6269L59.3177 26.7833L60.7075 28.1833L60.8628 28.0269L59.473 26.6269Z" fill="#969595"/>
<path d="M59.1179 27.2722L58.9626 27.4286L59.708 28.1794L59.8633 28.023L59.1179 27.2722Z" fill="#969595"/>
<path d="M59.2307 26.9922L59.1521 27.0694L60.2017 28.1549L60.2804 28.0777L59.2307 26.9922Z" fill="#969595"/>
<path d="M60.0266 26.147L59.8701 26.3022L61.7111 28.1862L61.8676 28.031L60.0266 26.147Z" fill="#969595"/>
<path d="M59.7723 26.3446L59.694 26.4222L61.3887 28.1564L61.4669 28.0788L59.7723 26.3446Z" fill="#969595"/>
<path d="M60.7261 25.8615L60.5707 26.0177L62.7187 28.187L62.8742 28.0307L60.7261 25.8615Z" fill="#969595"/>
<path d="M61.1298 25.8554L61.0521 25.9336L63.2339 28.1314L63.3115 28.0532L61.1298 25.8554Z" fill="#969595"/>
<path d="M61.659 25.8647L61.5035 26.021L63.1475 27.6812L63.303 27.5249L61.659 25.8647Z" fill="#969595"/>
<path d="M61.1492 24.7552H61.0394V24.9764H61.1492V24.7552Z" fill="#969595"/>
<path d="M57.361 29.0912H55.1869C55.1869 29.0912 55.0991 29.0691 55.0881 29.0248L54.9015 28.5713C54.9015 28.5713 54.8905 28.4939 54.9015 28.4607C54.9234 28.4275 54.9564 28.4054 54.9893 28.4054H57.361C57.4269 28.4054 57.4708 28.4607 57.4708 28.516V28.9695C57.4708 29.0359 57.4159 29.0801 57.361 29.0801V29.0912ZM55.2638 28.87H57.2622V28.6377H55.176L55.2748 28.87H55.2638Z" fill="#969595"/>
<path d="M66.9907 29.0912H64.8166C64.7508 29.0912 64.7068 29.0359 64.7068 28.9806V28.5271C64.7068 28.4607 64.7617 28.4164 64.8166 28.4164H67.1884C67.1884 28.4164 67.2653 28.4386 67.2762 28.4717C67.2982 28.5049 67.2982 28.5381 67.2762 28.5824L67.0896 29.0359C67.0896 29.0359 67.0347 29.1022 66.9907 29.1022V29.0912ZM64.9265 28.87H66.9249L67.0237 28.6377H64.9374V28.87H64.9265Z" fill="#969595"/>
<path d="M57.4818 28.5602H57.2622C57.2622 28.0846 56.8779 27.7085 56.4167 27.7085C55.9556 27.7085 55.5712 28.0957 55.5712 28.5602H55.3516C55.3516 27.9629 55.8348 27.4762 56.4277 27.4762C57.0206 27.4762 57.5038 27.9629 57.5038 28.5602H57.4818Z" fill="#969595"/>
<path d="M56.0177 25.6745L55.9778 27.643L56.1973 27.6475L56.2372 25.679L56.0177 25.6745Z" fill="#969595"/>
<path d="M56.8569 25.6724L56.6373 25.677L56.6779 27.6455L56.8975 27.6409L56.8569 25.6724Z" fill="#969595"/>
<path d="M57.1854 25.7949H55.692C55.6262 25.7949 55.5822 25.7396 55.5822 25.6843V25.264C55.5822 25.1976 55.6371 25.1534 55.692 25.1534H57.1854C57.2512 25.1534 57.2952 25.2087 57.2952 25.264V25.6843C57.2952 25.7507 57.2403 25.7949 57.1854 25.7949ZM55.8018 25.5626H57.0755V25.3635H55.8018V25.5626Z" fill="#969595"/>
<path d="M56.6254 25.2529L56.5814 22.8747C56.5814 22.8747 56.5814 22.8637 56.5814 22.8526C56.5814 22.7752 56.5156 22.7199 56.4497 22.7199C56.3838 22.7199 56.3179 22.7862 56.3179 22.8526C56.3179 22.8637 56.3179 22.8747 56.3179 22.8858L56.274 25.2419H56.0544L56.1093 22.8416C56.1093 22.8305 56.1093 22.8084 56.1093 22.7973C56.1312 22.6203 56.285 22.4765 56.4607 22.4765C56.6363 22.4765 56.812 22.6314 56.823 22.8194C56.823 22.8194 56.823 22.8194 56.823 22.8305L56.8779 25.2308H56.6583L56.6254 25.2529Z" fill="#969595"/>
<path d="M66.848 28.5602H66.6284C66.6284 28.0846 66.2441 27.7085 65.7829 27.7085C65.3217 27.7085 64.9374 28.0957 64.9374 28.5602H64.7178C64.7178 27.9629 65.201 27.4762 65.7939 27.4762C66.3868 27.4762 66.87 27.9629 66.87 28.5602H66.848Z" fill="#969595"/>
<path d="M65.3884 25.6764L65.3485 27.6449L65.5681 27.6494L65.608 25.6809L65.3884 25.6764Z" fill="#969595"/>
<path d="M66.2252 25.6638L66.0057 25.6684L66.0466 27.6369L66.2662 27.6323L66.2252 25.6638Z" fill="#969595"/>
<path d="M66.5625 25.7949H65.0692C65.0033 25.7949 64.9594 25.7396 64.9594 25.6843V25.264C64.9594 25.1976 65.0143 25.1534 65.0692 25.1534H66.5625C66.6284 25.1534 66.6723 25.2087 66.6723 25.264V25.6843C66.6723 25.7507 66.6174 25.7949 66.5625 25.7949ZM65.179 25.5626H66.4527V25.3635H65.179V25.5626Z" fill="#969595"/>
<path d="M66.0025 25.2529L65.9586 22.8747C65.9586 22.8747 65.9586 22.8637 65.9586 22.8526C65.9586 22.7752 65.8927 22.7199 65.8268 22.7199C65.761 22.7199 65.6951 22.7862 65.6951 22.8526C65.6951 22.8637 65.6951 22.8747 65.6951 22.8858L65.6512 25.2419H65.4315L65.4864 22.8416C65.4864 22.8305 65.4864 22.8084 65.4864 22.7973C65.5084 22.6203 65.6621 22.4765 65.8378 22.4765C66.0135 22.4765 66.1892 22.6314 66.2002 22.8194C66.2002 22.8194 66.2002 22.8194 66.2002 22.8305L66.2551 25.2308H66.0355L66.0025 25.2529Z" fill="#969595"/>
<path d="M58.6348 33.206H58.5249V35.7833H58.6348V33.206Z" fill="#969595"/>
<path d="M60.8198 33.206H60.71V35.7833H60.8198V33.206Z" fill="#969595"/>
<path d="M63.0488 33.206H62.939V35.7833H63.0488V33.206Z" fill="#969595"/>
<path d="M57.0865 28.5602H56.9767C56.9767 28.0514 56.7132 27.6422 56.4058 27.6422C56.0983 27.6422 55.8348 28.0514 55.8348 28.5602H55.725C55.725 27.9961 56.0324 27.5315 56.4167 27.5315C56.801 27.5315 57.1085 27.9961 57.1085 28.5602H57.0865Z" fill="#969595"/>
<path d="M56.6693 28.5602H56.5595C56.5595 27.9961 56.4607 27.6643 56.3948 27.6422C56.3399 27.6643 56.241 27.9961 56.241 28.5602H56.1312C56.1312 28.1842 56.1861 27.5315 56.3948 27.5315C56.6034 27.5315 56.6583 28.1731 56.6583 28.5602H56.6693Z" fill="#969595"/>
<path d="M56.7461 30.1862H56.6363V35.7833H56.7461V30.1862Z" fill="#969595"/>
<path d="M56.241 30.1862H56.1312V35.7833H56.241V30.1862Z" fill="#969595"/>
<path d="M53.7595 34.8209H52.8591V34.9315H53.7595V34.8209Z" fill="#969595"/>
<path d="M54.8026 34.8209H53.9022V34.9315H54.8026V34.8209Z" fill="#969595"/>
<path d="M68.2864 34.8209H67.386V34.9315H68.2864V34.8209Z" fill="#969595"/>
<path d="M69.3186 34.8209H68.4182V34.9315H69.3186V34.8209Z" fill="#969595"/>
<path d="M56.4936 25.6732H56.3838V27.5868H56.4936V25.6732Z" fill="#969595"/>
<path d="M56.4936 22.0894H56.3838V22.3438H56.4936V22.0894Z" fill="#969595"/>
<path d="M66.4527 28.5602H66.3429C66.3429 28.0514 66.0794 27.6422 65.7719 27.6422C65.4645 27.6422 65.201 28.0514 65.201 28.5602H65.0912C65.0912 27.9961 65.3986 27.5315 65.7829 27.5315C66.1672 27.5315 66.4747 27.9961 66.4747 28.5602H66.4527Z" fill="#969595"/>
<path d="M66.0245 28.5602H65.9147C65.9147 27.9961 65.8159 27.6643 65.75 27.6422C65.6951 27.6643 65.5963 27.9961 65.5963 28.5602H65.4865C65.4865 28.1842 65.5414 27.5315 65.75 27.5315C65.9586 27.5315 66.0135 28.1731 66.0135 28.5602H66.0245Z" fill="#969595"/>
<path d="M66.1014 30.1862H65.9915V35.7833H66.1014V30.1862Z" fill="#969595"/>
<path d="M65.6072 30.1862H65.4974V35.7833H65.6072V30.1862Z" fill="#969595"/>
<path d="M65.8488 25.6732H65.739V27.5868H65.8488V25.6732Z" fill="#969595"/>
<path d="M65.8488 22.0894H65.739V22.3438H65.8488V22.0894Z" fill="#969595"/>
<path d="M59.3704 29.5336H59.2606V28.5602C59.2606 28.5602 59.2826 28.5049 59.3155 28.5049H59.8096V28.6155H59.3704V29.5336Z" fill="#969595"/>
<path d="M60.3806 29.5336H60.2708V28.5602C60.2708 28.5602 60.2928 28.5049 60.3257 28.5049H60.8198V28.6155H60.3806V29.5336Z" fill="#969595"/>
<path d="M61.3798 29.5336H61.27V28.5602C61.27 28.5602 61.292 28.5049 61.3249 28.5049H61.819V28.6155H61.3798V29.5336Z" fill="#969595"/>
<path d="M62.379 29.5336H62.2692V28.5602C62.2692 28.5602 62.2912 28.5049 62.3241 28.5049H62.8182V28.6155H62.379V29.5336Z" fill="#969595"/>
<path d="M50.3446 24.6335H50.0482V24.8326H50.3446V24.6335Z" fill="#969595"/>
<path d="M49.8725 22.4212H49.5541V22.6203H49.8725V22.4212Z" fill="#969595"/>
<path d="M48.5439 22.6203H48.1596V22.8194H48.5439V22.6203Z" fill="#969595"/>
<path d="M48.9721 22.1558H48.7415V22.3549H48.9721V22.1558Z" fill="#969595"/>
<path d="M46.8419 22.5097H46.4796V22.7088H46.8419V22.5097Z" fill="#969595"/>
<path d="M47.6545 22.3106H47.4019V22.5097H47.6545V22.3106Z" fill="#969595"/>
<path d="M45.3047 22.7088H44.9423V22.9079H45.3047V22.7088Z" fill="#969595"/>
<path d="M45.8757 22.4212H45.4364V22.6203H45.8757V22.4212Z" fill="#969595"/>
<path d="M44.5361 22.1558H44.1517V22.3549H44.5361V22.1558Z" fill="#969595"/>
<path d="M44.0639 22.5097H43.6796V22.7088H44.0639V22.5097Z" fill="#969595"/>
<path d="M42.6035 22.3106H42.4498V22.5097H42.6035V22.3106Z" fill="#969595"/>
<path d="M41.8239 26.4697H41.5494V26.6688H41.8239V26.4697Z" fill="#969595"/>
<path d="M41.769 30.3964H41.5494V30.5955H41.769V30.3964Z" fill="#969595"/>
<path d="M41.8239 32.5976H41.5494V32.7967H41.8239V32.5976Z" fill="#969595"/>
<path d="M42.7353 35.1085H42.1863V35.3076H42.7353V35.1085Z" fill="#969595"/>
<path d="M44.558 34.9758H44.2945V35.1749H44.558V34.9758Z" fill="#969595"/>
<path d="M44.2396 35.3187H43.9431V35.5178H44.2396V35.3187Z" fill="#969595"/>
<path d="M47.0066 35.0532H46.7321V35.2523H47.0066V35.0532Z" fill="#969595"/>
<path d="M46.5674 35.3187H46.3588V35.5178H46.5674V35.3187Z" fill="#969595"/>
<path d="M45.8757 35.0532H45.5682V35.2523H45.8757V35.0532Z" fill="#969595"/>
<path d="M48.8184 34.9758H48.456V35.1749H48.8184V34.9758Z" fill="#969595"/>
<path d="M48.5219 35.3187H48.1815V35.5178H48.5219V35.3187Z" fill="#969595"/>
<path d="M50.0482 35.2302H49.7627V35.4293H50.0482V35.2302Z" fill="#969595"/>
<path d="M50.7948 35.8828H41.0992C41.0333 35.8828 40.9894 35.8275 40.9894 35.7722V22.012C40.9894 21.9456 41.0443 21.9013 41.0992 21.9013H50.7948C50.8607 21.9013 50.9046 21.9567 50.9046 22.012V35.7722C50.9046 35.8386 50.8497 35.8828 50.7948 35.8828ZM41.209 35.6616H50.674V22.1226H41.209V35.6616Z" fill="#969595"/>
<path d="M49.6968 34.8541H42.1863C42.1204 34.8541 42.0765 34.7988 42.0765 34.7435V23.0407C42.0765 22.9743 42.1314 22.93 42.1863 22.93H49.6968C49.7627 22.93 49.8066 22.9853 49.8066 23.0407V34.7435C49.8066 34.8099 49.7517 34.8541 49.6968 34.8541ZM42.2961 34.6329H49.587V23.1513H42.2961V34.6329Z" fill="#969595"/>
<path d="M50.0482 33.5378H49.6968V33.759H50.0482V33.5378Z" fill="#969595"/>
<path d="M50.7838 32.5423H50.4544V32.7635H50.7838V32.5423Z" fill="#969595"/>
<path d="M50.2678 32.841H49.7627V33.0622H50.2678V32.841Z" fill="#969595"/>
<path d="M50.1799 31.4251H49.6968V31.6463H50.1799V31.4251Z" fill="#969595"/>
<path d="M50.1031 30.9827H49.6968V31.2039H50.1031V30.9827Z" fill="#969595"/>
<path d="M50.7948 30.496H50.3446V30.7172H50.7948V30.496Z" fill="#969595"/>
<path d="M50.7838 30.1088H50.6191V30.33H50.7838V30.1088Z" fill="#969595"/>
<path d="M50.0482 29.3235H49.6968V29.5447H50.0482V29.3235Z" fill="#969595"/>
<path d="M50.1799 28.9695H49.6968V29.1907H50.1799V28.9695Z" fill="#969595"/>
<path d="M50.7948 28.1399H50.3446V28.3611H50.7948V28.1399Z" fill="#969595"/>
<path d="M50.7838 27.6975H50.4544V27.9187H50.7838V27.6975Z" fill="#969595"/>
<path d="M50.1799 26.8568H49.6968V27.078H50.1799V26.8568Z" fill="#969595"/>
<path d="M50.0482 26.4586H49.7627V26.6798H50.0482V26.4586Z" fill="#969595"/>
<path d="M50.7838 25.4963H50.5642V25.7175H50.7838V25.4963Z" fill="#969595"/>
<path d="M50.3446 24.6224H50.0482V24.8436H50.3446V24.6224Z" fill="#969595"/>
<path d="M50.1031 24.2242H49.6968V24.4454H50.1031V24.2242Z" fill="#969595"/>
<path d="M50.7838 23.5716H50.4544V23.7928H50.7838V23.5716Z" fill="#969595"/>
<path d="M50.2458 23.1181H49.6968V23.3393H50.2458V23.1181Z" fill="#969595"/>
<path d="M50.7838 22.6978H50.4544V22.919H50.7838V22.6978Z" fill="#969595"/>
<path d="M49.8725 22.4102H49.554V22.6314H49.8725V22.4102Z" fill="#969595"/>
<path d="M48.5439 22.6093H48.1595V22.8305H48.5439V22.6093Z" fill="#969595"/>
<path d="M48.9721 22.1447H48.7415V22.3659H48.9721V22.1447Z" fill="#969595"/>
<path d="M46.8419 22.4987H46.4796V22.7199H46.8419V22.4987Z" fill="#969595"/>
<path d="M47.6545 22.2885H47.4019V22.5097H47.6545V22.2885Z" fill="#969595"/>
<path d="M45.3047 22.6978H44.9423V22.919H45.3047V22.6978Z" fill="#969595"/>
<path d="M45.8757 22.4102H45.4364V22.6314H45.8757V22.4102Z" fill="#969595"/>
<path d="M44.5361 22.1447H44.1517V22.3659H44.5361V22.1447Z" fill="#969595"/>
<path d="M44.0639 22.4987H43.6796V22.7199H44.0639V22.4987Z" fill="#969595"/>
<path d="M41.5384 22.2332H41.0992V22.4544H41.5384V22.2332Z" fill="#969595"/>
<path d="M41.3188 22.6093H41.0992V22.8305H41.3188V22.6093Z" fill="#969595"/>
<path d="M42.1863 23.2619H41.7251V23.4831H42.1863V23.2619Z" fill="#969595"/>
<path d="M42.6035 22.2885H42.4498V22.5097H42.6035V22.2885Z" fill="#969595"/>
<path d="M41.4286 23.8592H41.0992V24.0804H41.4286V23.8592Z" fill="#969595"/>
<path d="M41.7251 24.1689H41.0992V24.3901H41.7251V24.1689Z" fill="#969595"/>
<path d="M42.1863 24.7441H41.7251V24.9653H42.1863V24.7441Z" fill="#969595"/>
<path d="M42.1863 25.1755H41.9008V25.3967H42.1863V25.1755Z" fill="#969595"/>
<path d="M41.6153 25.6511H41.0992V25.8723H41.6153V25.6511Z" fill="#969595"/>
<path d="M41.8239 26.4586H41.5494V26.6798H41.8239V26.4586Z" fill="#969595"/>
<path d="M42.1973 26.8568H41.78V27.078H42.1973V26.8568Z" fill="#969595"/>
<path d="M41.5494 27.5979H41.0992V27.8191H41.5494V27.5979Z" fill="#969595"/>
<path d="M42.1863 28.3058H41.8239V28.5271H42.1863V28.3058Z" fill="#969595"/>
<path d="M41.6153 28.87H41.0992V29.0912H41.6153V28.87Z" fill="#969595"/>
<path d="M42.1973 29.3235H41.78V29.5447H42.1973V29.3235Z" fill="#969595"/>
<path d="M41.769 30.3854H41.5494V30.6066H41.769V30.3854Z" fill="#969595"/>
<path d="M42.1972 30.7614H41.6702V30.9827H42.1972V30.7614Z" fill="#969595"/>
<path d="M41.5494 31.4251H41.0992V31.6463H41.5494V31.4251Z" fill="#969595"/>
<path d="M42.1863 32.0667H41.8239V32.2879H42.1863V32.0667Z" fill="#969595"/>
<path d="M41.8239 32.5865H41.5494V32.8078H41.8239V32.5865Z" fill="#969595"/>
<path d="M41.5494 33.0511H41.0992V33.2723H41.5494V33.0511Z" fill="#969595"/>
<path d="M42.1863 33.5821H41.8239V33.8033H42.1863V33.5821Z" fill="#969595"/>
<path d="M41.5494 34.1351H41.0992V34.3563H41.5494V34.1351Z" fill="#969595"/>
<path d="M41.4177 35.1749H41.0992V35.3961H41.4177V35.1749Z" fill="#969595"/>
<path d="M42.7353 35.0975H42.1863V35.3187H42.7353V35.0975Z" fill="#969595"/>
<path d="M44.558 34.9647H44.2945V35.1859H44.558V34.9647Z" fill="#969595"/>
<path d="M44.2396 35.3076H43.9431V35.5288H44.2396V35.3076Z" fill="#969595"/>
<path d="M47.0066 35.0422H46.7321V35.2634H47.0066V35.0422Z" fill="#969595"/>
<path d="M46.5674 35.3076H46.3588V35.5288H46.5674V35.3076Z" fill="#969595"/>
<path d="M45.8757 35.0422H45.5682V35.2634H45.8757V35.0422Z" fill="#969595"/>
<path d="M48.8184 34.9647H48.456V35.1859H48.8184V34.9647Z" fill="#969595"/>
<path d="M48.5219 35.3076H48.1815V35.5288H48.5219V35.3076Z" fill="#969595"/>
<path d="M50.0482 35.2191H49.7627V35.4404H50.0482V35.2191Z" fill="#969595"/>
<path d="M50.7948 34.7656H50.3446V34.9868H50.7948V34.7656Z" fill="#969595"/>
<path d="M49.9384 34.1351H49.6968V34.3563H49.9384V34.1351Z" fill="#969595"/>
<path d="M50.707 29.3235H50.4544V29.5447H50.707V29.3235Z" fill="#969595"/>
<path d="M50.0152 29.9982H49.7078V30.1088H50.0152V29.9982Z" fill="#969595"/>
<path d="M50.707 31.2371H50.4544V31.3477H50.707V31.2371Z" fill="#969595"/>
<path d="M50.7838 31.414H50.5642V31.5247H50.7838V31.414Z" fill="#969595"/>
<path d="M50.114 32.1441H49.7627V32.2547H50.114V32.1441Z" fill="#969595"/>
<path d="M50.1799 32.4538H50.0152V32.5644H50.1799V32.4538Z" fill="#969595"/>
<path d="M50.707 32.9294H50.5642V33.0401H50.707V32.9294Z" fill="#969595"/>
<path d="M50.7838 33.2834H50.5642V33.394H50.7838V33.2834Z" fill="#969595"/>
<path d="M50.7838 33.4825H50.4544V33.5931H50.7838V33.4825Z" fill="#969595"/>
<path d="M50.2678 33.2834H50.0482V33.394H50.2678V33.2834Z" fill="#969595"/>
<path d="M50.5752 34.0245H50.2019V34.1351H50.5752V34.0245Z" fill="#969595"/>
<path d="M50.8827 34.2347H50.4544V34.3453H50.8827V34.2347Z" fill="#969595"/>
<path d="M50.158 34.5665H49.7956V34.6771H50.158V34.5665Z" fill="#969595"/>
<path d="M49.9384 34.9205H49.7627V35.0311H49.9384V34.9205Z" fill="#969595"/>
<path d="M50.7838 35.2744H50.4544V35.3851H50.7838V35.2744Z" fill="#969595"/>
<path d="M47.8741 35.3629H47.6105V35.4735H47.8741V35.3629Z" fill="#969595"/>
<path d="M48.1815 35.1749H47.7972V35.2855H48.1815V35.1749Z" fill="#969595"/>
<path d="M49.4223 35.3629H49.0599V35.4735H49.4223V35.3629Z" fill="#969595"/>
<path d="M47.4019 35.1196H47.2372V35.2302H47.4019V35.1196Z" fill="#969595"/>
<path d="M45.9415 35.374H45.7219V35.4846H45.9415V35.374Z" fill="#969595"/>
<path d="M46.2051 35.1196H46.1282V35.2302H46.2051V35.1196Z" fill="#969595"/>
<path d="M45.2717 35.0532H45.0521V35.1638H45.2717V35.0532Z" fill="#969595"/>
<path d="M44.9862 35.3629H44.6568V35.4735H44.9862V35.3629Z" fill="#969595"/>
<path d="M43.3282 35.4625H43.0098V35.5731H43.3282V35.4625Z" fill="#969595"/>
<path d="M43.6796 35.197H43.5039V35.3076H43.6796V35.197Z" fill="#969595"/>
<path d="M43.1965 34.9979H43.0098V35.1085H43.1965V34.9979Z" fill="#969595"/>
<path d="M42.0106 35.3629H41.78V35.4735H42.0106V35.3629Z" fill="#969595"/>
<path d="M41.5165 34.9979H41.1761V35.1085H41.5165V34.9979Z" fill="#969595"/>
<path d="M41.6812 34.5886H41.4616V34.6993H41.6812V34.5886Z" fill="#969595"/>
<path d="M42.1863 33.936H41.8898V34.0466H42.1863V33.936Z" fill="#969595"/>
<path d="M41.4177 33.4161H41.1761V33.5268H41.4177V33.4161Z" fill="#969595"/>
<path d="M41.6702 32.3653H41.4176V32.4759H41.6702V32.3653Z" fill="#969595"/>
<path d="M42.1863 31.5025H41.8898V31.6132H42.1863V31.5025Z" fill="#969595"/>
<path d="M41.4177 30.4407H41.0992V30.5513H41.4177V30.4407Z" fill="#969595"/>
<path d="M41.4177 30.1531H41.0992V30.2637H41.4177V30.1531Z" fill="#969595"/>
<path d="M42.1094 29.6664H41.9008V29.777H42.1094V29.6664Z" fill="#969595"/>
<path d="M41.5384 29.6664H41.4176V29.777H41.5384V29.6664Z" fill="#969595"/>
<path d="M41.4177 28.6709H41.0992V28.7815H41.4177V28.6709Z" fill="#969595"/>
<path d="M42.1863 27.8966H41.8569V28.0072H42.1863V27.8966Z" fill="#969595"/>
<path d="M41.4177 27.2108H41.1761V27.3214H41.4177V27.2108Z" fill="#969595"/>
<path d="M41.9337 27.2108H41.78V27.3214H41.9337V27.2108Z" fill="#969595"/>
<path d="M42.1863 26.0272H41.5384V26.1378H42.1863V26.0272Z" fill="#969595"/>
<path d="M42.2412 25.7949H41.9557V25.9055H42.2412V25.7949Z" fill="#969595"/>
<path d="M41.4835 24.7994H41.0992V24.91H41.4835V24.7994Z" fill="#969595"/>
<path d="M41.4177 25.0096H41.0992V25.1202H41.4177V25.0096Z" fill="#969595"/>
<path d="M42.0984 24.2242H41.9227V24.3348H42.0984V24.2242Z" fill="#969595"/>
<path d="M41.4177 23.3061H41.0992V23.4167H41.4177V23.3061Z" fill="#969595"/>
<path d="M41.5494 23.0849H41.0992V23.1955H41.5494V23.0849Z" fill="#969595"/>
<path d="M42.2302 22.6646H41.9996V22.7752H42.2302V22.6646Z" fill="#969595"/>
<path d="M42.1973 22.3217H41.9886V22.4323H42.1973V22.3217Z" fill="#969595"/>
<path d="M43.1525 22.565H42.8671V22.6756H43.1525V22.565Z" fill="#969595"/>
<path d="M43.3392 22.3549H43.0976V22.4655H43.3392V22.3549Z" fill="#969595"/>
<path d="M45.0302 22.388H44.6568V22.4987H45.0302V22.388Z" fill="#969595"/>
<path d="M44.7447 22.565H44.4812V22.6756H44.7447V22.565Z" fill="#969595"/>
<path d="M46.26 22.2442H45.9415V22.3549H46.26V22.2442Z" fill="#969595"/>
<path d="M46.0953 22.7199H45.8757V22.8305H46.0953V22.7199Z" fill="#969595"/>
<path d="M47.5227 22.6646H47.2152V22.7752H47.5227V22.6646Z" fill="#969595"/>
<path d="M47.2262 22.388H47.1054V22.4987H47.2262V22.388Z" fill="#969595"/>
<path d="M48.2694 22.3217H47.9509V22.4323H48.2694V22.3217Z" fill="#969595"/>
<path d="M49.1588 22.6535H48.8623V22.7641H49.1588V22.6535Z" fill="#969595"/>
<path d="M49.4113 22.2442H49.2905V22.3549H49.4113V22.2442Z" fill="#969595"/>
<path d="M50.4654 22.3659H50.2019V22.4765H50.4654V22.3659Z" fill="#969595"/>
<path d="M50.7838 23.1402H50.4544V23.2508H50.7838V23.1402Z" fill="#969595"/>
<path d="M50.0482 23.6269H49.6968V23.7375H50.0482V23.6269Z" fill="#969595"/>
<path d="M50.0152 23.9145H49.6968V24.0251H50.0152V23.9145Z" fill="#969595"/>
<path d="M50.7838 24.2795H50.4544V24.3901H50.7838V24.2795Z" fill="#969595"/>
<path d="M50.1031 25.1976H49.7078V25.3082H50.1031V25.1976Z" fill="#969595"/>
<path d="M50.2787 25.5073H50.1031V25.6179H50.2787V25.5073Z" fill="#969595"/>
<path d="M50.707 25.9387H50.1799V26.0493H50.707V25.9387Z" fill="#969595"/>
<path d="M50.707 26.1931H50.4544V26.3037H50.707V26.1931Z" fill="#969595"/>
<path d="M50.0152 27.2882H49.7078V27.3988H50.0152V27.2882Z" fill="#969595"/>
<path d="M49.9713 27.6532H49.7078V27.7638H49.9713V27.6532Z" fill="#969595"/>
<path d="M50.7838 27.0117H50.4544V27.1223H50.7838V27.0117Z" fill="#969595"/>
<path d="M50.0482 28.2616H49.7627V28.3722H50.0482V28.2616Z" fill="#969595"/>
<path d="M50.4654 28.6709H50.2019V28.7815H50.4654V28.6709Z" fill="#969595"/>
<path d="M50.1909 30.4849H50.0152V30.5955H50.1909V30.4849Z" fill="#969595"/>
<path d="M44.1847 35.8939H40.3745C40.3086 35.8939 40.2647 35.8386 40.2647 35.7833V34.0798C40.2647 34.0135 40.3196 33.9692 40.3745 33.9692H40.9345V34.1904H40.4953V35.6726H44.0859V34.1904H43.6576V33.9692H44.1957C44.2615 33.9692 44.3055 34.0245 44.3055 34.0798V35.7833C44.3055 35.8496 44.2506 35.8939 44.1957 35.8939H44.1847Z" fill="#969595"/>
<path d="M44.0749 35.8164C41.5494 28.7262 40.9675 20.3306 40.8357 16.8795C40.4953 20.3085 39.9024 28.693 41.3408 35.7501L41.1212 35.7943C39.2545 26.6798 40.7698 15.3752 40.7918 15.2646C40.7918 15.2093 40.8467 15.165 40.9125 15.165C40.9675 15.165 41.0114 15.2203 41.0114 15.2756C41.0114 15.3862 41.0443 26.6577 44.2835 35.739L44.0749 35.8164Z" fill="#969595"/>
<path d="M43.7564 34.1683L43.5368 34.1351C44.7886 26.1489 43.5588 17.0897 43.5478 17.0012L43.7674 16.968C43.7784 17.0565 45.0082 26.1378 43.7564 34.1683Z" fill="#969595"/>
<path d="M43.7235 17.499H42.889V17.7202H43.7235V17.499Z" fill="#969595"/>
<path d="M43.8333 18.4281H42.2412V18.6493H43.8333V18.4281Z" fill="#969595"/>
<path d="M43.9212 19.3573H42.889V19.5785H43.9212V19.3573Z" fill="#969595"/>
<path d="M43.998 20.2864H42.4278V20.5076H43.998V20.2864Z" fill="#969595"/>
<path d="M44.0968 21.2266H42.889V21.4478H44.0968V21.2266Z" fill="#969595"/>
<path d="M44.1188 22.1558H42.351V22.377H44.1188V22.1558Z" fill="#969595"/>
<path d="M44.1517 23.0849H42.889V23.3061H44.1517V23.0849Z" fill="#969595"/>
<path d="M44.1847 24.0141H43.5478V24.2353H44.1847V24.0141Z" fill="#969595"/>
<path d="M44.1847 24.9543H42.889V25.1755H44.1847V24.9543Z" fill="#969595"/>
<path d="M44.1847 25.8834H43.3172V26.1046H44.1847V25.8834Z" fill="#969595"/>
<path d="M44.1957 26.8126H42.889V27.0338H44.1957V26.8126Z" fill="#969595"/>
<path d="M44.1517 27.7417H43.2404V27.9629H44.1517V27.7417Z" fill="#969595"/>
<path d="M44.1517 28.6709H42.889V28.8921H44.1517V28.6709Z" fill="#969595"/>
<path d="M44.1078 29.6111H43.1745V29.8323H44.1078V29.6111Z" fill="#969595"/>
<path d="M44.0419 30.5402H43.1745V30.7614H44.0419V30.5402Z" fill="#969595"/>
<path d="M43.9212 31.4694H42.889V31.6906H43.9212V31.4694Z" fill="#969595"/>
<path d="M42.2961 35.7943C41.0773 32.2658 40.7918 28.1288 40.682 25.3193H40.7918C40.9016 28.1178 41.1871 32.2547 42.3949 35.7611L42.2851 35.7943H42.2961Z" fill="#969595"/>
<path d="M43.9211 16.8685H40.3635V17.0897H43.9211V16.8685Z" fill="#969595"/>
<path d="M43.7674 16.9791H43.5478V15.3862H41.0224V16.9791H40.8027V15.2756C40.8027 15.2093 40.8576 15.165 40.9126 15.165H43.6576C43.7235 15.165 43.7674 15.2203 43.7674 15.2756V16.9791Z" fill="#969595"/>
<path d="M43.1196 35.8054C41.6592 32.5202 40.9126 24.9543 40.9126 22.4434H41.0224C41.0224 24.9432 41.769 32.487 43.2184 35.7611L43.1196 35.8054Z" fill="#969595"/>
<path d="M43.6686 35.7833C42.9988 34.3342 42.3729 31.8344 42.1863 30.6619L42.2961 30.6398C42.4718 31.8123 43.0976 34.29 43.7674 35.728L43.6686 35.7722V35.7833Z" fill="#969595"/>
<path d="M41.7471 35.7501C41.3957 34.6329 41.0004 32.5865 40.9345 31.757H41.0443C41.1102 32.487 41.4835 34.5223 41.8569 35.7169L41.7471 35.7501Z" fill="#969595"/>
<path d="M42.7023 35.8054C42.5157 35.3961 42.0216 33.8475 41.8569 32.8631L41.9667 32.841C42.1314 33.8144 42.6255 35.3519 42.8121 35.7501L42.7133 35.7943L42.7023 35.8054Z" fill="#969595"/>
<path d="M43.6576 16.5698H41.7471V16.6804H43.6576V16.5698Z" fill="#969595"/>
<path d="M43.6576 16.249H42.7023V16.3596H43.6576V16.249Z" fill="#969595"/>
<path d="M43.6466 15.9504H43.1196V16.061H43.6466V15.9504Z" fill="#969595"/>
<path d="M43.6247 15.519H40.8577V15.6296H43.6247V15.519Z" fill="#969595"/>
<path d="M43.7564 17.7865H42.1423V17.8972H43.7564V17.7865Z" fill="#969595"/>
<path d="M43.8333 18.7489H42.0765V18.8595H43.8333V18.7489Z" fill="#969595"/>
<path d="M43.8992 19.667H43.3831V19.7776H43.8992V19.667Z" fill="#969595"/>
<path d="M43.998 20.6735H42.1423V20.7842H43.998V20.6735Z" fill="#969595"/>
<path d="M44.0858 21.6027H43.1196V21.7133H44.0858V21.6027Z" fill="#969595"/>
<path d="M44.1188 22.4655H42.9549V22.5761H44.1188V22.4655Z" fill="#969595"/>
<path d="M44.1078 23.4499H42.5706V23.5605H44.1078V23.4499Z" fill="#969595"/>
<path d="M44.2066 24.3238H43.6357V24.4344H44.2066V24.3238Z" fill="#969595"/>
<path d="M44.1627 25.2529H42.7243V25.3635H44.1627V25.2529Z" fill="#969595"/>
<path d="M44.2066 26.3148H43.1745V26.4254H44.2066V26.3148Z" fill="#969595"/>
<path d="M44.1847 27.2108H43.1745V27.3214H44.1847V27.2108Z" fill="#969595"/>
<path d="M44.1737 28.1289H43.6357V28.2395H44.1737V28.1289Z" fill="#969595"/>
<path d="M44.1078 29.0248H43.7015V29.1354H44.1078V29.0248Z" fill="#969595"/>
<path d="M44.0419 29.9982H43.6796V30.1088H44.0419V29.9982Z" fill="#969595"/>
<path d="M43.9321 30.8942H43.6796V31.0048H43.9321V30.8942Z" fill="#969595"/>
<path d="M43.9212 31.9118H43.5478V32.0224H43.9212V31.9118Z" fill="#969595"/>
<path d="M78.2126 35.8939H71.2072C71.1413 35.8939 71.0974 35.8386 71.0974 35.7833V35.0311C71.0974 34.9647 71.1523 34.9205 71.2072 34.9205H78.2126C78.2785 34.9205 78.3224 34.9758 78.3224 35.0311V35.7833C78.3224 35.8496 78.2675 35.8939 78.2126 35.8939ZM71.317 35.6726H78.1028V35.1417H71.317V35.6726Z" fill="#969595"/>
<path d="M72.1625 22.554H71.9429V35.0311H72.1625V22.554Z" fill="#969595"/>
<path d="M77.6306 35.0311L77.411 35.009C77.7185 30.9716 76.4997 25.7396 72.0197 24.2685L72.0856 24.0583C76.6863 25.5737 77.9381 30.9163 77.6306 35.0311Z" fill="#969595"/>
<path d="M77.1256 35.0311L76.906 35.009C77.0158 33.6484 77.2903 26.7462 72.0087 24.7441L72.0856 24.5339C77.5099 26.5913 77.2354 33.6263 77.1256 35.02V35.0311Z" fill="#969595"/>
<path d="M75.4675 35.0311H75.2479C75.2479 31.6795 75.0173 27.5537 73.2276 25.3525L73.4032 25.2087C75.2369 27.4652 75.4675 31.6463 75.4675 35.0311Z" fill="#969595"/>
<path d="M73.8644 34.4448H72.0527V34.5555H73.8644V34.4448Z" fill="#969595"/>
<path d="M73.8644 33.8365H72.0527V34.0577H73.8644V33.8365Z" fill="#969595"/>
<path d="M76.1154 33.2723H72.0527V33.4936H76.1154V33.2723Z" fill="#969595"/>
<path d="M73.8644 32.7746H72.0527V32.8852H73.8644V32.7746Z" fill="#969595"/>
<path d="M73.8644 32.1552H72.0527V32.3764H73.8644V32.1552Z" fill="#969595"/>
<path d="M75.764 31.6021H72.0527V31.8233H75.764V31.6021Z" fill="#969595"/>
<path d="M73.8644 31.0933H72.0527V31.2039H73.8644V31.0933Z" fill="#969595"/>
<path d="M73.8644 30.4738H72.0527V30.6951H73.8644V30.4738Z" fill="#969595"/>
<path d="M75.4895 29.9208H72.0527V30.142H75.4895V29.9208Z" fill="#969595"/>
<path d="M73.8644 29.412H72.0527V29.5226H73.8644V29.412Z" fill="#969595"/>
<path d="M73.8644 28.8036H72.0527V29.0248H73.8644V28.8036Z" fill="#969595"/>
<path d="M75.1821 28.2395H72.0527V28.4607H75.1821V28.2395Z" fill="#969595"/>
<path d="M73.8644 27.7417H72.0527V27.8523H73.8644V27.7417Z" fill="#969595"/>
<path d="M73.7217 27.1223H72.0527V27.3435H73.7217V27.1223Z" fill="#969595"/>
<path d="M73.3923 26.6245H72.0527V26.7351H73.3923V26.6245Z" fill="#969595"/>
<path d="M72.8762 26.0051H72.0527V26.2263H72.8762V26.0051Z" fill="#969595"/>
<path d="M72.5358 25.452H72.0527V25.6732H72.5358V25.452Z" fill="#969595"/>
<path d="M74.3366 29.412H74.084V29.5226H74.3366V29.412Z" fill="#969595"/>
<path d="M74.7977 31.0933H74.2048V31.2039H74.7977V31.0933Z" fill="#969595"/>
<path d="M74.8966 32.7746H74.2048V32.8852H74.8966V32.7746Z" fill="#969595"/>
<path d="M74.4134 34.4448H74.084V34.5555H74.4134V34.4448Z" fill="#969595"/>
<path d="M73.8644 26.6245H73.6119V26.7351H73.8644V26.6245Z" fill="#969595"/>
<path d="M76.5765 35.0311H76.4667C76.9718 29.7106 74.7868 26.536 73.4252 25.5073L73.4911 25.4188C74.8746 26.4697 77.0926 29.6774 76.5765 35.0422V35.0311Z" fill="#969595"/>
<path d="M72.1076 21.6801H71.9978V22.4102H72.1076V21.6801Z" fill="#969595"/>
<path d="M78.2126 35.2855H71.2072V35.3961H78.2126V35.2855Z" fill="#969595"/>
<path d="M3.93094 31.8344H3.71133V35.8939H3.93094V31.8344Z" fill="#969595"/>
<path d="M2.79997 32.8631C2.79997 32.8631 2.74507 32.852 2.72311 32.8299C2.70115 32.8078 2.69017 32.7746 2.69017 32.7414C2.69017 32.7082 2.78899 31.9339 3.79918 31.7238C3.83212 31.7238 3.87604 31.7238 3.898 31.757C3.91996 31.7791 3.93094 31.8233 3.93094 31.8565C3.93094 31.8565 3.75526 32.7857 2.81095 32.8631H2.79997ZM3.65644 31.9892C3.19526 32.1441 3.01958 32.4317 2.9537 32.6087C3.38193 32.5091 3.57957 32.1883 3.65644 31.9892Z" fill="#969595"/>
<path d="M4.83132 32.8631C3.88702 32.7857 3.71133 31.8565 3.71133 31.8565C3.71133 31.8233 3.71133 31.7791 3.74428 31.757C3.76624 31.7348 3.81016 31.7238 3.8431 31.7238C4.85328 31.9339 4.94113 32.7082 4.95211 32.7414C4.95211 32.7746 4.95211 32.8078 4.91917 32.8299C4.89721 32.852 4.87524 32.8631 4.8423 32.8631H4.83132ZM3.98584 31.9892C4.07368 32.1994 4.26035 32.5202 4.68858 32.6087C4.6227 32.4317 4.44701 32.133 3.98584 31.9892Z" fill="#969595"/>
<path d="M3.82114 31.945H2.54743C2.54743 31.945 2.47057 31.9229 2.45959 31.8897C2.43763 31.8565 2.43763 31.8123 2.45959 31.7791C2.45959 31.7569 2.70115 31.2481 3.19527 31.2481C3.68938 31.2481 3.93094 31.7569 3.93094 31.7791C3.94192 31.8123 3.94192 31.8565 3.93094 31.8897C3.90898 31.9229 3.87604 31.945 3.8431 31.945H3.82114ZM2.74507 31.7238H3.61252C3.52467 31.6132 3.37095 31.4915 3.1733 31.4915C2.97566 31.4915 2.82194 31.6242 2.73409 31.7238H2.74507Z" fill="#969595"/>
<path d="M5.09485 31.945H3.82114C3.82114 31.945 3.74428 31.9229 3.7333 31.8897C3.71134 31.8565 3.71134 31.8123 3.7333 31.7791C3.7333 31.7569 3.97486 31.2481 4.46898 31.2481C4.96309 31.2481 5.20466 31.7569 5.20466 31.7791C5.21564 31.8123 5.21564 31.8565 5.20466 31.8897C5.1827 31.9229 5.14975 31.945 5.11681 31.945H5.09485ZM4.01879 31.7238H4.88623C4.79839 31.6132 4.64466 31.4915 4.44702 31.4915C4.24937 31.4915 4.09565 31.6242 4.00781 31.7238H4.01879Z" fill="#969595"/>
<path d="M38.5957 32.0777H38.3761V35.8939H38.5957V32.0777Z" fill="#969595"/>
<path d="M37.5306 33.0511C37.5306 33.0511 37.4757 33.0401 37.4538 33.0179C37.4318 32.9958 37.4208 32.9626 37.4208 32.9294C37.4208 32.8963 37.5087 32.1662 38.464 31.9671C38.4969 31.9671 38.5408 31.9671 38.5628 32.0003C38.5847 32.0224 38.5957 32.0667 38.5957 32.0998C38.5957 32.0998 38.431 32.9737 37.5416 33.0511H37.5306ZM38.3212 32.2436C37.915 32.3874 37.7502 32.6418 37.6844 32.8078C38.0687 32.7193 38.2444 32.4317 38.3212 32.2436Z" fill="#969595"/>
<path d="M39.4412 33.0511C38.5518 32.9737 38.3871 32.1109 38.3871 32.0998C38.3871 32.0667 38.3871 32.0224 38.42 32.0003C38.442 31.9782 38.4859 31.9671 38.5189 31.9671C39.4742 32.1662 39.562 32.8963 39.562 32.9294C39.562 32.9626 39.562 32.9958 39.5291 33.0179C39.5071 33.0401 39.4742 33.0511 39.4522 33.0511H39.4412ZM38.6506 32.2436C38.7275 32.4317 38.9032 32.7193 39.2875 32.8078C39.2216 32.6418 39.0569 32.3874 38.6506 32.2436Z" fill="#969595"/>
<path d="M38.4859 32.1883H37.2891C37.2891 32.1883 37.2122 32.1662 37.2012 32.133C37.1793 32.0998 37.1793 32.0556 37.2012 32.0224C37.2012 32.0003 37.4318 31.5247 37.904 31.5247C38.3761 31.5247 38.5957 32.0003 38.6067 32.0224C38.6177 32.0556 38.6177 32.0998 38.6067 32.133C38.5847 32.1662 38.5518 32.1883 38.5189 32.1883H38.4859ZM37.4867 31.9671H38.2773C38.1894 31.8676 38.0577 31.7569 37.882 31.7569C37.7063 31.7569 37.5746 31.8676 37.4867 31.9671Z" fill="#969595"/>
<path d="M39.6828 32.1883H38.4859C38.4859 32.1883 38.4091 32.1662 38.3981 32.133C38.3871 32.0998 38.3761 32.0556 38.3981 32.0224C38.3981 32.0003 38.6287 31.5247 39.1008 31.5247C39.573 31.5247 39.7926 32.0003 39.8035 32.0224C39.8145 32.0556 39.8145 32.0998 39.8035 32.133C39.7816 32.1662 39.7486 32.1883 39.7157 32.1883H39.6828ZM38.6945 31.9671H39.4851C39.3973 31.8676 39.2655 31.7569 39.0898 31.7569C38.9141 31.7569 38.7824 31.8676 38.6945 31.9671Z" fill="#969595"/>
<path d="M79.7718 32.3874H79.5522V35.8939H79.7718V32.3874Z" fill="#969595"/>
<path d="M78.7836 33.2945C78.7836 33.2945 78.7287 33.2834 78.7067 33.2613C78.6847 33.2392 78.6738 33.206 78.6738 33.1728C78.6738 33.1396 78.7616 32.4649 79.64 32.2768C79.673 32.2768 79.7169 32.2768 79.7389 32.31C79.7608 32.3321 79.7718 32.3764 79.7718 32.4096C79.7718 32.4096 79.6181 33.2281 78.7946 33.2945H78.7836ZM79.4973 32.5534C79.1459 32.675 79.0032 32.8963 78.9373 33.0401C79.2557 32.9516 79.4204 32.7193 79.4973 32.5534Z" fill="#969595"/>
<path d="M80.5404 33.2945C79.7169 33.2281 79.5632 32.4206 79.5632 32.4096C79.5632 32.3764 79.5632 32.3321 79.5961 32.31C79.6181 32.2879 79.662 32.2768 79.6949 32.2768C80.5734 32.4649 80.6612 33.1396 80.6612 33.1728C80.6612 33.206 80.6612 33.2392 80.6283 33.2613C80.6063 33.2834 80.5843 33.2945 80.5514 33.2945H80.5404ZM79.8377 32.5534C79.9145 32.7193 80.0683 32.9626 80.3977 33.0401C80.3318 32.8963 80.189 32.675 79.8377 32.5534Z" fill="#969595"/>
<path d="M79.662 32.4981H78.553C78.553 32.4981 78.4761 32.4759 78.4651 32.4427C78.4432 32.4096 78.4432 32.3653 78.4651 32.3321C78.4651 32.31 78.6848 31.8676 79.113 31.8676C79.5412 31.8676 79.7608 32.31 79.7608 32.3321C79.7718 32.3653 79.7718 32.4096 79.7608 32.4427C79.7389 32.4759 79.7059 32.4981 79.673 32.4981H79.662ZM78.7726 32.2768H79.4644C79.3875 32.1883 79.2777 32.0998 79.124 32.0998C78.9702 32.0998 78.8604 32.1883 78.7836 32.2768H78.7726Z" fill="#969595"/>
<path d="M80.771 32.4981H79.662C79.662 32.4981 79.5851 32.4759 79.5741 32.4427C79.5522 32.4096 79.5522 32.3653 79.5741 32.3321C79.5741 32.31 79.7938 31.8676 80.222 31.8676C80.6502 31.8676 80.8698 32.31 80.8698 32.3321C80.8808 32.3653 80.8808 32.4096 80.8698 32.4427C80.8479 32.4759 80.8149 32.4981 80.782 32.4981H80.771ZM79.8706 32.2768H80.5624C80.4855 32.1883 80.3757 32.0998 80.222 32.0998C80.0683 32.0998 79.9585 32.1883 79.8816 32.2768H79.8706Z" fill="#969595"/>
<path d="M13.4399 6.45979C13.2203 6.45979 13.0226 6.36024 12.8909 6.19432C12.6713 6.36024 12.3967 6.45979 12.1222 6.45979C11.7928 6.45979 11.4744 6.32706 11.2328 6.09477C11.0791 6.31599 10.8156 6.45979 10.5411 6.45979C10.0689 6.45979 9.68462 6.07265 9.68462 5.59701C9.68462 5.12137 10.0689 4.73423 10.5411 4.73423C10.6619 4.73423 10.7826 4.75635 10.9034 4.81166C11.0572 4.26966 11.5513 3.88251 12.1222 3.88251C12.7811 3.88251 13.3191 4.39133 13.385 5.03288C13.7912 4.9997 14.1426 5.33154 14.1426 5.74081C14.1426 6.15007 13.8242 6.44873 13.4399 6.44873V6.45979ZM12.9238 5.90673C12.9238 5.90673 12.9348 5.90673 12.9458 5.90673C12.9787 5.90673 13.0116 5.92885 13.0226 5.96203C13.1105 6.11689 13.2642 6.21644 13.4509 6.21644C13.7144 6.21644 13.934 5.99522 13.934 5.72975C13.934 5.42003 13.6375 5.17668 13.3301 5.26517C13.2971 5.26517 13.2642 5.26517 13.2313 5.24305C13.1983 5.22093 13.1873 5.18774 13.1873 5.15456C13.1873 5.15456 13.1873 5.15456 13.1873 5.1435C13.1873 4.56831 12.7152 4.09268 12.1332 4.09268C11.6171 4.09268 11.1779 4.46876 11.1011 4.98864C11.1011 5.02182 11.0681 5.05501 11.0352 5.07713C11.0023 5.08819 10.9583 5.07713 10.9254 5.06607C10.8156 4.98864 10.6948 4.94439 10.563 4.94439C10.2117 4.94439 9.93716 5.23199 9.93716 5.57489C9.93716 5.91779 10.2227 6.20538 10.563 6.20538C10.8046 6.20538 11.0352 6.06158 11.134 5.8293C11.145 5.79611 11.1779 5.77399 11.2219 5.76293C11.2548 5.76293 11.2987 5.76293 11.3207 5.80717C11.5183 6.06158 11.8148 6.20538 12.1332 6.20538C12.3967 6.20538 12.6603 6.10583 12.8579 5.91779C12.8799 5.89566 12.9018 5.8846 12.9348 5.8846L12.9238 5.90673Z" fill="#969595"/>
<path d="M13.4399 6.0284C13.2203 6.0284 13.0226 5.91779 12.9018 5.74081C12.6822 5.92885 12.4077 6.0284 12.1222 6.0284C11.7819 6.0284 11.4634 5.8846 11.2328 5.63019C11.0901 5.87354 10.8266 6.0284 10.5521 6.0284C10.1787 6.0284 9.84932 5.76293 9.77246 5.38685L9.88226 5.36472C9.94815 5.6855 10.2336 5.91779 10.5521 5.91779C10.8156 5.91779 11.0681 5.76293 11.1779 5.50852C11.1779 5.4864 11.1999 5.47534 11.2219 5.47534C11.2438 5.47534 11.2548 5.47534 11.2768 5.49746C11.4854 5.76293 11.8038 5.91779 12.1332 5.91779C12.4187 5.91779 12.6822 5.80717 12.8909 5.60807C12.9018 5.59701 12.9238 5.58595 12.9348 5.59701C12.9567 5.59701 12.9677 5.60807 12.9787 5.63019C13.0665 5.80717 13.2532 5.91779 13.4509 5.91779C13.6814 5.91779 13.8901 5.77399 13.956 5.55277L14.0658 5.58595C13.9779 5.85142 13.7363 6.0284 13.4509 6.0284H13.4399Z" fill="#969595"/>
<path d="M12.4736 3.55067C12.3528 3.52855 12.2321 3.50643 12.1113 3.50643V3.39581C12.243 3.39581 12.3748 3.40687 12.4956 3.44006L12.4736 3.55067Z" fill="#969595"/>
<path d="M10.9144 4.02631L10.8375 3.94888C11.0352 3.73871 11.2768 3.58386 11.5403 3.49537L11.5732 3.60598C11.3207 3.69447 11.0901 3.83826 10.9144 4.03737V4.02631Z" fill="#969595"/>
<path d="M13.4728 6.79163V6.68102C13.7254 6.68102 13.9779 6.5704 14.1426 6.3713L14.2305 6.44873C14.0438 6.66995 13.7583 6.79163 13.4728 6.79163Z" fill="#969595"/>
<path d="M58.5689 9.9994C58.3053 9.9994 58.0528 9.88879 57.8771 9.68969C57.6685 9.88879 57.394 9.9994 57.1085 9.9994C56.4936 9.9994 55.9885 9.49059 55.9885 8.87115C55.9885 8.84903 55.9885 8.81585 55.9885 8.79372C55.7799 8.67205 55.6591 8.43976 55.6591 8.19641C55.6591 7.80927 55.9665 7.49955 56.3508 7.49955C56.5705 7.49955 56.7681 7.5991 56.8999 7.76502C57.361 7.67653 57.8002 7.87564 58.0528 8.25172C58.2065 8.14111 58.3932 8.0858 58.5798 8.0858C59.1069 8.0858 59.5351 8.51719 59.5351 9.04813C59.5351 9.57908 59.1069 10.0105 58.5798 10.0105L58.5689 9.9994ZM57.8771 9.41316C57.91 9.41316 57.943 9.43528 57.965 9.4574C58.0967 9.6565 58.3273 9.76712 58.5689 9.76712C58.9751 9.76712 59.3045 9.43528 59.3045 9.02601C59.3045 8.61674 58.9751 8.2849 58.5689 8.2849C58.3932 8.2849 58.2175 8.35127 58.0857 8.47295C58.0638 8.49507 58.0308 8.50613 57.9869 8.49507C57.954 8.49507 57.921 8.46189 57.9101 8.43976C57.7234 8.06368 57.3061 7.85351 56.8779 7.97519C56.834 7.98625 56.7791 7.97519 56.7571 7.93094C56.6693 7.78715 56.5156 7.69866 56.3508 7.69866C56.0873 7.69866 55.8787 7.90882 55.8787 8.17429C55.8787 8.36233 55.9885 8.52825 56.1532 8.60568C56.1971 8.6278 56.2191 8.67205 56.2191 8.72736C56.2191 8.7716 56.2191 8.81585 56.2191 8.84903C56.2191 9.34679 56.6254 9.75606 57.1195 9.75606C57.383 9.75606 57.6355 9.63438 57.8112 9.43528C57.8332 9.41316 57.8661 9.39103 57.8991 9.39103L57.8771 9.41316Z" fill="#969595"/>
<path d="M58.5689 9.64544C58.2944 9.64544 58.0418 9.52377 57.8771 9.3136C57.6795 9.52377 57.394 9.64544 57.1085 9.64544C56.5814 9.64544 56.1312 9.24724 56.0544 8.72736H56.1642C56.2301 9.18087 56.6363 9.53483 57.1085 9.53483C57.394 9.53483 57.6575 9.41316 57.8442 9.19193C57.8552 9.18087 57.8771 9.16981 57.8881 9.16981C57.9101 9.16981 57.921 9.16981 57.932 9.19193C58.0748 9.4021 58.3163 9.53483 58.5798 9.53483C58.9642 9.53483 59.2826 9.2583 59.3485 8.88221L59.4583 8.90434C59.3814 9.33573 59.0081 9.64544 58.5798 9.64544H58.5689Z" fill="#969595"/>
<path d="M59.4253 10.099L59.3595 10.0105C59.5571 9.8556 59.6998 9.64544 59.7767 9.40209L59.8865 9.43528C59.8096 9.68969 59.6449 9.92197 59.4363 10.099H59.4253Z" fill="#969595"/>
<path d="M55.6811 7.35576L55.6152 7.26727C55.8238 7.10135 56.0763 7.01286 56.3399 7.01286V7.12347C56.0983 7.12347 55.8787 7.2009 55.692 7.35576H55.6811Z" fill="#969595"/>
<path d="M55.2748 8.18535H55.165C55.165 7.97519 55.2199 7.76502 55.3297 7.58804L55.4285 7.64335C55.3297 7.80927 55.2858 7.99731 55.2858 8.18535H55.2748Z" fill="#969595"/>
<path d="M8.16934 3.00867C7.99365 3.00867 7.82895 2.95336 7.68621 2.84275C7.51052 2.71001 7.38974 2.52197 7.3568 2.30075C7.32386 2.07952 7.37876 1.8583 7.51052 1.68132C7.64228 1.50433 7.82895 1.38266 8.04855 1.34948C8.3011 1.30523 8.56463 1.39372 8.75129 1.58176C8.81717 1.54858 8.88306 1.52646 8.94894 1.5154C9.12462 1.49327 9.31129 1.53752 9.45403 1.63707C9.59678 1.74768 9.6956 1.90254 9.71756 2.07952C9.73952 2.2565 9.6956 2.44454 9.59678 2.58834C9.48697 2.73214 9.33325 2.83169 9.15756 2.85381C9.01482 2.87593 8.8611 2.85381 8.72933 2.77638C8.60855 2.887 8.45483 2.95336 8.3011 2.98655C8.25718 2.98655 8.21326 2.98655 8.16934 2.98655V3.00867ZM8.16934 1.55964C8.16934 1.55964 8.11444 1.55964 8.0815 1.55964C7.91679 1.58176 7.78503 1.67025 7.68621 1.80299C7.58738 1.93572 7.55444 2.09058 7.5764 2.2565C7.59836 2.42242 7.6862 2.55516 7.81797 2.65471C7.94973 2.75426 8.10346 2.78744 8.26816 2.76532C8.4109 2.7432 8.54267 2.67683 8.63051 2.56622C8.66345 2.52197 8.72933 2.51091 8.78423 2.55516C8.88306 2.63259 9.00384 2.65471 9.12462 2.64365C9.24541 2.62152 9.35521 2.55516 9.42109 2.46667C9.48697 2.37818 9.51991 2.24544 9.50893 2.12377C9.48697 2.00209 9.42109 1.89148 9.33325 1.82511C9.24541 1.75874 9.11364 1.72556 8.99286 1.73662C8.92698 1.73662 8.8611 1.76981 8.8062 1.81405C8.76227 1.84723 8.69639 1.83617 8.65247 1.79193C8.53169 1.64813 8.356 1.55964 8.18032 1.55964H8.16934Z" fill="#969595"/>
<path d="M8.16934 2.66577C7.80699 2.66577 7.48856 2.41136 7.4117 2.03528L7.5215 2.01315C7.58738 2.36711 7.91679 2.5994 8.26816 2.54409C8.42188 2.52197 8.56463 2.44454 8.66345 2.32287C8.68541 2.30075 8.71835 2.30075 8.74031 2.32287C8.85012 2.4003 8.98188 2.44454 9.12462 2.42242C9.33325 2.38924 9.49795 2.24544 9.54187 2.03528L9.65168 2.0574C9.58579 2.30075 9.38815 2.48879 9.14658 2.52197C8.99286 2.54409 8.85012 2.52197 8.71835 2.43348C8.59757 2.55516 8.45483 2.63259 8.29012 2.65471C8.2462 2.65471 8.21326 2.65471 8.16934 2.65471V2.66577Z" fill="#969595"/>
<path d="M74.9844 2.53303C74.8087 2.53303 74.644 2.47773 74.5012 2.36711C74.3256 2.23438 74.2048 2.04634 74.1718 1.82511C74.1389 1.60389 74.1938 1.38266 74.3256 1.20568C74.4573 1.0287 74.644 0.907025 74.8636 0.873841C75.1161 0.829596 75.3797 0.918086 75.5663 1.10613C75.6322 1.07294 75.6981 1.05082 75.764 1.03976C75.9397 1.01764 76.1263 1.06188 76.2691 1.16143C76.4118 1.27205 76.5106 1.42691 76.5326 1.60389C76.5546 1.78087 76.5106 1.96891 76.4118 2.11271C76.302 2.2565 76.1483 2.35605 75.9726 2.37818C75.8299 2.4003 75.6761 2.37818 75.5444 2.30075C75.4236 2.41136 75.2809 2.47773 75.1162 2.51091C75.0722 2.51091 75.0283 2.51091 74.9954 2.51091L74.9844 2.53303ZM74.9844 1.08401C74.9844 1.08401 74.9295 1.08401 74.8965 1.08401C74.7318 1.10613 74.6001 1.19462 74.5012 1.32735C74.4024 1.46009 74.3695 1.61495 74.3914 1.78087C74.4134 1.94679 74.5013 2.07952 74.633 2.17907C74.7648 2.27862 74.9185 2.31181 75.0832 2.28969C75.2259 2.26756 75.3577 2.2012 75.4456 2.09058C75.4785 2.04634 75.5444 2.03528 75.5993 2.07952C75.6981 2.15695 75.8189 2.17907 75.9397 2.16801C76.0605 2.14589 76.1703 2.07952 76.2361 1.99103C76.302 1.90254 76.335 1.76981 76.324 1.64813C76.302 1.52646 76.2361 1.41584 76.1483 1.34948C76.0604 1.28311 75.9287 1.24992 75.8079 1.26099C75.742 1.26099 75.6761 1.29417 75.6212 1.33842C75.5773 1.3716 75.5114 1.36054 75.4675 1.31629C75.3467 1.1725 75.1711 1.08401 74.9954 1.08401H74.9844Z" fill="#969595"/>
<path d="M74.9844 2.19013C74.622 2.19013 74.3036 1.93572 74.2267 1.55964L74.3365 1.53752C74.4024 1.89148 74.7318 2.12377 75.0832 2.06846C75.2369 2.04634 75.3797 1.96891 75.4785 1.84723C75.5005 1.82511 75.5334 1.82511 75.5554 1.84723C75.6652 1.92466 75.7969 1.96891 75.9397 1.94679C76.1483 1.9136 76.313 1.7698 76.3569 1.55964L76.4667 1.58176C76.4008 1.82511 76.2032 2.01315 75.9616 2.04634C75.8079 2.06846 75.6652 2.04634 75.5334 1.95785C75.4126 2.07952 75.2699 2.15695 75.1052 2.17907C75.0613 2.17907 75.0283 2.17907 74.9844 2.17907V2.19013Z" fill="#969595"/>
<path d="M72.1625 14.3354C71.9978 14.3354 71.844 14.2912 71.7013 14.1916C71.5695 14.258 71.4158 14.3022 71.2621 14.3133C71.0644 14.3244 70.8558 14.2801 70.6801 14.1916C70.5484 14.258 70.3946 14.3022 70.2409 14.3133C70.0323 14.3244 69.8346 14.2801 69.648 14.1916C69.5162 14.2691 69.3735 14.3133 69.2197 14.3244C68.6817 14.3575 68.2205 13.9483 68.1876 13.4063C68.1547 12.8643 68.5609 12.3997 69.099 12.3665C69.1868 12.3665 69.2746 12.3665 69.3625 12.3886C69.5162 12.2338 69.7029 12.1232 69.9225 12.0789C70.0103 11.736 70.3068 11.4816 70.6582 11.4595C71.0644 11.4374 71.4158 11.7139 71.5037 12.101C71.8111 12.1895 72.0636 12.4108 72.1954 12.6984C72.6017 12.7205 72.9311 13.0413 72.964 13.4616C72.997 13.9151 72.6456 14.3022 72.1954 14.3354C72.1734 14.3354 72.1625 14.3354 72.1405 14.3354H72.1625ZM71.7123 13.9483C71.7123 13.9483 71.7672 13.9483 71.7782 13.9704C71.8989 14.07 72.0417 14.1142 72.1954 14.1031C72.5248 14.081 72.7774 13.7934 72.7554 13.4616C72.7334 13.1408 72.4589 12.8864 72.1405 12.8975C72.0966 12.8975 72.0527 12.8753 72.0307 12.8311C71.9209 12.5546 71.6793 12.3444 71.3938 12.278C71.3499 12.278 71.317 12.2338 71.306 12.1785C71.2621 11.8688 70.9876 11.6365 70.6801 11.6586C70.4056 11.6807 70.175 11.8909 70.1311 12.1674C70.1311 12.2117 70.0872 12.2559 70.0433 12.2559C69.8346 12.2891 69.637 12.3997 69.4943 12.5546C69.4613 12.5877 69.4174 12.5988 69.3845 12.5877C69.2966 12.5656 69.2088 12.5546 69.1319 12.5546C68.7147 12.5767 68.3962 12.9417 68.4292 13.362C68.4511 13.7824 68.8135 14.1031 69.2307 14.07C69.3625 14.07 69.4943 14.0146 69.6041 13.9372C69.637 13.9151 69.6919 13.9151 69.7248 13.9372C69.8786 14.0368 70.0652 14.07 70.2409 14.0589C70.3837 14.0589 70.5154 14.0146 70.6362 13.9372C70.6691 13.9151 70.7131 13.9151 70.746 13.9372C70.8997 14.0257 71.0754 14.07 71.2621 14.0589C71.4048 14.0589 71.5366 14.0036 71.6683 13.9372C71.6903 13.9372 71.7013 13.9262 71.7233 13.9262L71.7123 13.9483Z" fill="#969595"/>
<path d="M72.1625 13.8598C71.9978 13.8598 71.844 13.8045 71.7123 13.7049C71.5695 13.7824 71.4268 13.8266 71.2731 13.8377C71.0754 13.8487 70.8668 13.8045 70.6911 13.7049C70.5593 13.7824 70.4056 13.8266 70.2519 13.8377C70.0433 13.8487 69.8456 13.8045 69.6699 13.7049C69.5382 13.7824 69.3954 13.8377 69.2417 13.8487C68.7915 13.8819 68.3962 13.5833 68.2864 13.1408L68.3962 13.1187C68.4951 13.5058 68.8464 13.7602 69.2307 13.7381C69.3735 13.7381 69.5162 13.6828 69.637 13.5943C69.659 13.5833 69.6809 13.5833 69.6919 13.5943C69.8566 13.6939 70.0543 13.7381 70.2409 13.7271C70.3837 13.7271 70.5264 13.6717 70.6582 13.5943C70.6801 13.5943 70.6911 13.5943 70.7131 13.5943C70.8778 13.6939 71.0644 13.7381 71.2621 13.7271C71.4158 13.7271 71.5586 13.6717 71.6903 13.5943C71.7123 13.5833 71.7342 13.5943 71.7562 13.5943C71.888 13.7049 72.0417 13.7602 72.2174 13.7492C72.4809 13.7271 72.7005 13.5611 72.7883 13.3067L72.8981 13.3399C72.7993 13.6275 72.5358 13.8377 72.2283 13.8487C72.2174 13.8487 72.1954 13.8487 72.1844 13.8487L72.1625 13.8598Z" fill="#969595"/>
<path d="M72.2174 14.6673C72.2174 14.6673 72.1625 14.6451 72.1625 14.612C72.1625 14.5788 72.1844 14.5567 72.2174 14.5567C72.3601 14.5567 72.5028 14.5235 72.6346 14.4682C72.6676 14.4571 72.7005 14.4682 72.7115 14.5013C72.7225 14.5345 72.7115 14.5677 72.6785 14.5788C72.5358 14.6451 72.3821 14.6783 72.2174 14.6783V14.6673Z" fill="#969595"/>
<path d="M72.986 14.3465C72.986 14.3465 72.953 14.3465 72.9421 14.3354C72.9201 14.3133 72.9201 14.2801 72.9421 14.258C73.1287 14.07 73.2385 13.8045 73.2385 13.539C73.2385 13.5058 73.2605 13.4837 73.2934 13.4837C73.3264 13.4837 73.3483 13.5058 73.3483 13.539C73.3483 13.8377 73.2275 14.1253 73.0189 14.3354C73.0189 14.3354 72.997 14.3465 72.975 14.3465H72.986Z" fill="#969595"/>
<path d="M68.4841 12.2448C68.4841 12.2448 68.4401 12.2448 68.4401 12.2117C68.4292 12.1895 68.4401 12.1453 68.4621 12.1342C68.6597 12.0236 68.8794 11.9683 69.1099 11.9683C69.1429 11.9683 69.1648 11.9904 69.1648 12.0236C69.1648 12.0568 69.1429 12.0789 69.1099 12.0789C68.9013 12.0789 68.7037 12.1342 68.517 12.2338H68.495L68.4841 12.2448Z" fill="#969595"/>
<path d="M67.8033 13.3952C67.8033 13.3952 67.7484 13.3731 67.7484 13.3399C67.7484 12.9528 67.9131 12.5877 68.1986 12.3223C68.2205 12.3001 68.2535 12.3001 68.2754 12.3223C68.2974 12.3444 68.2974 12.3776 68.2754 12.3997C68.0119 12.632 67.8692 12.9749 67.8692 13.3288C67.8692 13.362 67.8472 13.3842 67.8143 13.3842L67.8033 13.3952Z" fill="#969595"/>
<path d="M44.5141 1.4269C44.2176 1.4269 43.8882 1.32735 43.5588 1.23886C42.9439 1.06188 42.3729 0.895962 41.9886 1.28311L41.8349 1.12825C42.3071 0.652614 43.0098 0.851717 43.6247 1.0287C44.1737 1.18356 44.7008 1.33841 45.0082 1.0287L45.1619 1.18356C44.9862 1.36054 44.7557 1.4269 44.5141 1.4269Z" fill="#969595"/>
<path d="M42.0435 1.73662L41.9667 1.65919C42.34 1.28311 42.867 1.3716 43.3831 1.52646L43.3502 1.63707C42.867 1.49327 42.3839 1.40478 42.0435 1.74768V1.73662Z" fill="#969595"/>
<path d="M54.1767 13.1961C53.8693 13.1961 53.5399 13.0966 53.2105 12.997C52.5956 12.82 52.0246 12.643 51.6403 13.0191L51.4866 12.8643C51.9587 12.3997 52.6615 12.5988 53.2764 12.7868C53.8254 12.9528 54.3524 13.1076 54.6599 12.7979L54.8136 12.9528C54.6379 13.1297 54.4183 13.1851 54.1767 13.1851V13.1961Z" fill="#969595"/>
<path d="M51.6952 13.4726L51.6183 13.3952C52.0026 13.0191 52.5187 13.1187 53.0348 13.2735L53.0019 13.3842C52.4528 13.2072 52.0136 13.1629 51.6952 13.4726Z" fill="#969595"/>
<path d="M22.5974 19.8439C22.5974 19.8439 22.5206 19.8439 22.4986 19.8329C22.0484 19.6891 21.1041 17.7202 21.5104 16.3596C21.8947 15.0876 22.7951 14.5788 23.981 14.9438C24.5849 15.1318 25.0131 15.4969 25.2217 15.9946C25.3974 16.426 25.4084 16.968 25.2437 17.51C24.8045 18.9369 23.1574 19.8439 22.5974 19.8439ZM23.2782 15.0544C22.312 15.0544 21.8947 15.8729 21.73 16.426C21.3347 17.7312 22.29 19.5342 22.5755 19.6227C22.8829 19.7223 24.6178 18.8595 25.046 17.4547C25.1998 16.957 25.1888 16.4813 25.0351 16.0942C24.8484 15.6517 24.486 15.3309 23.937 15.165C23.6955 15.0876 23.4868 15.0544 23.2892 15.0544H23.2782Z" fill="#969595"/>
<path d="M22.5425 19.8329C22.5425 19.8329 22.5096 19.8329 22.4986 19.8329C22.1472 19.7223 21.6861 17.8197 22.0814 16.5366C22.2461 15.9946 22.4876 15.5522 22.7841 15.2646C23.1355 14.9217 23.5527 14.8111 23.981 14.9438C24.8155 15.1982 25.057 16.0499 24.6727 17.333C24.2774 18.6383 22.9159 19.8329 22.5316 19.8329H22.5425ZM23.6406 15.1097C23.388 15.1097 23.1574 15.2093 22.9488 15.4194C22.6853 15.6849 22.4547 16.0831 22.301 16.603C21.9276 17.8419 22.3778 19.4568 22.5645 19.6117C22.7951 19.5785 24.0688 18.5719 24.4641 17.2667C24.6617 16.603 24.8594 15.4416 23.9261 15.154C23.8272 15.1208 23.7284 15.1097 23.6406 15.1097Z" fill="#969595"/>
<path d="M22.5316 19.8329C22.5316 19.8329 22.5096 19.8329 22.4986 19.8329C22.4547 19.8218 22.4218 19.7776 22.4218 19.7333C22.4218 19.667 22.29 17.9856 22.6743 16.7247C22.9708 15.7402 23.5417 14.8111 23.981 14.9438C24.4202 15.0765 24.3762 16.1716 24.0798 17.1561C23.6845 18.4502 22.6633 19.7444 22.6194 19.7997C22.5974 19.8218 22.5645 19.8439 22.5316 19.8439V19.8329ZM23.8931 15.154C23.6735 15.154 23.1904 15.7955 22.8939 16.791C22.6194 17.7091 22.6084 18.8706 22.6304 19.4126C22.9488 18.9812 23.5857 18.0188 23.8711 17.0897C24.1896 16.061 24.1237 15.2203 23.9261 15.154H23.9041H23.8931Z" fill="#969595"/>
<path d="M22.4539 19.6462L21.9003 20.2147L22.0571 20.3696L22.6107 19.8011L22.4539 19.6462Z" fill="#969595"/>
<path d="M22.6383 19.6984L22.4235 19.7445L22.5905 20.5343L22.8052 20.4882L22.6383 19.6984Z" fill="#969595"/>
<path d="M22.5535 21.1271C22.5535 21.1271 22.5315 21.1271 22.5206 21.1271L21.7959 20.9058C21.741 20.8837 21.708 20.8284 21.719 20.762L21.8727 20.2643C21.8727 20.2643 21.9057 20.209 21.9276 20.1979C21.9496 20.1868 21.9825 20.1758 22.0155 20.1979L22.7402 20.4191C22.7951 20.4413 22.828 20.4966 22.817 20.5629L22.6633 21.0607C22.6633 21.0607 22.6304 21.116 22.6084 21.1271C22.5974 21.1271 22.5755 21.1381 22.5535 21.1381V21.1271ZM21.9716 20.7178L22.4766 20.8726L22.5645 20.5851L22.0594 20.4302L21.9716 20.7178Z" fill="#969595"/>
<path d="M22.5645 19.7886C22.5645 19.7886 22.5316 19.7886 22.5206 19.7886C22.1582 19.678 21.4445 17.7644 21.8398 16.4703C22.0045 15.9283 22.268 15.5079 22.5974 15.2425C22.9817 14.9327 23.4539 14.8553 23.97 15.0102C25.3096 15.4194 25.1449 16.7025 24.9253 17.4215C24.53 18.7268 22.9708 19.7886 22.5645 19.7886ZM23.4759 15.0323C23.1794 15.0323 22.9159 15.1318 22.6743 15.3199C22.3559 15.5743 22.1033 15.9836 21.9496 16.4924C21.5543 17.7865 22.3229 19.6006 22.5535 19.667C22.7512 19.7333 24.3982 18.7599 24.8264 17.3773C25.0351 16.6915 25.1998 15.4858 23.948 15.0987C23.7833 15.0433 23.6296 15.0212 23.4759 15.0212V15.0323Z" fill="#969595"/>
<path d="M22.5316 19.7776H22.5206C22.4986 19.7776 22.4876 19.7555 22.4876 19.7333C22.4876 19.7112 22.1143 17.9193 22.4876 16.6583C22.7731 15.7181 23.4429 14.8332 23.97 14.9991C24.2115 15.0765 24.3763 15.3641 24.4312 15.8066C24.4751 16.2269 24.4312 16.7357 24.2774 17.2114C23.8821 18.4945 22.5865 19.7444 22.5755 19.7665C22.5755 19.7665 22.5535 19.7776 22.5425 19.7776H22.5316ZM23.8382 15.0876C23.421 15.0876 22.861 15.7955 22.5865 16.6915C22.268 17.7534 22.4876 19.2135 22.5645 19.6117C22.839 19.3241 23.8382 18.2622 24.1676 17.1782C24.3104 16.7136 24.3653 16.2158 24.3213 15.8176C24.2774 15.4305 24.1347 15.165 23.937 15.1097C23.9041 15.1097 23.8712 15.0987 23.8382 15.0987V15.0876Z" fill="#969595"/>
<path d="M22.5316 19.7776C22.5316 19.7776 22.5316 19.7776 22.5206 19.7776C22.4986 19.7776 22.4767 19.7444 22.4876 19.7112C22.4876 19.7001 22.7731 18.1073 23.1574 16.8574C23.3002 16.3818 23.4649 15.9061 23.6076 15.5632C23.8602 14.9549 23.926 14.977 23.981 14.9991C23.9919 14.9991 24.0139 15.0102 24.0249 15.0433C24.1127 15.2203 23.8382 16.3154 23.6296 17.0123C23.2453 18.2843 22.5974 19.7333 22.5974 19.7444C22.5974 19.7665 22.5645 19.7776 22.5425 19.7776H22.5316ZM23.9261 15.1429C23.8053 15.3088 23.5308 15.9725 23.2453 16.9016C23.0037 17.7091 22.7951 18.6714 22.6853 19.2356C22.9049 18.7046 23.2672 17.8087 23.5198 16.9791C23.8053 16.0499 23.937 15.342 23.937 15.1429H23.9261Z" fill="#969595"/>
<path d="M83 35.6726H0V35.8939H83V35.6726Z" fill="#969595"/>
<path d="M83 36.7788H0V37H83V36.7788Z" fill="#969595"/>
<path d="M24.1566 4.13692C24.1566 4.13692 24.1017 4.13692 24.0798 4.13692C23.6735 4.1148 23.3002 3.93782 23.0366 3.6281C22.7621 3.32945 22.6304 2.93124 22.6523 2.52197C22.6743 2.1127 22.85 1.73662 23.1574 1.47115C23.4539 1.19462 23.8492 1.06188 24.2555 1.08401C24.6617 1.10613 25.0351 1.28311 25.2986 1.59282C25.5731 1.89148 25.7049 2.28969 25.6829 2.69895C25.6609 3.10822 25.4853 3.4843 25.1778 3.74977C24.8923 4.00418 24.5409 4.13692 24.1676 4.13692H24.1566ZM24.1566 1.31629C23.8382 1.31629 23.5308 1.43797 23.2892 1.64813C23.0366 1.88042 22.8829 2.20119 22.861 2.54409C22.839 2.88699 22.9598 3.22989 23.1904 3.4843C23.421 3.73871 23.7394 3.89357 24.0798 3.91569C24.4202 3.93782 24.7606 3.81614 25.0131 3.58386C25.2656 3.35157 25.4194 3.03079 25.4413 2.68789C25.4633 2.34499 25.3425 2.00209 25.1119 1.74768C24.8813 1.49327 24.5629 1.33841 24.2225 1.31629C24.2006 1.31629 24.1786 1.31629 24.1566 1.31629Z" fill="#969595"/>
<path d="M24.2424 0.14325L24.2111 0.739731L24.3208 0.745558L24.352 0.149078L24.2424 0.14325Z" fill="#969595"/>
<path d="M24.0052 4.48677L23.974 5.08325L24.0836 5.08908L24.1148 4.49259L24.0052 4.48677Z" fill="#969595"/>
<path d="M23.093 0.379554L22.9951 0.429737L23.2641 0.962038L23.362 0.911855L23.093 0.379554Z" fill="#969595"/>
<path d="M25.0585 4.26611L24.9606 4.31625L25.2294 4.84865L25.3273 4.7985L25.0585 4.26611Z" fill="#969595"/>
<path d="M22.1227 1.22228L22.0628 1.31501L22.5599 1.64068L22.6197 1.54795L22.1227 1.22228Z" fill="#969595"/>
<path d="M25.7589 3.5959L25.699 3.68862L26.1961 4.01429L26.2559 3.92156L25.7589 3.5959Z" fill="#969595"/>
<path d="M21.7027 2.4365L21.6969 2.54696L22.289 2.57843L22.2948 2.46797L21.7027 2.4365Z" fill="#969595"/>
<path d="M26.0305 2.65456L26.0247 2.76502L26.6168 2.7966L26.6226 2.68614L26.0305 2.65456Z" fill="#969595"/>
<path d="M22.4739 3.42338L21.9453 3.694L21.9951 3.79261L22.5237 3.52199L22.4739 3.42338Z" fill="#969595"/>
<path d="M26.326 1.43679L25.7974 1.70741L25.8471 1.80602L26.3757 1.5354L26.326 1.43679Z" fill="#969595"/>
<path d="M23.101 4.16457L22.778 4.66546L22.87 4.72572L23.1931 4.22483L23.101 4.16457Z" fill="#969595"/>
<path d="M25.4509 0.516787L25.1279 1.01768L25.22 1.07794L25.543 0.577048L25.4509 0.516787Z" fill="#969595"/>
</g>
<defs>
<clipPath id="clip0_2_615">
<rect width="83" height="37" fill="white"/>
</clipPath>
</defs>
</svg>
