<svg width="93" height="59" viewBox="0 0 93 59" fill="none" xmlns="http://www.w3.org/2000/svg">
<rect width="93" height="59" fill="#262626"/>
<g clip-path="url(#clip0_93_1348)">
<path d="M45.04 13.99C43.66 14.12 42.3 14.39 41.01 14.92C38.29 16.04 36.54 18.01 36.02 20.97C35.62 23.23 35.8 25.47 36.4 27.68C36.61 28.47 36.95 29.22 37.41 29.9C38.58 31.6 40.27 32.23 42.24 32.28C42.4 32.28 42.41 32.19 42.41 32.07C42.41 31.71 42.4 31.35 42.41 30.98C42.41 30.81 42.37 30.74 42.2 30.73C41.68 30.68 41.27 30.41 40.97 30C40.78 29.74 40.58 29.45 40.48 29.15C40.27 28.54 40.09 27.92 39.97 27.29C39.67 25.74 39.66 24.16 39.67 22.59C39.67 21.7 39.79 20.83 39.96 19.97C40.41 17.79 41.71 16.44 43.83 15.87C44.74 15.63 45.66 15.51 46.59 15.48C48.1 15.43 49.6 15.53 51.05 16.02C52.7 16.58 53.8 17.68 54.29 19.38C54.53 20.21 54.69 21.07 54.72 21.93C54.77 23.53 54.77 25.12 54.54 26.71C54.41 27.59 54.26 28.47 53.88 29.28C53.51 30.07 52.99 30.69 52 30.75C52 31.22 52 31.67 52 32.12C52 32.17 52.11 32.27 52.17 32.27C52.45 32.27 52.73 32.25 53.01 32.21C54.64 32.02 55.99 31.31 56.96 29.94C57.4 29.31 57.73 28.63 57.94 27.89C58.56 25.77 58.74 23.61 58.46 21.42C58.16 19.08 57.1 17.2 55.15 15.86C53.81 14.93 52.3 14.44 50.72 14.17C49.56 13.97 48.4 13.88 47.24 13.88C46.51 13.88 45.77 13.92 45.03 13.99" fill="white"/>
<path d="M42.88 9.21001C41.29 9.32001 39.71 9.56001 38.16 9.92001C35.91 10.44 33.77 11.23 31.83 12.52C28.63 14.64 26.84 17.63 26.47 21.49C26.35 22.74 26.38 23.99 26.48 25.24C26.61 26.81 26.86 28.34 27.36 29.84C28.04 31.86 29.13 33.6 30.85 34.88C33.03 36.51 35.56 36.94 38.19 37.01C38.32 37.01 38.36 36.95 38.36 36.82C38.36 36.16 38.36 35.5 38.36 34.84C38.36 34.73 38.33 34.67 38.2 34.66C36.93 34.63 35.98 34 35.25 32.98C34.77 32.29 34.45 31.52 34.21 30.72C33.78 29.28 33.55 27.81 33.45 26.31C33.31 24.15 33.23 21.99 33.55 19.83C33.7 18.85 33.94 17.89 34.31 16.97C35.16 14.86 36.71 13.52 38.76 12.7C40.69 11.92 42.71 11.61 44.77 11.48C46.98 11.34 49.18 11.37 51.38 11.66C52.96 11.87 54.5 12.22 55.96 12.88C58.06 13.82 59.49 15.37 60.22 17.58C60.53 18.52 60.73 19.49 60.84 20.48C61.04 22.37 60.99 24.27 60.87 26.16C60.77 27.65 60.55 29.13 60.14 30.57C59.84 31.6 59.44 32.57 58.73 33.39C58.04 34.18 57.19 34.62 56.14 34.65C55.97 34.65 55.95 34.73 55.95 34.87C55.95 35.5 55.95 36.13 55.95 36.76C55.95 36.97 56.03 37.02 56.21 37C57.22 36.89 58.25 36.86 59.24 36.67C62.86 35.96 65.39 33.89 66.74 30.39C67.3 28.95 67.6 27.45 67.76 25.92C67.95 24.07 68.01 22.22 67.69 20.37C67.26 17.92 66.2 15.8 64.42 14.07C62.82 12.52 60.93 11.47 58.86 10.71C56.9 10 54.87 9.59001 52.81 9.33001C50.93 9.10001 49.05 9.02001 46.62 8.99001C45.73 9.04001 44.31 9.10001 42.88 9.20001" fill="white"/>
<path d="M29.74 40.47V53.37H32.4V48.18H34.54L35.66 45.81H32.4V42.86H35.78L36.9 40.47H29.74Z" fill="white"/>
<path d="M19.24 45.44V53.37H26.06L27.3 50.92H22.17V40.47L19.24 45.44Z" fill="white"/>
<path d="M9 53.35L15.99 53.38L17.24 50.99L11.94 50.97L11.95 47.91L15.45 47.92L16.7 45.55L11.95 45.54L11.96 42.86L15.75 42.87L17 40.48L9.04 40.45L9 53.35Z" fill="white"/>
<path d="M48.55 22.19C48.35 22.38 48.18 22.55 48.01 22.72C47.62 23.1 47.18 23.21 46.76 23.02C46.3 22.82 46.01 22.35 46.02 21.83C46.02 21.54 46.14 21.29 46.34 21.09C47.44 20.05 48.54 19.01 49.66 17.99C50.01 17.67 50.51 17.81 50.69 18.26C50.77 18.48 50.83 18.72 50.83 18.95C50.83 23.06 50.83 27.17 50.83 31.27C50.83 31.69 50.73 32.09 50.32 32.28C49.87 32.49 49.4 32.49 48.96 32.22C48.71 32.07 48.62 31.8 48.59 31.51C48.57 31.31 48.58 31.1 48.58 30.9C48.58 28.06 48.58 25.22 48.58 22.38C48.58 22.33 48.57 22.27 48.56 22.19" fill="white"/>
<path d="M43.73 26.27C43.63 26.38 43.52 26.49 43.42 26.61C42.98 27.1 42.49 27.17 42.08 26.8C41.63 26.4 41.58 25.74 42.02 25.29C42.87 24.42 43.75 23.57 44.63 22.73C44.96 22.42 45.37 22.53 45.51 22.96C45.57 23.13 45.6 23.33 45.6 23.51C45.6 26.12 45.6 28.73 45.6 31.35C45.6 32.11 45.22 32.44 44.48 32.35C44.12 32.3 43.9 32.11 43.82 31.75C43.79 31.6 43.78 31.44 43.78 31.28C43.78 29.7 43.78 28.12 43.78 26.54V26.29C43.78 26.29 43.74 26.28 43.73 26.27Z" fill="white"/>
<path d="M61.02 49.62L56.24 40.47H52.83V53.37H55.39C55.39 51.26 55.39 43.86 55.39 43.86L60.44 53.37H63.5V40.47L61 45.44V49.62H61.02Z" fill="white"/>
<path d="M69.13 50.88L75.14 42.15V40.47H67.03L65.78 42.88H71.35V42.96L65.21 51.8V53.37H74L75.24 50.96H69.13V50.88Z" fill="white"/>
<path d="M80 50.97V47.91H83.51L84.75 45.54H80V42.86H83.79L85.04 40.47H77.08V53.37H84.06L85.31 50.97H80Z" fill="white"/>
<path d="M44.71 42.57C46.62 42.57 47.72 44.37 47.82 46.53H50.91C50.81 43.08 48.66 40.25 44.79 40.25C41.14 40.25 38.72 42.9 38.53 46.53H41.61C41.73 44.24 42.86 42.57 44.72 42.57" fill="white"/>
<path d="M44.73 51.26C42.87 51.26 41.7 49.64 41.6 47.3H38.52C38.63 50.84 40.85 53.58 44.58 53.58C48.31 53.58 50.7 51.22 50.9 47.3H47.82C47.7 49.59 46.59 51.26 44.73 51.26Z" fill="white"/>
</g>
<defs>
<clipPath id="clip0_93_1348">
<rect width="76.31" height="44.58" fill="white" transform="translate(9 9)"/>
</clipPath>
</defs>
</svg>
