<svg width="114" height="83" viewBox="0 0 114 83" fill="none" xmlns="http://www.w3.org/2000/svg">
<rect width="114" height="83" rx="7" fill="#1E1E1E"/>
<g clip-path="url(#clip0_114_107)">
<path d="M53.6169 11.4817C52.0568 11.6265 50.5332 11.9186 49.0773 12.5028C46.0118 13.7323 44.0428 15.8965 43.4516 19.1479C43.001 21.6272 43.2094 24.0937 43.8813 26.5195C44.1236 27.3934 44.496 28.2113 45.0247 28.9556C46.3478 30.8226 48.2465 31.5186 50.4655 31.577C50.6452 31.5821 50.6582 31.4754 50.6582 31.3433C50.653 30.9445 50.6426 30.5483 50.653 30.1494C50.6582 29.9666 50.6087 29.8878 50.4134 29.87C49.83 29.8141 49.369 29.5195 49.0304 29.0648C48.8142 28.7752 48.5955 28.4653 48.4783 28.13C48.2465 27.4619 48.0355 26.7812 47.9001 26.0902C47.5615 24.3832 47.5485 22.6534 47.5615 20.921C47.5693 19.9481 47.6917 18.9904 47.8922 18.0404C48.4027 15.645 49.8664 14.159 52.2574 13.5392C53.2809 13.2751 54.3175 13.1455 55.3697 13.1099C57.0783 13.0515 58.766 13.1684 60.4016 13.7069C62.2612 14.3191 63.5009 15.5282 64.0583 17.4028C64.3317 18.3198 64.5088 19.2572 64.5375 20.2097C64.5922 21.965 64.5974 23.7203 64.3343 25.4654C64.1885 26.4332 64.0192 27.3984 63.5895 28.29C63.1701 29.1562 62.5893 29.8421 61.4746 29.9081C61.4746 30.4314 61.4668 30.9217 61.4824 31.4119C61.4824 31.4703 61.6074 31.5745 61.6752 31.5745C61.9903 31.5694 62.3054 31.5491 62.618 31.5135C64.4568 31.3027 65.9726 30.5279 67.0638 29.0165C67.5613 28.3281 67.9285 27.5737 68.1707 26.7634C68.8687 24.4366 69.0667 22.0641 68.7515 19.656C68.4156 17.0853 67.2123 15.0176 65.0271 13.5443C63.5165 12.5257 61.8158 11.9821 60.0291 11.69C58.7243 11.4766 57.4142 11.375 56.1016 11.375C55.2733 11.375 54.4451 11.4156 53.6143 11.4918" fill="white"/>
<path d="M51.1895 6.22863C49.395 6.34548 47.6214 6.61474 45.8712 7.011C43.337 7.58254 40.9227 8.45128 38.7323 9.86616C35.1199 12.198 33.1066 15.4825 32.6899 19.7271C32.5545 21.1014 32.5909 22.4731 32.7055 23.8473C32.8462 25.567 33.1379 27.2613 33.703 28.8997C34.4687 31.1224 35.6929 33.0351 37.6306 34.4398C40.0918 36.2256 42.9359 36.7082 45.8998 36.7819C46.0483 36.7844 46.0952 36.7158 46.0952 36.5761C46.0925 35.8496 46.0925 35.1231 46.0952 34.3966C46.0952 34.2747 46.0639 34.2087 45.918 34.2036C44.483 34.1655 43.4125 33.4796 42.5973 32.3543C42.053 31.5999 41.6962 30.754 41.4279 29.8726C40.9461 28.2926 40.683 26.672 40.5737 25.0285C40.4148 22.6534 40.3262 20.2783 40.6909 17.9109C40.8575 16.8313 41.1258 15.7772 41.5451 14.7636C42.4984 12.4495 44.2564 10.9737 46.5614 10.0668C48.7361 9.21334 51.0176 8.87295 53.3304 8.72816C55.8151 8.57321 58.3024 8.60115 60.7766 8.92884C62.5529 9.16253 64.2901 9.5461 65.9387 10.265C68.3036 11.2988 69.921 12.9982 70.7362 15.4317C71.0852 16.4706 71.317 17.535 71.4342 18.6196C71.6634 20.6975 71.6061 22.783 71.468 24.8634C71.3586 26.5043 71.1112 28.13 70.645 29.7126C70.3116 30.8404 69.8584 31.9124 69.0589 32.8116C68.2853 33.6803 67.3191 34.1629 66.1445 34.201C65.9569 34.2061 65.9283 34.2874 65.9283 34.4373C65.9309 35.1282 65.9387 35.8217 65.9257 36.5126C65.9205 36.7387 66.0142 36.8022 66.2226 36.7793C67.3634 36.6625 68.5171 36.6295 69.6397 36.4161C73.7183 35.6413 76.5728 33.3552 78.0938 29.5093C78.7189 27.9294 79.0653 26.2833 79.245 24.5992C79.4638 22.562 79.5289 20.5298 79.1643 18.4977C78.6798 15.8 77.4896 13.4758 75.4789 11.5732C73.6766 9.86616 71.5409 8.71038 69.2099 7.88228C66.9987 7.09737 64.712 6.64776 62.3862 6.37088C60.2713 6.1194 58.1461 6.02542 55.4036 5.99493C54.4061 6.04828 52.7965 6.1194 51.1895 6.22355" fill="white"/>
<path d="M36.3752 40.5896V54.7689H39.373V49.0662H41.7795L43.0531 46.4599H39.373V43.2187H43.1781L44.4491 40.5896H36.3752Z" fill="white"/>
<path d="M24.5405 46.0535V54.7689H32.2211L33.6223 52.0763H27.8429V40.5896L24.5405 46.0535Z" fill="white"/>
<path d="M13 54.7536L20.8733 54.779L22.2824 52.1525L16.3077 52.1347L16.3207 48.7689L20.2691 48.7816L21.6781 46.178L16.3285 46.1602L16.3389 43.2161L20.6103 43.2288L22.0193 40.6023L13.0469 40.5743L13 54.7536Z" fill="white"/>
<path d="M57.5731 20.5044C57.3491 20.7152 57.1538 20.8981 56.9611 21.0836C56.5261 21.5002 56.0234 21.617 55.5468 21.4113C55.0311 21.1877 54.703 20.6721 54.7108 20.1081C54.716 19.7855 54.8462 19.5087 55.0754 19.2978C56.3177 18.1522 57.5575 17.0091 58.8207 15.8864C59.2191 15.5307 59.7843 15.6908 59.977 16.1887C60.0682 16.4249 60.1307 16.6891 60.1307 16.9431C60.1411 21.457 60.1385 25.9734 60.1385 30.4873C60.1385 30.9522 60.0239 31.3891 59.5629 31.5999C59.0551 31.8336 58.5211 31.8311 58.0289 31.5313C57.7476 31.3611 57.6434 31.0665 57.6122 30.7566C57.5913 30.533 57.5965 30.307 57.5965 30.0834C57.5965 26.9615 57.5939 23.8397 57.5913 20.7152C57.5913 20.6568 57.5783 20.5984 57.5679 20.5019" fill="white"/>
<path d="M52.1376 24.9853C52.023 25.1072 51.9058 25.2291 51.7912 25.3536C51.2937 25.8921 50.7468 25.9709 50.278 25.567C49.7727 25.1301 49.7154 24.3985 50.205 23.9108C51.1661 22.9532 52.1532 22.0209 53.1455 21.0963C53.5153 20.7534 53.9737 20.8804 54.1404 21.3528C54.2081 21.5459 54.2472 21.7567 54.2472 21.9599C54.255 24.8303 54.2576 27.7007 54.255 30.5737C54.255 31.4119 53.8253 31.7777 52.9892 31.671C52.5829 31.6202 52.3329 31.4069 52.2469 31.0131C52.2105 30.8455 52.2001 30.6702 52.1975 30.5C52.1948 28.7625 52.1975 27.0225 52.1975 25.285V25.0158C52.1766 25.0082 52.1558 25.0005 52.1349 24.9929" fill="white"/>
<path d="M71.6269 50.6462L66.2356 40.5896H62.3966V54.7689H65.2798C65.2798 52.4548 65.285 44.3135 65.285 44.3135L70.9784 54.7689H74.4293V40.5896L71.6165 46.0535L71.6243 50.6436L71.6269 50.6462Z" fill="white"/>
<path d="M80.7712 52.0331L87.5455 42.4414V40.5896H78.3985L76.9973 43.239H83.2741V43.3254L76.3514 53.0441V54.7689H86.2537L87.6523 52.1169H80.7712V52.0331Z" fill="white"/>
<path d="M93.0227 52.1398V48.774H96.9737L98.3723 46.1653H93.0227V43.2187H97.2967L98.6979 40.5896H89.7228V54.7689H97.5988L99 52.1398H93.0227Z" fill="white"/>
<path d="M53.2497 42.9037C55.401 42.9037 56.6355 44.8774 56.7553 47.2575H60.2323C60.1203 43.4676 57.6955 40.3584 53.3356 40.3584C49.2231 40.3584 46.4989 43.2745 46.2775 47.2575H49.7466C49.8847 44.7377 51.1531 42.9037 53.2497 42.9037Z" fill="white"/>
<path d="M53.2731 52.4548C51.1739 52.4548 49.8612 50.6741 49.744 48.1009H46.267C46.3947 51.9874 48.8976 55 53.0986 55C57.2996 55 59.9927 52.409 60.2219 48.1009H56.7527C56.6173 50.6207 55.3671 52.4548 53.2705 52.4548" fill="white"/>
</g>
<g clip-path="url(#clip1_114_107)">
<path d="M13.6614 62.1211H14.1561L13.4948 66.9121H13L13.6614 62.1211Z" fill="#D1D1D1"/>
<path d="M18.6115 62.1211H19.0886L18.4272 66.9121H18.3212L15.5773 63.2157L15.0623 66.9121H14.5777L15.239 62.1211H15.3451L18.0965 65.8225L18.6115 62.1211Z" fill="#D1D1D1"/>
<path d="M24.175 62.1211L25.8158 66.9121H25.3135L24.7783 65.3456H22.7034L21.7871 66.9121H21.2418L24.0614 62.1211H24.175ZM24.021 63.1243L22.9785 64.8909H24.6244L24.021 63.1243Z" fill="#D1D1D1"/>
<path d="M28.6885 62.1211H29.163L29.8421 65.6816L31.7378 62.1211H31.8312L32.6895 65.6816L34.4186 62.1211H34.9335L32.5961 66.9121H32.5052L31.6419 63.3022L29.6906 66.9121H29.5997L28.6885 62.1211Z" fill="#D1D1D1"/>
<path d="M37.993 62C38.6518 62 39.1996 62.2125 39.6388 62.635C40.078 63.0575 40.2951 63.5937 40.2951 64.2411C40.2951 65.0293 40.0175 65.6915 39.4621 66.2277C38.9068 66.7639 38.2126 67.0332 37.3846 67.0332C36.6804 67.0332 36.1149 66.8281 35.6908 66.413C35.2668 66.0004 35.0547 65.4617 35.0547 64.7946C35.0547 64.2806 35.1809 63.8062 35.4359 63.3763C35.6908 62.9463 36.0417 62.6103 36.491 62.3657C36.9404 62.1211 37.4402 62 37.993 62ZM37.9829 62.4497C37.5159 62.4497 37.0969 62.5485 36.7308 62.7487C36.3623 62.9488 36.072 63.233 35.86 63.5987C35.6454 63.9668 35.5394 64.3572 35.5394 64.7723C35.5394 65.1232 35.6176 65.4395 35.7716 65.7187C35.9256 65.9979 36.1402 66.2104 36.4153 66.3586C36.6879 66.5069 37.011 66.581 37.3821 66.581C37.8213 66.581 38.2277 66.4772 38.6039 66.2697C38.98 66.0621 39.2728 65.7755 39.4874 65.4049C39.7019 65.0367 39.8079 64.6389 39.8079 64.209C39.8079 63.6431 39.606 63.191 39.1996 62.8599C38.8613 62.5831 38.4575 62.4448 37.9854 62.4448L37.9829 62.4497Z" fill="#D1D1D1"/>
<path d="M41.6557 62.1211H42.8851C43.3218 62.1211 43.6348 62.1606 43.8241 62.2422C44.0134 62.3237 44.1674 62.4547 44.2835 62.6326C44.4022 62.8105 44.4602 63.0205 44.4602 63.2552C44.4602 63.5147 44.3895 63.7543 44.2532 63.9743C44.1144 64.1966 43.9251 64.3622 43.6853 64.4734C43.4454 64.5846 43.1299 64.6414 42.7386 64.6414L44.2179 66.9097H43.6625L42.1884 64.6414H41.7996L41.4866 66.9097H40.9918L41.6557 62.1211ZM42.0874 62.5831L41.8678 64.1769H42.4307C42.8472 64.1769 43.1198 64.1596 43.2486 64.1274C43.4631 64.0756 43.6373 63.9743 43.7686 63.8211C43.8998 63.6679 43.9655 63.4801 43.9655 63.2602C43.9655 63.0106 43.8746 62.8302 43.6903 62.7166C43.5489 62.6276 43.294 62.5831 42.9254 62.5831H42.0874Z" fill="#D1D1D1"/>
<path d="M45.7072 62.1211H46.1994L45.5961 66.46H47.7115L47.656 66.9121H45.0458L45.7072 62.1211Z" fill="#D1D1D1"/>
<path d="M48.8348 62.1211H49.8824C50.5463 62.1211 51.0537 62.2051 51.4071 62.3756C51.7605 62.5461 52.0457 62.8104 52.2628 63.1662C52.4799 63.5245 52.5884 63.9322 52.5884 64.3893C52.5884 64.8786 52.4647 65.3307 52.2199 65.7434C51.975 66.1585 51.6721 66.455 51.3137 66.6378C50.9552 66.8182 50.4201 66.9096 49.7107 66.9096H48.1709L48.8323 62.1186L48.8348 62.1211ZM49.2564 62.5831L48.7212 66.4476H49.1503C49.8117 66.4476 50.2484 66.4303 50.4655 66.3957C50.7937 66.3438 51.0688 66.24 51.2935 66.0868C51.5181 65.9336 51.71 65.7038 51.869 65.3999C52.028 65.096 52.1088 64.7624 52.1088 64.4017C52.1088 64.0212 52.0179 63.6901 51.8387 63.4034C51.6595 63.1193 51.4121 62.9068 51.0991 62.766C50.8315 62.6449 50.3797 62.5831 49.7435 62.5831H49.2564Z" fill="#D1D1D1"/>
<path d="M58.1595 62C58.8184 62 59.3661 62.2125 59.8054 62.635C60.2446 63.0575 60.4617 63.5937 60.4617 64.2411C60.4617 65.0293 60.184 65.6915 59.6287 66.2277C59.0733 66.7639 58.3791 67.0332 57.5512 67.0332C56.8469 67.0332 56.2815 66.8281 55.8574 66.413C55.4333 66.0004 55.2213 65.4617 55.2213 64.7946C55.2213 64.2806 55.3475 63.8062 55.6024 63.3763C55.8574 62.9463 56.2083 62.6103 56.6576 62.3657C57.1069 62.1211 57.6067 62 58.1595 62ZM58.1494 62.4497C57.6824 62.4497 57.2634 62.5485 56.8974 62.7487C56.5288 62.9488 56.2385 63.233 56.0265 63.5987C55.8119 63.9668 55.7059 64.3572 55.7059 64.7723C55.7059 65.1232 55.7842 65.4395 55.9382 65.7187C56.0921 65.9979 56.3067 66.2104 56.5818 66.3586C56.8545 66.5069 57.1776 66.581 57.5487 66.581C57.9879 66.581 58.3943 66.4772 58.7704 66.2697C59.1465 66.0621 59.4393 65.7755 59.6539 65.4049C59.8685 65.0367 59.9745 64.6389 59.9745 64.209C59.9745 63.6431 59.7725 63.191 59.3661 62.8599C59.0279 62.5831 58.624 62.4448 58.152 62.4448L58.1494 62.4497Z" fill="#D1D1D1"/>
<path d="M64.079 62.1211L64.0184 62.5906H62.1429L61.9258 64.1571H63.8013L63.7407 64.6167H61.8601L61.5421 66.9121H61.0599L61.7213 62.1211H64.0765H64.079Z" fill="#D1D1D1"/>
<path d="M70.7482 66.2326L71.5837 67.1048H70.9627L70.3998 66.5192C69.9025 66.8627 69.327 67.0332 68.6732 67.0332C67.9689 67.0332 67.4035 66.8281 66.9794 66.413C66.5553 66.0004 66.3433 65.4617 66.3433 64.7946C66.3433 64.2831 66.4695 63.8112 66.7219 63.3837C66.9743 62.9538 67.3252 62.6177 67.7745 62.3706C68.2239 62.1235 68.7136 62 69.2437 62C69.9252 62 70.4856 62.2125 70.9249 62.635C71.3666 63.0575 71.5862 63.5937 71.5862 64.2436C71.5862 65.0268 71.306 65.689 70.7482 66.2351V66.2326ZM70.415 65.8867C70.6295 65.6693 70.7961 65.4148 70.9173 65.1232C71.0385 64.8316 71.0965 64.5277 71.0965 64.2139C71.0965 63.6975 70.9223 63.2725 70.5765 62.9439C70.2307 62.6152 69.7788 62.4497 69.221 62.4497C68.7843 62.4497 68.3804 62.551 68.0118 62.7561C67.6433 62.9612 67.353 63.2453 67.1409 63.6085C66.9289 63.9718 66.8254 64.3622 66.8254 64.7748C66.8254 65.1257 66.9037 65.4419 67.0576 65.7211C67.2116 66.0004 67.4262 66.2128 67.7013 66.3611C67.974 66.5094 68.2971 66.5835 68.6656 66.5835C69.1755 66.5835 69.6425 66.4451 70.0641 66.1708L69.2462 65.3209H69.8722L70.415 65.8867Z" fill="#D1D1D1"/>
<path d="M72.8256 62.1211H73.3078L72.9216 64.8637C72.8711 65.2294 72.8433 65.4889 72.8433 65.6421C72.8433 65.941 72.9291 66.1733 73.1008 66.3339C73.2724 66.4945 73.5148 66.5761 73.8278 66.5761C74.0474 66.5761 74.2418 66.539 74.4109 66.4649C74.58 66.3907 74.7264 66.2845 74.8451 66.1437C74.9662 66.0028 75.0521 65.8397 75.1026 65.6569C75.1909 65.3357 75.2666 64.9329 75.3323 64.4412L75.6478 62.1186H76.1299L75.7967 64.5376L75.716 65.1306C75.6705 65.4073 75.615 65.6421 75.5494 65.8348C75.4862 66.03 75.4004 66.2005 75.2995 66.3512C75.196 66.5019 75.0798 66.623 74.9486 66.7194C74.8173 66.8157 74.6583 66.8899 74.4715 66.9467C74.2847 67.001 74.0752 67.0307 73.8429 67.0307C73.3684 67.0307 72.9998 66.9121 72.7423 66.6724C72.4849 66.4327 72.3536 66.1165 72.3536 65.7211C72.3536 65.6099 72.3612 65.4864 72.3738 65.3505L72.4521 64.7896L72.8282 62.1186L72.8256 62.1211Z" fill="#D1D1D1"/>
<path d="M79.3282 62.1211L80.969 66.9121H80.4667L79.9315 65.3456H77.8566L76.9402 66.9121H76.395L79.2146 62.1211H79.3282ZM79.1742 63.1243L78.1317 64.8909H79.7775L79.1742 63.1243Z" fill="#D1D1D1"/>
<path d="M85.7374 62.1211H86.2145L85.5531 66.9121H85.4471L82.7032 63.2157L82.1882 66.9121H81.7036L82.3649 62.1211H82.471L85.2224 65.8225L85.7374 62.1211Z" fill="#D1D1D1"/>
<path d="M86.8203 62.1211H89.746L89.6828 62.5733H88.4485L87.8502 66.9121H87.3555L87.9537 62.5733H86.7547L86.8178 62.1211H86.8203Z" fill="#D1D1D1"/>
<path d="M90.271 62.1211H90.7658L90.1044 66.9121H89.6096L90.271 62.1211Z" fill="#D1D1D1"/>
<path d="M91.2631 62.1211H94.1887L94.1256 62.5733H92.8912L92.293 66.9121H91.7982L92.3965 62.5733H91.1974L91.2605 62.1211H91.2631Z" fill="#D1D1D1"/>
<path d="M94.1988 62.1211H94.7137L95.7613 64.2955L97.5258 62.1211H98.1215L95.9532 64.7847L95.6553 66.9146H95.1757L95.4736 64.7649L94.2013 62.1236L94.1988 62.1211Z" fill="#D1D1D1"/>
<path d="M98.5759 66.0325L98.9975 66.24L98.1443 67.4656L97.8313 67.3322L98.5734 66.0325H98.5759Z" fill="#D1D1D1"/>
<path d="M13 71.0162H13.4746L14.1536 74.5768L16.0493 71.0162H16.1427L17.001 74.5768L18.7327 71.0162H19.2476L16.9101 75.8073H16.8192L15.9559 72.1973L14.0047 75.8073H13.9138L13 71.0162Z" fill="#D1D1D1"/>
<path d="M22.6377 71.0162L22.5671 71.4808H20.3734L20.1564 73.0498H22.35L22.2869 73.5094H20.0933L19.8383 75.3477H22.0344L21.9789 75.8073H19.283L19.9443 71.0162H22.6377Z" fill="#D1D1D1"/>
<path d="M27.8453 70.8951C28.5042 70.8951 29.052 71.1076 29.4912 71.5302C29.9304 71.9527 30.1475 72.4889 30.1475 73.1362C30.1475 73.9244 29.8698 74.5866 29.3145 75.1228C28.7591 75.659 28.065 75.9283 27.237 75.9283C26.5327 75.9283 25.9673 75.7232 25.5432 75.3081C25.1191 74.8955 24.9071 74.3568 24.9071 73.6897C24.9071 73.1758 25.0333 72.7014 25.2882 72.2714C25.5432 71.8415 25.8941 71.5054 26.3434 71.2608C26.7927 71.0162 27.2925 70.8951 27.8453 70.8951ZM27.8352 71.3448C27.3683 71.3448 26.9492 71.4437 26.5832 71.6438C26.2147 71.844 25.9244 72.1281 25.7123 72.4938C25.4978 72.862 25.3917 73.2524 25.3917 73.6675C25.3917 74.0183 25.47 74.3346 25.624 74.6138C25.778 74.893 25.995 75.1055 26.2677 75.2538C26.5428 75.402 26.8634 75.4762 27.2345 75.4762C27.6737 75.4762 28.0801 75.3724 28.4562 75.1648C28.8323 74.9573 29.1252 74.6706 29.3397 74.3C29.5543 73.9319 29.6603 73.534 29.6603 73.1041C29.6603 72.5383 29.4584 72.0861 29.052 71.755C28.7137 71.4783 28.3098 71.3399 27.8378 71.3399L27.8352 71.3448Z" fill="#D1D1D1"/>
<path d="M33.7673 71.0162L33.7067 71.4857H31.8312L31.6141 73.0522H33.4897L33.4291 73.5118H31.5485L31.2304 75.8073H30.7483L31.4096 71.0162H33.7648H33.7673Z" fill="#D1D1D1"/>
<path d="M37.0716 71.0162L37.011 71.4857H35.1355L34.9184 73.0522H36.7939L36.7334 73.5118H34.8528L34.5347 75.8073H34.0526L34.7139 71.0162H37.0691H37.0716Z" fill="#D1D1D1"/>
<path d="M40.7116 71.0162L40.641 71.4808H38.4474L38.2303 73.0498H40.4239L40.3608 73.5094H38.1672L37.9122 75.3477H40.1083L40.0528 75.8073H37.3569L38.0182 71.0162H40.7116Z" fill="#D1D1D1"/>
<path d="M41.7718 71.0162H43.0012C43.4379 71.0162 43.7509 71.0557 43.9402 71.1373C44.1295 71.2188 44.281 71.3498 44.3996 71.5277C44.5183 71.7056 44.5763 71.9156 44.5763 72.1503C44.5763 72.4098 44.5082 72.6495 44.3693 72.8694C44.2305 73.0917 44.0412 73.2573 43.8014 73.3685C43.5616 73.4797 43.246 73.5365 42.8548 73.5365L44.334 75.8048H43.7787L42.3045 73.5365H41.9157L41.6027 75.8048H41.108L41.7693 71.0137L41.7718 71.0162ZM42.2035 71.4783L41.9839 73.072H42.5468C42.9633 73.072 43.2359 73.0547 43.3647 73.0226C43.5792 72.9707 43.7534 72.8694 43.8847 72.7162C44.0159 72.563 44.0841 72.3752 44.0841 72.1553C44.0841 71.9057 43.9907 71.7253 43.8089 71.6117C43.6676 71.5227 43.4126 71.4783 43.0441 71.4783H42.206H42.2035Z" fill="#D1D1D1"/>
<path d="M51.5282 75.1278L52.3638 76H51.7428L51.1799 75.4144C50.6826 75.7578 50.107 75.9283 49.4533 75.9283C48.749 75.9283 48.1835 75.7232 47.7595 75.3081C47.3354 74.8955 47.1233 74.3568 47.1233 73.6897C47.1233 73.1782 47.2496 72.7063 47.502 72.2788C47.7544 71.8489 48.1053 71.5129 48.5546 71.2658C49.0039 71.0187 49.4936 70.8951 50.0237 70.8951C50.7053 70.8951 51.2657 71.1076 51.7049 71.5302C52.1467 71.9527 52.3663 72.4889 52.3663 73.1387C52.3663 73.922 52.0861 74.5842 51.5282 75.1302V75.1278ZM51.195 74.7818C51.4096 74.5644 51.5762 74.3099 51.6974 74.0183C51.8185 73.7268 51.8766 73.4229 51.8766 73.109C51.8766 72.5926 51.7024 72.1676 51.3566 71.839C51.0107 71.5104 50.5589 71.3448 50.001 71.3448C49.5643 71.3448 49.1604 71.4461 48.7919 71.6512C48.4233 71.8563 48.1331 72.1405 47.921 72.5037C47.709 72.8669 47.6055 73.2573 47.6055 73.6699C47.6055 74.0208 47.6837 74.3371 47.8377 74.6163C47.9917 74.8955 48.2063 75.108 48.4814 75.2562C48.754 75.4045 49.0771 75.4786 49.4457 75.4786C49.9556 75.4786 50.4226 75.3403 50.8441 75.066L50.0263 74.216H50.6523L51.195 74.7818Z" fill="#D1D1D1"/>
<path d="M53.6057 71.0162H54.0879L53.7016 73.7589C53.6512 74.1246 53.6234 74.384 53.6234 74.5372C53.6234 74.8362 53.7092 75.0684 53.8809 75.2291C54.0525 75.3897 54.2948 75.4712 54.6079 75.4712C54.8275 75.4712 55.0218 75.4341 55.191 75.36C55.3601 75.2859 55.5065 75.1796 55.6251 75.0388C55.7463 74.898 55.8321 74.7349 55.8826 74.552C55.971 74.2308 56.0467 73.8281 56.1123 73.3364L56.4279 71.0137H56.91L56.5768 73.4327L56.496 74.0257C56.4506 74.3025 56.395 74.5372 56.3294 74.7299C56.2663 74.9251 56.1805 75.0956 56.0795 75.2463C55.976 75.3971 55.8599 75.5181 55.7286 75.6145C55.5974 75.7109 55.4383 75.785 55.2515 75.8418C55.0648 75.8962 54.8552 75.9258 54.623 75.9258C54.1484 75.9258 53.7799 75.8072 53.5224 75.5676C53.2649 75.3279 53.1337 75.0116 53.1337 74.6163C53.1337 74.5051 53.1412 74.3815 53.1539 74.2456L53.2321 73.6848L53.6082 71.0137L53.6057 71.0162Z" fill="#D1D1D1"/>
<path d="M60.1108 71.0162L61.7516 75.8073H61.2493L60.7141 74.2407H58.6391L57.7228 75.8073H57.1776L59.9972 71.0162H60.1108ZM59.9543 72.0194L58.9118 73.7861H60.5576L59.9543 72.0194Z" fill="#D1D1D1"/>
<path d="M63.15 71.0162H63.6423L63.039 75.3551H65.1543L65.0988 75.8073H62.4887L63.15 71.0162Z" fill="#D1D1D1"/>
<path d="M66.2549 71.0162H66.7497L66.0883 75.8073H65.5936L66.2549 71.0162Z" fill="#D1D1D1"/>
<path d="M67.2495 71.0162H70.1751L70.112 71.4684H68.8777L68.2794 75.8073H67.7846L68.3829 71.4684H67.1839L67.247 71.0162H67.2495Z" fill="#D1D1D1"/>
<path d="M70.1827 71.0162H70.6977L71.7453 73.1906L73.5097 71.0162H74.1055L71.9371 73.6798L71.6392 75.8097H71.1596L71.4575 73.6601L70.1852 71.0187L70.1827 71.0162Z" fill="#D1D1D1"/>
<path d="M74.5472 75.103C74.6608 75.103 74.7567 75.1426 74.835 75.2192C74.9132 75.2982 74.9536 75.3896 74.9536 75.4984C74.9536 75.6071 74.9132 75.701 74.835 75.7776C74.7567 75.8566 74.6608 75.8937 74.5472 75.8937C74.4336 75.8937 74.3377 75.8542 74.2594 75.7776C74.1812 75.6985 74.1408 75.6071 74.1408 75.4984C74.1408 75.3896 74.1812 75.2958 74.2594 75.2192C74.3377 75.1401 74.4336 75.103 74.5472 75.103Z" fill="#D1D1D1"/>
</g>
<defs>
<clipPath id="clip0_114_107">
<rect width="86" height="49" fill="white" transform="translate(13 6)"/>
</clipPath>
<clipPath id="clip1_114_107">
<rect width="86" height="14" fill="white" transform="translate(13 62)"/>
</clipPath>
</defs>
</svg>
