<svg width="53" height="90" viewBox="0 0 53 90" fill="none" xmlns="http://www.w3.org/2000/svg">
<g clip-path="url(#clip0_2_681)">
<path d="M0 0V75.79L26.39 90L52.79 75.79V0H0Z" fill="#002171"/>
<path d="M49.8 80.43H49.28V81.56H48.81V80.43H48.3V79.98H49.8V80.43ZM51.89 81.55H51.42V80.9L51.06 81.54H50.85L50.49 80.9V81.55H50.02V79.97H50.42L50.95 80.93L51.48 79.97H51.88V81.55H51.89Z" fill="white"/>
<path d="M52.79 0H0V52.79H52.79V0Z" fill="#FF1628"/>
<path d="M13.13 8.16V8.87C13.13 10.19 12.71 11.27 11.86 12.09C11.01 12.91 9.91 13.32 8.58 13.32C7.15 13.32 5.96 12.86 5.02 11.93C4.08 10.99 3.62 9.85 3.62 8.52C3.62 7.19 4.08 6.03 5.01 5.09C5.95 4.15 7.09999 3.69 8.47999 3.69C10.21 3.69 11.72 4.54 12.52 5.85L10.96 6.75C10.52 6 9.57 5.47 8.47 5.47C7.58 5.47 6.86 5.76 6.29 6.34C5.72 6.91 5.44 7.64 5.44 8.52C5.44 9.4 5.73 10.12 6.3 10.69C6.88 11.26 7.65 11.54 8.6 11.54C10.02 11.54 10.97 10.88 11.3 9.78H8.49V8.17H13.14L13.13 8.16Z" fill="white"/>
<path d="M15.87 7.66C16.17 6.81 16.93 6.39 17.78 6.39V8.3C17.29 8.23 16.84 8.34 16.45 8.62C16.06 8.9 15.87 9.35 15.87 9.98V13.14H14.25V6.52H15.87V7.66Z" fill="white"/>
<path d="M20.52 10.53C20.75 11.36 21.37 11.77 22.39 11.77C23.04 11.77 23.54 11.54 23.87 11.11L25.25 11.9C24.6 12.84 23.64 13.32 22.36 13.32C21.26 13.32 20.39 12.99 19.73 12.33C19.07 11.67 18.74 10.83 18.74 9.83C18.74 8.83 19.07 8 19.72 7.34C20.37 6.66 21.22 6.33 22.23 6.33C23.2 6.33 24 6.66 24.63 7.34C25.27 8.02 25.58 8.84 25.58 9.83C25.58 10.06 25.55 10.28 25.51 10.53H20.52ZM23.87 9.2C23.67 8.3 23.01 7.86 22.23 7.86C21.32 7.86 20.69 8.35 20.5 9.2H23.87Z" fill="white"/>
<path d="M31.73 6.52H33.44V13.14H31.73V12.36C31.21 13.01 30.5 13.33 29.57 13.33C28.64 13.33 27.93 13 27.29 12.32C26.67 11.65 26.35 10.81 26.35 9.83C26.35 8.85 26.67 8.03 27.29 7.36C27.93 6.69 28.68 6.34 29.57 6.34C30.46 6.34 31.21 6.66 31.73 7.31V6.53V6.52ZM29.89 11.69C30.42 11.69 30.86 11.52 31.2 11.17C31.56 10.81 31.73 10.36 31.73 9.82C31.73 9.28 31.56 8.83 31.2 8.48C30.86 8.12 30.42 7.95 29.89 7.95C29.36 7.95 28.92 8.12 28.58 8.48C28.24 8.82 28.06 9.27 28.06 9.82C28.06 10.37 28.23 10.81 28.58 11.17C28.92 11.51 29.36 11.69 29.89 11.69Z" fill="white"/>
<path d="M39.04 8.16H37.54V10.91C37.54 11.62 38.06 11.64 39.04 11.58V13.13C36.7 13.39 35.84 12.72 35.84 10.91V8.16H34.69V6.52H35.84V5.18L37.55 4.66V6.51H39.05V8.15L39.04 8.16Z" fill="white"/>
<path d="M8.28999 15.51C9.17999 15.51 9.92999 15.81 10.54 16.41C11.15 17.01 11.45 17.75 11.45 18.62C11.45 19.49 11.15 20.23 10.54 20.83C9.92999 21.43 9.17999 21.73 8.28999 21.73H6.65999V24.77H4.82999V15.5H8.27999L8.28999 15.51ZM8.28999 20.02C9.06999 20.02 9.63999 19.41 9.63999 18.62C9.63999 17.83 9.06999 17.22 8.28999 17.22H6.65999V20.03H8.28999V20.02Z" fill="white"/>
<path d="M14.41 15.59H12.7V24.77H14.41V15.59Z" fill="white"/>
<path d="M21.26 18.15H22.97V24.77H21.26V23.99C20.74 24.64 20.03 24.96 19.1 24.96C18.17 24.96 17.46 24.63 16.82 23.95C16.2 23.27 15.88 22.44 15.88 21.46C15.88 20.48 16.2 19.66 16.82 18.98C17.46 18.3 18.21 17.96 19.1 17.96C19.99 17.96 20.74 18.28 21.26 18.93V18.15ZM19.42 23.33C19.95 23.33 20.39 23.16 20.73 22.81C21.09 22.45 21.26 22 21.26 21.46C21.26 20.92 21.09 20.47 20.73 20.12C20.39 19.76 19.95 19.59 19.42 19.59C18.89 19.59 18.45 19.76 18.11 20.12C17.77 20.46 17.59 20.91 17.59 21.46C17.59 22.01 17.76 22.45 18.11 22.81C18.45 23.15 18.89 23.33 19.42 23.33Z" fill="white"/>
<path d="M25.43 23.95C24.77 23.27 24.44 22.45 24.44 21.46C24.44 20.47 24.77 19.65 25.43 18.97C26.11 18.29 26.94 17.96 27.93 17.96C29.21 17.96 30.35 18.62 30.89 19.67L29.42 20.53C29.16 19.99 28.59 19.64 27.91 19.64C26.89 19.64 26.14 20.39 26.14 21.45C26.14 21.97 26.31 22.4 26.64 22.75C26.97 23.08 27.39 23.25 27.91 23.25C28.6 23.25 29.17 22.92 29.43 22.38L30.91 23.23C30.33 24.28 29.2 24.95 27.92 24.95C26.93 24.95 26.09 24.62 25.42 23.94" fill="white"/>
<path d="M33.65 22.16C33.87 22.99 34.5 23.4 35.52 23.4C36.17 23.4 36.67 23.17 37 22.74L38.38 23.53C37.73 24.47 36.77 24.95 35.49 24.95C34.39 24.95 33.52 24.62 32.86 23.96C32.2 23.3 31.87 22.46 31.87 21.46C31.87 20.46 32.2 19.63 32.85 18.97C33.5 18.29 34.35 17.96 35.36 17.96C36.33 17.96 37.13 18.29 37.76 18.97C38.4 19.65 38.71 20.47 38.71 21.46C38.71 21.69 38.68 21.91 38.64 22.16H33.65ZM37 20.84C36.8 19.94 36.14 19.5 35.36 19.5C34.45 19.5 33.82 19.99 33.63 20.84H37Z" fill="white"/>
<path d="M10.43 27.61V29.27H7.93V36.41H6.11V29.27H3.62V27.61H10.43Z" fill="white"/>
<path d="M13.28 36.59C12.3 36.59 11.47 36.26 10.79 35.58C10.12 34.91 9.78 34.07 9.78 33.09C9.78 32.11 10.11 31.29 10.79 30.61C11.47 29.93 12.3 29.59 13.28 29.59C14.26 29.59 15.09 29.93 15.77 30.61C16.44 31.29 16.79 32.11 16.79 33.09C16.79 34.07 16.45 34.9 15.77 35.58C15.1 36.25 14.26 36.59 13.28 36.59ZM13.28 34.93C13.8 34.93 14.22 34.76 14.56 34.41C14.9 34.07 15.08 33.63 15.08 33.1C15.08 32.57 14.91 32.13 14.56 31.79C14.22 31.45 13.79 31.27 13.28 31.27C12.77 31.27 12.34 31.44 12 31.79C11.67 32.13 11.5 32.57 11.5 33.1C11.5 33.63 11.67 34.07 12 34.41C12.34 34.75 12.77 34.93 13.28 34.93Z" fill="white"/>
<path d="M6.46 48.59L3.87 39.32H5.79L7.56 46.19L9.49 39.32H11.05L13 46.19L14.77 39.32H16.69L14.1 48.59H12.02L10.27 42.47L8.54 48.59H6.46Z" fill="white"/>
<path d="M20.03 48.77C19.05 48.77 18.22 48.44 17.54 47.76C16.86 47.08 16.53 46.25 16.53 45.27C16.53 44.29 16.86 43.47 17.54 42.79C18.22 42.12 19.05 41.77 20.03 41.77C21.01 41.77 21.84 42.11 22.52 42.79C23.2 43.46 23.54 44.29 23.54 45.27C23.54 46.25 23.2 47.08 22.52 47.76C21.84 48.43 21.01 48.77 20.03 48.77ZM20.03 47.1C20.55 47.1 20.97 46.93 21.31 46.58C21.65 46.24 21.83 45.8 21.83 45.27C21.83 44.74 21.66 44.3 21.31 43.96C20.97 43.62 20.54 43.44 20.03 43.44C19.52 43.44 19.09 43.61 18.75 43.96C18.42 44.3 18.25 44.74 18.25 45.27C18.25 45.8 18.42 46.24 18.75 46.58C19.09 46.92 19.52 47.1 20.03 47.1Z" fill="white"/>
<path d="M26.45 43.11C26.77 42.26 27.56 41.84 28.46 41.84V43.75C27.94 43.68 27.47 43.79 27.06 44.07C26.65 44.35 26.45 44.8 26.45 45.43V48.59H24.74V41.97H26.45V43.11Z" fill="white"/>
<path d="M35.82 48.59H33.83L31.43 45.58V48.59H29.72V39.32H31.43V44.88L33.7 41.97H35.74L33.08 45.24L35.82 48.59Z" fill="white"/>
<path d="M36.44 47.39C36.44 46.56 37.1 45.89 37.94 45.89C38.78 45.89 39.44 46.55 39.44 47.38C39.44 48.21 38.78 48.87 37.94 48.87C37.1 48.87 36.44 48.23 36.44 47.39ZM39.17 47.39C39.17 46.65 38.66 46.14 37.94 46.14C37.22 46.14 36.71 46.66 36.71 47.39C36.71 48.12 37.25 48.63 37.94 48.63C38.63 48.63 39.17 48.12 39.17 47.38M37.43 46.63H37.95C38.29 46.63 38.52 46.77 38.52 47.07C38.52 47.3 38.39 47.42 38.22 47.47L38.61 48.1H38.27L37.91 47.53H37.75V48.1H37.43V46.62V46.63ZM37.94 47.31C38.11 47.31 38.2 47.24 38.2 47.09C38.2 46.93 38.11 46.87 37.94 46.87H37.75V47.3H37.94V47.31Z" fill="white"/>
<path d="M7.35001 59.89C7.35001 57.91 8.82001 56.38 10.86 56.38C12.09 56.38 13.18 57.01 13.76 57.97L12.61 58.64C12.28 58.04 11.63 57.68 10.85 57.68C9.53001 57.68 8.66001 58.6 8.66001 59.9C8.66001 61.2 9.53001 62.11 10.85 62.11C11.62 62.11 12.29 61.74 12.61 61.16L13.76 61.83C13.19 62.79 12.1 63.42 10.86 63.42C8.82001 63.42 7.35001 61.88 7.35001 59.91V59.89Z" fill="white"/>
<path d="M16.69 62.28C17.17 62.28 17.56 62.08 17.77 61.8L18.77 62.38C18.32 63.04 17.59 63.41 16.67 63.41C15.05 63.41 14.03 62.3 14.03 60.86C14.03 59.42 15.06 58.31 16.58 58.31C18.01 58.31 19.02 59.44 19.02 60.86C19.02 61.04 19 61.21 18.97 61.37H15.33C15.5 62.01 16.03 62.28 16.69 62.28ZM17.77 60.41C17.62 59.72 17.09 59.44 16.57 59.44C15.9 59.44 15.45 59.8 15.31 60.41H17.77Z" fill="white"/>
<path d="M22.35 58.35V59.74C21.7 59.66 20.88 59.95 20.88 60.96V63.26H19.64V58.44H20.88V59.27C21.13 58.61 21.74 58.34 22.35 58.34V58.35Z" fill="white"/>
<path d="M25.02 59.64V61.65C25.02 62.17 25.4 62.18 26.11 62.14V63.27C24.36 63.46 23.78 62.95 23.78 61.65V59.64H22.94V58.44H23.78V57.47L25.02 57.09V58.44H26.11V59.64H25.02Z" fill="white"/>
<path d="M26.89 57.11C26.89 56.7 27.24 56.34 27.65 56.34C28.06 56.34 28.42 56.7 28.42 57.11C28.42 57.52 28.07 57.87 27.65 57.87C27.23 57.87 26.89 57.52 26.89 57.11ZM27.04 58.45H28.28V63.27H27.04V58.45Z" fill="white"/>
<path d="M31.01 58.4V58.45H32.03V59.65H31.01V63.28H29.77V59.65H29.08V58.45H29.77V58.4C29.77 57.07 30.5 56.29 32.04 56.38V57.58C31.39 57.53 31.02 57.74 31.02 58.4H31.01Z" fill="white"/>
<path d="M32.67 57.11C32.67 56.7 33.02 56.34 33.43 56.34C33.84 56.34 34.2 56.7 34.2 57.11C34.2 57.52 33.85 57.87 33.43 57.87C33.01 57.87 32.67 57.52 32.67 57.11ZM32.82 58.45H34.06V63.27H32.82V58.45Z" fill="white"/>
<path d="M37.49 62.28C37.97 62.28 38.36 62.08 38.57 61.8L39.57 62.38C39.12 63.04 38.39 63.41 37.47 63.41C35.85 63.41 34.83 62.3 34.83 60.86C34.83 59.42 35.86 58.31 37.38 58.31C38.81 58.31 39.82 59.44 39.82 60.86C39.82 61.04 39.8 61.21 39.77 61.37H36.13C36.3 62.01 36.83 62.28 37.49 62.28ZM38.57 60.41C38.42 59.72 37.89 59.44 37.37 59.44C36.7 59.44 36.25 59.8 36.11 60.41H38.57Z" fill="white"/>
<path d="M45.44 56.52V63.27H44.2V62.7C43.85 63.14 43.34 63.4 42.64 63.4C41.35 63.4 40.29 62.29 40.29 60.85C40.29 59.41 41.35 58.3 42.64 58.3C43.34 58.3 43.86 58.56 44.2 59V56.5H45.44V56.52ZM44.2 60.86C44.2 60.05 43.63 59.5 42.87 59.5C42.11 59.5 41.53 60.05 41.53 60.86C41.53 61.67 42.1 62.22 42.87 62.22C43.64 62.22 44.2 61.67 44.2 60.86Z" fill="white"/>
<path d="M5.59 71.27V68.22H6.51L7.06 70.3L7.61 68.22H8.53V71.27H7.96V68.87L7.35 71.27H6.76L6.16 68.87V71.27H5.59Z" fill="white"/>
<path d="M11.91 71.27H11.24L10.97 70.58H9.75001L9.50001 71.27H8.85001L10.04 68.22H10.69L11.91 71.27ZM10.77 70.06L10.35 68.93L9.94001 70.06H10.77Z" fill="white"/>
<path d="M12.24 71.27V68.22H13.54C13.87 68.22 14.1 68.25 14.25 68.3C14.4 68.35 14.52 68.45 14.61 68.59C14.7 68.73 14.74 68.89 14.74 69.07C14.74 69.3 14.67 69.49 14.54 69.64C14.41 69.79 14.2 69.88 13.94 69.92C14.07 70 14.18 70.08 14.27 70.18C14.36 70.27 14.47 70.44 14.62 70.68L14.99 71.28H14.25L13.8 70.62C13.64 70.38 13.53 70.23 13.47 70.17C13.41 70.11 13.35 70.07 13.28 70.04C13.21 70.02 13.11 70.01 12.97 70.01H12.85V71.28H12.23L12.24 71.27ZM12.86 69.5H13.32C13.62 69.5 13.8 69.49 13.87 69.46C13.94 69.43 14 69.39 14.04 69.33C14.08 69.27 14.1 69.19 14.1 69.1C14.1 69 14.07 68.91 14.02 68.85C13.96 68.79 13.89 68.75 13.79 68.73C13.74 68.73 13.59 68.72 13.34 68.72H12.86V69.49V69.5Z" fill="white"/>
<path d="M18.35 70.72V71.26H16.3C16.32 71.05 16.39 70.86 16.5 70.68C16.61 70.5 16.83 70.25 17.16 69.95C17.42 69.7 17.58 69.54 17.65 69.45C17.73 69.33 17.77 69.21 17.77 69.09C17.77 68.96 17.73 68.86 17.67 68.79C17.6 68.72 17.5 68.68 17.38 68.68C17.26 68.68 17.16 68.72 17.09 68.79C17.02 68.86 16.98 68.99 16.97 69.16L16.39 69.1C16.43 68.78 16.53 68.55 16.72 68.41C16.9 68.27 17.13 68.2 17.41 68.2C17.71 68.2 17.95 68.28 18.12 68.44C18.29 68.6 18.38 68.8 18.38 69.05C18.38 69.19 18.36 69.32 18.31 69.44C18.26 69.56 18.18 69.69 18.08 69.83C18.01 69.92 17.88 70.05 17.7 70.22C17.52 70.39 17.4 70.5 17.35 70.56C17.3 70.62 17.26 70.67 17.23 70.72H18.39H18.35Z" fill="white"/>
<path d="M19.74 68.2C20.04 68.2 20.27 68.31 20.43 68.52C20.63 68.77 20.73 69.19 20.73 69.76C20.73 70.33 20.63 70.75 20.43 71.01C20.26 71.22 20.03 71.32 19.74 71.32C19.45 71.32 19.2 71.21 19.02 70.98C18.84 70.75 18.75 70.35 18.75 69.76C18.75 69.17 18.85 68.77 19.05 68.52C19.22 68.31 19.45 68.21 19.74 68.21V68.2ZM19.74 68.69C19.67 68.69 19.61 68.71 19.55 68.76C19.49 68.8 19.45 68.89 19.42 69C19.38 69.15 19.36 69.41 19.36 69.76C19.36 70.11 19.38 70.36 19.41 70.5C19.44 70.64 19.49 70.72 19.55 70.77C19.6 70.81 19.67 70.84 19.74 70.84C19.81 70.84 19.87 70.82 19.93 70.77C19.99 70.72 20.03 70.64 20.06 70.53C20.1 70.38 20.12 70.13 20.12 69.77C20.12 69.41 20.1 69.17 20.07 69.03C20.03 68.9 19.99 68.81 19.93 68.76C19.88 68.71 19.81 68.69 19.74 68.69Z" fill="white"/>
<path d="M23.1 70.72V71.26H21.05C21.07 71.05 21.14 70.86 21.25 70.68C21.36 70.5 21.58 70.25 21.91 69.95C22.17 69.7 22.33 69.54 22.4 69.45C22.48 69.33 22.52 69.21 22.52 69.09C22.52 68.96 22.48 68.86 22.42 68.79C22.35 68.72 22.25 68.68 22.13 68.68C22.01 68.68 21.91 68.72 21.84 68.79C21.77 68.86 21.73 68.99 21.72 69.16L21.14 69.1C21.18 68.78 21.28 68.55 21.47 68.41C21.65 68.27 21.88 68.2 22.16 68.2C22.46 68.2 22.7 68.28 22.87 68.44C23.04 68.6 23.13 68.8 23.13 69.05C23.13 69.19 23.11 69.32 23.06 69.44C23.01 69.56 22.93 69.69 22.83 69.83C22.76 69.92 22.63 70.05 22.45 70.22C22.27 70.39 22.15 70.5 22.1 70.56C22.05 70.62 22.01 70.67 21.98 70.72H23.14H23.1Z" fill="white"/>
<path d="M23.5 70.48L24.08 70.42C24.1 70.55 24.15 70.66 24.23 70.73C24.31 70.8 24.41 70.85 24.51 70.85C24.63 70.85 24.74 70.8 24.82 70.7C24.9 70.6 24.95 70.45 24.95 70.25C24.95 70.06 24.91 69.92 24.82 69.83C24.73 69.74 24.63 69.69 24.49 69.69C24.32 69.69 24.17 69.76 24.04 69.91L23.57 69.84L23.87 68.25H25.42V68.8H24.32L24.23 69.32C24.36 69.25 24.49 69.22 24.63 69.22C24.89 69.22 25.11 69.31 25.29 69.5C25.47 69.69 25.56 69.93 25.56 70.24C25.56 70.49 25.49 70.72 25.34 70.91C25.14 71.18 24.87 71.31 24.51 71.31C24.23 71.31 24 71.23 23.82 71.08C23.64 70.93 23.54 70.73 23.5 70.47V70.48Z" fill="white"/>
<path d="M25.92 70.45V69.87H27.07V70.45H25.92Z" fill="white"/>
<path d="M27.41 71.27V68.22H28.33L28.88 70.3L29.43 68.22H30.35V71.27H29.78V68.87L29.17 71.27H28.58L27.98 68.87V71.27H27.41Z" fill="white"/>
<path d="M33.72 71.27H33.05L32.78 70.58H31.56L31.31 71.27H30.66L31.85 68.22H32.5L33.72 71.27ZM32.59 70.06L32.17 68.93L31.76 70.06H32.59Z" fill="white"/>
<path d="M34.05 71.27V68.22H35.35C35.68 68.22 35.91 68.25 36.06 68.3C36.21 68.35 36.33 68.45 36.42 68.59C36.51 68.73 36.55 68.89 36.55 69.07C36.55 69.3 36.48 69.49 36.35 69.64C36.22 69.79 36.01 69.88 35.75 69.92C35.88 70 35.99 70.08 36.08 70.18C36.17 70.27 36.28 70.44 36.43 70.68L36.8 71.28H36.06L35.61 70.62C35.45 70.38 35.34 70.23 35.28 70.17C35.22 70.11 35.16 70.07 35.09 70.04C35.02 70.02 34.92 70.01 34.78 70.01H34.66V71.28H34.04L34.05 71.27ZM34.67 69.5H35.13C35.43 69.5 35.61 69.49 35.68 69.46C35.75 69.43 35.81 69.39 35.85 69.33C35.89 69.27 35.91 69.19 35.91 69.1C35.91 69 35.88 68.91 35.83 68.85C35.77 68.79 35.7 68.75 35.6 68.73C35.55 68.73 35.4 68.72 35.15 68.72H34.67V69.49V69.5Z" fill="white"/>
<path d="M40.16 70.72V71.26H38.11C38.13 71.05 38.2 70.86 38.31 70.68C38.42 70.5 38.64 70.25 38.97 69.95C39.23 69.7 39.39 69.54 39.46 69.45C39.54 69.33 39.58 69.21 39.58 69.09C39.58 68.96 39.54 68.86 39.48 68.79C39.41 68.72 39.31 68.68 39.19 68.68C39.07 68.68 38.97 68.72 38.9 68.79C38.83 68.86 38.79 68.99 38.78 69.16L38.2 69.1C38.24 68.78 38.34 68.55 38.53 68.41C38.71 68.27 38.94 68.2 39.22 68.2C39.52 68.2 39.76 68.28 39.93 68.44C40.1 68.6 40.19 68.8 40.19 69.05C40.19 69.19 40.17 69.32 40.12 69.44C40.07 69.56 39.99 69.69 39.89 69.83C39.82 69.92 39.69 70.05 39.51 70.22C39.33 70.39 39.21 70.5 39.16 70.56C39.11 70.62 39.07 70.67 39.04 70.72H40.2H40.16Z" fill="white"/>
<path d="M41.55 68.2C41.85 68.2 42.08 68.31 42.24 68.52C42.44 68.77 42.54 69.19 42.54 69.76C42.54 70.33 42.44 70.75 42.24 71.01C42.07 71.22 41.84 71.32 41.55 71.32C41.26 71.32 41.01 71.21 40.83 70.98C40.65 70.75 40.56 70.35 40.56 69.76C40.56 69.17 40.66 68.77 40.86 68.52C41.03 68.31 41.26 68.21 41.55 68.21V68.2ZM41.55 68.69C41.48 68.69 41.42 68.71 41.36 68.76C41.3 68.8 41.26 68.89 41.23 69C41.19 69.15 41.17 69.41 41.17 69.76C41.17 70.11 41.19 70.36 41.22 70.5C41.25 70.64 41.3 70.72 41.36 70.77C41.41 70.81 41.48 70.84 41.55 70.84C41.62 70.84 41.68 70.82 41.74 70.77C41.8 70.72 41.84 70.64 41.87 70.53C41.91 70.38 41.93 70.13 41.93 69.77C41.93 69.41 41.91 69.17 41.88 69.03C41.84 68.9 41.8 68.81 41.74 68.76C41.69 68.71 41.62 68.69 41.55 68.69Z" fill="white"/>
<path d="M44.91 70.72V71.26H42.86C42.88 71.05 42.95 70.86 43.06 70.68C43.17 70.5 43.39 70.25 43.72 69.95C43.98 69.7 44.14 69.54 44.21 69.45C44.29 69.33 44.33 69.21 44.33 69.09C44.33 68.96 44.29 68.86 44.23 68.79C44.16 68.72 44.06 68.68 43.94 68.68C43.82 68.68 43.72 68.72 43.65 68.79C43.58 68.86 43.54 68.99 43.53 69.16L42.95 69.1C42.99 68.78 43.09 68.55 43.28 68.41C43.46 68.27 43.69 68.2 43.97 68.2C44.27 68.2 44.51 68.28 44.68 68.44C44.85 68.6 44.94 68.8 44.94 69.05C44.94 69.19 44.92 69.32 44.87 69.44C44.82 69.56 44.74 69.69 44.64 69.83C44.57 69.92 44.44 70.05 44.26 70.22C44.08 70.39 43.96 70.5 43.91 70.56C43.86 70.62 43.82 70.67 43.79 70.72H44.95H44.91Z" fill="white"/>
<path d="M47.29 68.96L46.72 69.02C46.71 68.9 46.67 68.82 46.61 68.76C46.55 68.7 46.48 68.68 46.38 68.68C46.26 68.68 46.15 68.74 46.07 68.85C45.98 68.96 45.93 69.19 45.91 69.54C46.06 69.37 46.24 69.28 46.45 69.28C46.69 69.28 46.9 69.37 47.08 69.56C47.25 69.75 47.34 69.99 47.34 70.28C47.34 70.59 47.25 70.84 47.06 71.03C46.88 71.22 46.64 71.31 46.35 71.31C46.04 71.31 45.79 71.19 45.59 70.95C45.39 70.71 45.29 70.32 45.29 69.77C45.29 69.22 45.39 68.81 45.6 68.56C45.81 68.31 46.08 68.19 46.41 68.19C46.64 68.19 46.83 68.26 46.99 68.39C47.14 68.52 47.24 68.71 47.28 68.96H47.29ZM45.96 70.24C45.96 70.43 46 70.58 46.09 70.68C46.18 70.78 46.28 70.84 46.39 70.84C46.5 70.84 46.59 70.8 46.66 70.71C46.73 70.62 46.77 70.49 46.77 70.29C46.77 70.09 46.73 69.95 46.65 69.85C46.57 69.76 46.48 69.71 46.36 69.71C46.24 69.71 46.15 69.75 46.07 69.84C45.99 69.93 45.95 70.06 45.95 70.23L45.96 70.24Z" fill="white"/>
<path d="M20.88 78.7V75.65H21.5V78.7H20.88Z" fill="white"/>
<path d="M22.09 78.7V75.65H22.69L23.94 77.69V75.65H24.51V78.7H23.89L22.66 76.71V78.7H22.09Z" fill="white"/>
<path d="M25.16 75.65H26.29C26.54 75.65 26.74 75.67 26.87 75.71C27.05 75.76 27.2 75.86 27.33 75.99C27.46 76.12 27.56 76.29 27.62 76.48C27.68 76.67 27.72 76.92 27.72 77.2C27.72 77.45 27.69 77.67 27.63 77.85C27.55 78.07 27.44 78.25 27.3 78.39C27.19 78.49 27.05 78.58 26.87 78.63C26.73 78.67 26.55 78.69 26.32 78.69H25.16V75.64V75.65ZM25.78 76.17V78.19H26.24C26.41 78.19 26.54 78.19 26.61 78.16C26.71 78.14 26.79 78.09 26.86 78.03C26.93 77.97 26.98 77.87 27.02 77.74C27.06 77.6 27.08 77.42 27.08 77.18C27.08 76.94 27.06 76.76 27.02 76.64C26.98 76.51 26.92 76.42 26.85 76.34C26.78 76.27 26.68 76.22 26.56 76.2C26.47 76.18 26.31 76.17 26.05 76.17H25.77H25.78Z" fill="white"/>
<path d="M28.23 78.7V75.65H28.85V78.7H28.23Z" fill="white"/>
<path d="M32.18 78.7H31.51L31.24 78.01H30.02L29.77 78.7H29.12L30.31 75.65H30.96L32.18 78.7ZM31.05 77.49L30.63 76.36L30.22 77.49H31.05Z" fill="white"/>
</g>
<defs>
<clipPath id="clip0_2_681">
<rect width="52.79" height="90" fill="white"/>
</clipPath>
</defs>
</svg>
