<svg width="12" height="12" viewBox="0 0 12 12" fill="none" xmlns="http://www.w3.org/2000/svg">
<path d="M6 12C9.31388 12 12 9.31388 12 6C12 2.68613 9.31388 0 6 0C2.68613 0 0 2.68613 0 6C0 9.31388 2.68613 12 6 12ZM6 0.821625C8.85975 0.821625 11.1784 3.13987 11.1784 6C11.1784 8.86012 8.85975 11.1784 6 11.1784C3.14025 11.1784 0.821625 8.85975 0.821625 6C0.821625 3.14025 3.14025 0.821625 6 0.821625Z" fill="#D9D9D9"/>
<path d="M6 10.3489C8.40187 10.3489 10.3489 8.40187 10.3489 6C10.3489 3.59812 8.40187 1.65112 6 1.65112C3.59812 1.65112 1.65112 3.59812 1.65112 6C1.65112 8.40187 3.59812 10.3489 6 10.3489ZM4.61325 8.05275H3.52425V4.77637H4.61325V8.05275ZM5.21587 4.77637H6.30487V5.24062C6.44925 5.0175 6.70837 4.6995 7.28625 4.6995C8.0025 4.6995 8.53987 5.16787 8.53987 6.17437V8.05312H7.45125V6.3C7.45125 5.85975 7.29375 5.55937 6.89962 5.55937C6.59887 5.55937 6.41962 5.76187 6.34125 5.95762C6.31237 6.02737 6.30525 6.12525 6.30525 6.22312V8.05312H5.21625C5.21587 8.05275 5.2305 5.08387 5.21587 4.77637ZM4.07587 3.19687C4.44825 3.19687 4.67775 3.44137 4.68487 3.76275C4.68487 4.07737 4.44825 4.329 4.06875 4.329H4.062C3.69637 4.329 3.46012 4.077 3.46012 3.76275C3.45975 3.44137 3.7035 3.19687 4.07587 3.19687Z" fill="#D9D9D9"/>
</svg>
