<svg width="14" height="14" viewBox="0 0 14 14" fill="none" xmlns="http://www.w3.org/2000/svg">
<path d="M7 14C10.866 14 14 10.866 14 7C14 3.13401 10.866 0 7 0C3.13401 0 0 3.13401 0 7C0 10.866 3.13401 14 7 14Z" fill="#2967AF"/>
<path d="M7.54167 6.04499C7.65661 5.9158 7.75139 5.78466 7.86948 5.67336C8.23246 5.33123 8.66188 5.15861 9.16322 5.16288C9.4387 5.16523 9.71107 5.18511 9.97669 5.2619C10.5843 5.4376 10.9374 5.85585 11.1057 6.44934C11.232 6.89447 11.2553 7.3514 11.2561 7.80986C11.2578 8.77684 11.2533 9.74379 11.2554 10.7108C11.2556 10.8013 11.2302 10.8251 11.1411 10.8243C10.6429 10.8202 10.1448 10.8201 9.6466 10.8244C9.55893 10.8252 9.54003 10.7981 9.54027 10.7152C9.54304 9.79513 9.54377 8.87502 9.54076 7.9549C9.54003 7.72432 9.52533 7.49388 9.46065 7.26967C9.34151 6.85671 9.04586 6.64632 8.61323 6.66914C8.02253 6.70033 7.71534 6.99286 7.63998 7.5936C7.62199 7.73703 7.61349 7.8806 7.61363 8.02515C7.6144 8.91999 7.61272 9.81484 7.61601 10.7097C7.61632 10.7989 7.59396 10.8252 7.50282 10.8244C7.00106 10.82 6.49926 10.8205 5.9975 10.8241C5.91704 10.8246 5.89383 10.8029 5.8939 10.7216C5.89614 8.94995 5.89618 7.17829 5.8938 5.40666C5.89366 5.31898 5.92243 5.29868 6.00531 5.29928C6.4818 5.30281 6.95836 5.30323 7.43485 5.299C7.52252 5.29823 7.5452 5.32658 7.54328 5.40963C7.53841 5.62135 7.54167 5.8332 7.54167 6.04499Z" fill="white"/>
<path d="M4.8122 8.0697C4.8122 8.94617 4.81073 9.82264 4.81426 10.6991C4.81465 10.7965 4.79043 10.8259 4.6896 10.8248C4.19169 10.8194 3.69363 10.8206 3.19569 10.8241C3.11585 10.8247 3.09181 10.8047 3.09195 10.7222C3.09433 8.94764 3.09415 7.17307 3.09237 5.39853C3.0923 5.3251 3.11008 5.29892 3.1881 5.29941C3.69329 5.30267 4.19851 5.30368 4.70367 5.29878C4.80069 5.29784 4.81391 5.3355 4.8137 5.41869C4.81125 6.30234 4.8122 7.18602 4.8122 8.0697Z" fill="white"/>
<path d="M4.94948 3.54081C4.95004 4.09108 4.50333 4.53939 3.95436 4.5396C3.41242 4.53978 2.96193 4.09111 2.96015 3.54942C2.95836 3.00167 3.4085 2.55069 3.95646 2.55122C4.50053 2.55174 4.94892 2.99859 4.94948 3.54081Z" fill="white"/>
</svg>
