<svg width="77" height="45" viewBox="0 0 77 45" fill="none" xmlns="http://www.w3.org/2000/svg">
<g clip-path="url(#clip0_1_17)">
<path d="M36.04 4.99C34.66 5.12 33.3 5.39 32.01 5.92C29.29 7.04 27.54 9.01 27.02 11.97C26.62 14.23 26.8 16.47 27.4 18.68C27.61 19.47 27.95 20.22 28.41 20.9C29.58 22.6 31.27 23.23 33.24 23.28C33.4 23.28 33.41 23.19 33.41 23.07C33.41 22.71 33.4 22.35 33.41 21.98C33.41 21.81 33.37 21.74 33.2 21.73C32.68 21.68 32.27 21.41 31.97 21C31.78 20.74 31.58 20.45 31.48 20.15C31.27 19.54 31.09 18.92 30.97 18.29C30.67 16.74 30.66 15.16 30.67 13.59C30.67 12.7 30.79 11.83 30.96 10.97C31.41 8.79 32.71 7.44 34.83 6.87C35.74 6.63 36.66 6.51 37.59 6.48C39.1 6.43 40.6 6.53 42.05 7.02C43.7 7.58 44.8 8.68 45.29 10.38C45.53 11.21 45.69 12.07 45.72 12.93C45.77 14.53 45.77 16.12 45.54 17.71C45.41 18.59 45.26 19.47 44.88 20.28C44.51 21.07 43.99 21.69 43 21.75C43 22.22 43 22.67 43 23.12C43 23.17 43.11 23.27 43.17 23.27C43.45 23.27 43.73 23.25 44.01 23.21C45.64 23.02 46.99 22.31 47.96 20.94C48.4 20.31 48.73 19.63 48.94 18.89C49.56 16.77 49.74 14.61 49.46 12.42C49.16 10.08 48.1 8.2 46.15 6.86C44.81 5.93 43.3 5.44 41.72 5.17C40.56 4.97 39.4 4.88 38.24 4.88C37.51 4.88 36.77 4.92 36.03 4.99" fill="white"/>
<path d="M33.88 0.21C32.29 0.32 30.71 0.56 29.16 0.92C26.91 1.44 24.77 2.23 22.83 3.52C19.63 5.64 17.84 8.63 17.47 12.49C17.35 13.74 17.38 14.99 17.48 16.24C17.61 17.81 17.86 19.34 18.36 20.84C19.04 22.86 20.13 24.6 21.85 25.88C24.03 27.51 26.56 27.94 29.19 28.01C29.32 28.01 29.36 27.95 29.36 27.82C29.36 27.16 29.36 26.5 29.36 25.84C29.36 25.73 29.33 25.67 29.2 25.66C27.93 25.63 26.98 25 26.25 23.98C25.77 23.29 25.45 22.52 25.21 21.72C24.78 20.28 24.55 18.81 24.45 17.31C24.31 15.15 24.23 12.99 24.55 10.83C24.7 9.85 24.94 8.89 25.31 7.97C26.16 5.86 27.71 4.52 29.76 3.7C31.69 2.92 33.71 2.61 35.77 2.48C37.98 2.34 40.18 2.37 42.38 2.66C43.96 2.87 45.5 3.22 46.96 3.88C49.06 4.82 50.49 6.37 51.22 8.58C51.53 9.52 51.73 10.49 51.84 11.48C52.04 13.37 51.99 15.27 51.87 17.16C51.77 18.65 51.55 20.13 51.14 21.57C50.84 22.6 50.44 23.57 49.73 24.39C49.04 25.18 48.19 25.62 47.14 25.65C46.97 25.65 46.95 25.73 46.95 25.87C46.95 26.5 46.95 27.13 46.95 27.76C46.95 27.97 47.03 28.02 47.21 28C48.22 27.89 49.25 27.86 50.24 27.67C53.86 26.96 56.39 24.89 57.74 21.39C58.3 19.95 58.6 18.45 58.76 16.92C58.95 15.07 59.01 13.22 58.69 11.37C58.26 8.92 57.2 6.8 55.42 5.07C53.82 3.52 51.93 2.47 49.86 1.71C47.9 1 45.87 0.59 43.81 0.33C41.93 0.0999998 40.05 0.0199998 37.62 -0.0100002C36.73 0.0399998 35.31 0.0999998 33.88 0.2" fill="white"/>
<path d="M20.74 31.47V44.37H23.4V39.18H25.54L26.66 36.81H23.4V33.86H26.78L27.9 31.47H20.74Z" fill="white"/>
<path d="M10.24 36.44V44.37H17.06L18.3 41.92H13.17V31.47L10.24 36.44Z" fill="white"/>
<path d="M0 44.35L6.99 44.38L8.24 41.99L2.94 41.97L2.95 38.91L6.45 38.92L7.7 36.55L2.95 36.54L2.96 33.86L6.75 33.87L8 31.48L0.04 31.45L0 44.35Z" fill="white"/>
<path d="M39.55 13.19C39.35 13.38 39.18 13.55 39.01 13.72C38.62 14.1 38.18 14.21 37.76 14.02C37.3 13.82 37.01 13.35 37.02 12.83C37.02 12.54 37.14 12.29 37.34 12.09C38.44 11.05 39.54 10.01 40.66 8.99C41.01 8.67 41.51 8.81 41.69 9.26C41.77 9.48 41.83 9.72 41.83 9.95C41.83 14.06 41.83 18.17 41.83 22.27C41.83 22.69 41.73 23.09 41.32 23.28C40.87 23.49 40.4 23.49 39.96 23.22C39.71 23.07 39.62 22.8 39.59 22.51C39.57 22.31 39.58 22.1 39.58 21.9C39.58 19.06 39.58 16.22 39.58 13.38C39.58 13.33 39.57 13.27 39.56 13.19" fill="white"/>
<path d="M34.73 17.27C34.63 17.38 34.52 17.49 34.42 17.61C33.98 18.1 33.49 18.17 33.08 17.8C32.63 17.4 32.58 16.74 33.02 16.29C33.87 15.42 34.75 14.57 35.63 13.73C35.96 13.42 36.37 13.53 36.51 13.96C36.57 14.13 36.6 14.33 36.6 14.51C36.6 17.12 36.6 19.73 36.6 22.35C36.6 23.11 36.22 23.44 35.48 23.35C35.12 23.3 34.9 23.11 34.82 22.75C34.79 22.6 34.78 22.44 34.78 22.28C34.78 20.7 34.78 19.12 34.78 17.54V17.29C34.78 17.29 34.74 17.28 34.73 17.27Z" fill="white"/>
<path d="M52.02 40.62L47.24 31.47H43.83V44.37H46.39C46.39 42.26 46.39 34.86 46.39 34.86L51.44 44.37H54.5V31.47L52 36.44V40.62H52.02Z" fill="white"/>
<path d="M60.13 41.88L66.14 33.15V31.47H58.03L56.78 33.88H62.35V33.96L56.21 42.8V44.37H65L66.24 41.96H60.13V41.88Z" fill="white"/>
<path d="M71 41.97V38.91H74.51L75.75 36.54H71V33.86H74.79L76.04 31.47H68.08V44.37H75.06L76.31 41.97H71Z" fill="white"/>
<path d="M35.71 33.57C37.62 33.57 38.72 35.37 38.82 37.53H41.91C41.81 34.08 39.66 31.25 35.79 31.25C32.14 31.25 29.72 33.9 29.53 37.53H32.61C32.73 35.24 33.86 33.57 35.72 33.57" fill="white"/>
<path d="M35.73 42.26C33.87 42.26 32.7 40.64 32.6 38.3H29.52C29.63 41.84 31.85 44.58 35.58 44.58C39.31 44.58 41.7 42.22 41.9 38.3H38.82C38.7 40.59 37.59 42.26 35.73 42.26Z" fill="white"/>
</g>
<defs>
<clipPath id="clip0_1_17">
<rect width="76.31" height="44.58" fill="white"/>
</clipPath>
</defs>
</svg>
